G04*
G04 #@! TF.GenerationSoftware,Altium Limited,Altium Designer,22.1.2 (22)*
G04*
G04 Layer_Physical_Order=2*
G04 Layer_Color=32768*
%FSLAX25Y25*%
%MOIN*%
G70*
G04*
G04 #@! TF.SameCoordinates,295266D8-D9C4-4D40-B0F9-79C310AB5363*
G04*
G04*
G04 #@! TF.FilePolarity,Negative*
G04*
G01*
G75*
%ADD11C,0.01000*%
%ADD30C,0.04000*%
%ADD31C,0.07543*%
G04:AMPARAMS|DCode=32|XSize=83.622mil|YSize=83.622mil|CornerRadius=0mil|HoleSize=0mil|Usage=FLASHONLY|Rotation=0.000|XOffset=0mil|YOffset=0mil|HoleType=Round|Shape=Relief|Width=10mil|Gap=10mil|Entries=4|*
%AMTHD32*
7,0,0,0.08362,0.06362,0.01000,45*
%
%ADD32THD32*%
%ADD33C,0.06362*%
%ADD34C,0.05969*%
%ADD35O,0.11087X0.06756*%
%ADD36O,0.10299X0.07150*%
%ADD37C,0.06953*%
G04:AMPARAMS|DCode=38|XSize=72mil|YSize=72mil|CornerRadius=0mil|HoleSize=0mil|Usage=FLASHONLY|Rotation=0.000|XOffset=0mil|YOffset=0mil|HoleType=Round|Shape=Relief|Width=10mil|Gap=10mil|Entries=4|*
%AMTHD38*
7,0,0,0.07200,0.05200,0.01000,45*
%
%ADD38THD38*%
%ADD39C,0.05200*%
D11*
X69000Y151500D02*
X89000D01*
X67500Y150000D02*
X69000Y151500D01*
X67500Y138500D02*
Y150000D01*
X89000Y151500D02*
X90500Y150000D01*
Y141500D02*
Y150000D01*
X96000Y108500D02*
Y127500D01*
Y108500D02*
X102000Y102500D01*
Y99500D02*
Y102500D01*
X100000Y97500D02*
X102000Y99500D01*
X93500Y97500D02*
X100000D01*
X88500Y102500D02*
X93500Y97500D01*
X71500Y102500D02*
X88500D01*
X71500Y130000D02*
X93250D01*
X67000Y125500D02*
X71500Y130000D01*
X67000Y107000D02*
Y125500D01*
Y107000D02*
X71500Y102500D01*
X93500Y130000D02*
X96000Y127500D01*
X93000Y130000D02*
X93500D01*
X105000Y96500D02*
Y133500D01*
X100000Y138500D02*
X105000Y133500D01*
X93500Y138500D02*
X100000D01*
X90500Y141500D02*
X93500Y138500D01*
X63000Y134000D02*
X67500Y138500D01*
X63000Y121000D02*
Y134000D01*
X60500Y118500D02*
X63000Y121000D01*
X60500Y95500D02*
Y118500D01*
Y95500D02*
X62000Y94000D01*
X102500D01*
X105000Y96500D01*
D30*
X0Y157480D02*
X125984D01*
X0Y0D02*
X23622D01*
Y19685D01*
X102362D01*
Y0D02*
Y19685D01*
Y0D02*
X125984D01*
Y157480D01*
X0Y0D02*
Y157480D01*
D31*
X5512Y34843D02*
D03*
Y43898D02*
D03*
D32*
X95650Y151181D02*
D03*
D33*
X100650D02*
D03*
X105650D02*
D03*
X110650D02*
D03*
D34*
X3937Y145177D02*
D03*
Y150098D02*
D03*
D35*
X22342Y70866D02*
D03*
Y106299D02*
D03*
D36*
X6003D02*
D03*
Y70866D02*
D03*
D37*
X20373Y99961D02*
D03*
Y77205D02*
D03*
D38*
X79500Y146500D02*
D03*
X63500Y38500D02*
D03*
X57500Y38000D02*
D03*
X80000Y71500D02*
D03*
X67500Y101000D02*
D03*
Y131911D02*
D03*
X97000Y132500D02*
D03*
X118500Y114500D02*
D03*
X121000Y73500D02*
D03*
X114000Y10000D02*
D03*
D39*
X12500Y97500D02*
D03*
X17500Y91000D02*
D03*
X8500Y85500D02*
D03*
X9000Y93000D02*
D03*
X17752Y124261D02*
D03*
X17501Y120952D02*
D03*
X30500Y114500D02*
D03*
X52000Y127000D02*
D03*
X51000Y121000D02*
D03*
X36000Y115208D02*
D03*
X13935Y140935D02*
D03*
X58470Y124700D02*
D03*
X28000Y61500D02*
D03*
X92500Y25500D02*
D03*
X45000Y35000D02*
D03*
X89026Y38480D02*
D03*
X93000Y40000D02*
D03*
X69000Y54500D02*
D03*
X64000D02*
D03*
X76214Y40700D02*
D03*
X73500Y49000D02*
D03*
X60000D02*
D03*
X23000Y27500D02*
D03*
X67500Y71500D02*
D03*
X5000Y18500D02*
D03*
X86000Y140500D02*
D03*
X92000Y68000D02*
D03*
X16000Y37000D02*
D03*
X62000Y83000D02*
D03*
X77000Y90500D02*
D03*
X53000Y132000D02*
D03*
X35000Y138500D02*
D03*
X90500Y116000D02*
D03*
Y122000D02*
D03*
X86500Y108000D02*
D03*
X81500D02*
D03*
X105000Y85000D02*
D03*
X53000Y148000D02*
D03*
X75500Y109000D02*
D03*
X60500Y138500D02*
D03*
X118000Y128500D02*
D03*
X112500Y98500D02*
D03*
X104000Y61000D02*
D03*
X98000Y101500D02*
D03*
X74000Y124500D02*
D03*
X78000Y121000D02*
D03*
X36000Y148000D02*
D03*
X44232Y109000D02*
D03*
X50500Y87000D02*
D03*
X31048Y98653D02*
D03*
X31043Y78514D02*
D03*
X14500Y25500D02*
D03*
X82000Y84500D02*
D03*
X60500Y70000D02*
D03*
X41500Y93000D02*
D03*
Y87500D02*
D03*
X17500Y85500D02*
D03*
X64500Y89500D02*
D03*
X114500Y36500D02*
D03*
X120000Y23500D02*
D03*
X110500Y58000D02*
D03*
X15000Y66000D02*
D03*
X13000Y13500D02*
D03*
X5500Y8500D02*
D03*
X32000Y36000D02*
D03*
X113000Y43000D02*
D03*
X110000Y26000D02*
D03*
X24500Y137000D02*
D03*
M02*
