G04*
G04 #@! TF.GenerationSoftware,Altium Limited,Altium Designer,23.4.1 (23)*
G04*
G04 Layer_Color=65535*
%FSLAX25Y25*%
%MOIN*%
G70*
G04*
G04 #@! TF.SameCoordinates,517BF390-C1E0-4631-B7DD-1789FC60F1BE*
G04*
G04*
G04 #@! TF.FilePolarity,Positive*
G04*
G01*
G75*
%ADD10C,0.02000*%
%ADD11C,0.01000*%
G36*
X75002Y116053D02*
X74373D01*
Y116774D01*
X75002D01*
Y116053D01*
D02*
G37*
G36*
X71798Y113822D02*
Y111653D01*
X71121D01*
Y113822D01*
X69149Y116774D01*
X69974D01*
X70980Y115228D01*
X70984Y115224D01*
X70991Y115209D01*
X71010Y115183D01*
X71029Y115154D01*
X71054Y115113D01*
X71084Y115069D01*
X71117Y115017D01*
X71154Y114958D01*
X71191Y114895D01*
X71232Y114828D01*
X71276Y114754D01*
X71321Y114680D01*
X71413Y114525D01*
X71502Y114366D01*
X71506Y114369D01*
X71513Y114384D01*
X71524Y114406D01*
X71543Y114436D01*
X71565Y114473D01*
X71595Y114517D01*
X71624Y114569D01*
X71661Y114628D01*
X71698Y114691D01*
X71743Y114758D01*
X71787Y114832D01*
X71835Y114913D01*
X71887Y114995D01*
X71942Y115083D01*
X72061Y115265D01*
X73052Y116774D01*
X73840D01*
X71798Y113822D01*
D02*
G37*
G36*
X62559Y113581D02*
X63910Y111653D01*
X63144D01*
X62374Y112804D01*
X62197Y113085D01*
X61198Y111653D01*
X60439D01*
X61793Y113570D01*
X60539Y115365D01*
X61312D01*
X61893Y114491D01*
X61897Y114488D01*
X61901Y114480D01*
X61908Y114469D01*
X61919Y114451D01*
X61934Y114428D01*
X61949Y114403D01*
X61986Y114347D01*
X62026Y114280D01*
X62071Y114214D01*
X62115Y114144D01*
X62152Y114077D01*
X62156Y114081D01*
X62160Y114088D01*
X62167Y114099D01*
X62178Y114114D01*
X62208Y114158D01*
X62248Y114214D01*
X62293Y114273D01*
X62341Y114343D01*
X62389Y114414D01*
X62437Y114480D01*
X63062Y115365D01*
X63817D01*
X62559Y113581D01*
D02*
G37*
G36*
X55873Y111653D02*
X55218D01*
Y115938D01*
X53727Y111653D01*
X53113D01*
X51637Y116012D01*
Y111653D01*
X50982D01*
Y116774D01*
X51999D01*
X53213Y113148D01*
X53217Y113141D01*
X53220Y113126D01*
X53228Y113100D01*
X53239Y113067D01*
X53254Y113022D01*
X53268Y112974D01*
X53287Y112923D01*
X53306Y112863D01*
X53346Y112741D01*
X53387Y112616D01*
X53405Y112553D01*
X53424Y112493D01*
X53442Y112442D01*
X53457Y112390D01*
Y112393D01*
X53461Y112405D01*
X53468Y112419D01*
X53476Y112442D01*
X53483Y112471D01*
X53494Y112508D01*
X53509Y112549D01*
X53524Y112597D01*
X53542Y112653D01*
X53565Y112712D01*
X53587Y112778D01*
X53609Y112852D01*
X53638Y112934D01*
X53664Y113019D01*
X53698Y113111D01*
X53731Y113211D01*
X54959Y116774D01*
X55873D01*
Y111653D01*
D02*
G37*
G36*
X75002D02*
X74373D01*
Y115365D01*
X75002D01*
Y111653D01*
D02*
G37*
G36*
X66426Y116771D02*
X66485D01*
X66548Y116767D01*
X66618D01*
X66766Y116756D01*
X66918Y116745D01*
X66992Y116734D01*
X67062Y116726D01*
X67129Y116715D01*
X67192Y116700D01*
X67195D01*
X67210Y116697D01*
X67232Y116689D01*
X67266Y116682D01*
X67303Y116667D01*
X67347Y116652D01*
X67395Y116637D01*
X67451Y116615D01*
X67565Y116567D01*
X67691Y116500D01*
X67817Y116427D01*
X67880Y116382D01*
X67939Y116334D01*
X67943Y116330D01*
X67958Y116319D01*
X67980Y116297D01*
X68006Y116271D01*
X68039Y116238D01*
X68080Y116197D01*
X68120Y116149D01*
X68168Y116097D01*
X68217Y116034D01*
X68265Y115968D01*
X68316Y115897D01*
X68368Y115820D01*
X68416Y115735D01*
X68461Y115649D01*
X68505Y115553D01*
X68546Y115457D01*
X68550Y115450D01*
X68553Y115431D01*
X68564Y115405D01*
X68579Y115365D01*
X68594Y115313D01*
X68609Y115254D01*
X68627Y115183D01*
X68649Y115106D01*
X68668Y115021D01*
X68686Y114924D01*
X68701Y114824D01*
X68716Y114717D01*
X68731Y114606D01*
X68742Y114488D01*
X68746Y114366D01*
X68749Y114240D01*
Y114232D01*
Y114214D01*
Y114184D01*
X68746Y114140D01*
Y114092D01*
X68742Y114033D01*
X68738Y113966D01*
X68731Y113892D01*
X68723Y113814D01*
X68716Y113729D01*
X68690Y113555D01*
X68657Y113378D01*
X68612Y113204D01*
Y113200D01*
X68605Y113185D01*
X68598Y113159D01*
X68586Y113130D01*
X68575Y113093D01*
X68557Y113048D01*
X68538Y112997D01*
X68516Y112945D01*
X68468Y112826D01*
X68405Y112701D01*
X68339Y112578D01*
X68261Y112460D01*
X68257Y112456D01*
X68250Y112449D01*
X68239Y112431D01*
X68224Y112412D01*
X68205Y112386D01*
X68180Y112356D01*
X68124Y112290D01*
X68054Y112216D01*
X67976Y112138D01*
X67887Y112064D01*
X67795Y111994D01*
X67791D01*
X67784Y111986D01*
X67769Y111979D01*
X67750Y111968D01*
X67724Y111953D01*
X67695Y111938D01*
X67661Y111920D01*
X67624Y111901D01*
X67580Y111879D01*
X67536Y111857D01*
X67484Y111838D01*
X67432Y111816D01*
X67314Y111776D01*
X67184Y111739D01*
X67181D01*
X67169Y111735D01*
X67147Y111731D01*
X67121Y111724D01*
X67088Y111720D01*
X67047Y111713D01*
X66999Y111705D01*
X66947Y111698D01*
X66888Y111687D01*
X66825Y111679D01*
X66759Y111672D01*
X66685Y111668D01*
X66611Y111661D01*
X66529Y111657D01*
X66363Y111653D01*
X64517D01*
Y116774D01*
X66378D01*
X66426Y116771D01*
D02*
G37*
G36*
X58567Y115442D02*
X58615Y115439D01*
X58667Y115435D01*
X58722Y115431D01*
X58844Y115416D01*
X58974Y115398D01*
X59100Y115368D01*
X59163Y115350D01*
X59218Y115331D01*
X59222D01*
X59233Y115328D01*
X59248Y115320D01*
X59266Y115313D01*
X59292Y115302D01*
X59318Y115287D01*
X59385Y115254D01*
X59455Y115213D01*
X59529Y115165D01*
X59596Y115113D01*
X59655Y115050D01*
Y115046D01*
X59662Y115043D01*
X59670Y115032D01*
X59677Y115021D01*
X59703Y114983D01*
X59732Y114932D01*
X59766Y114869D01*
X59795Y114798D01*
X59825Y114713D01*
X59851Y114621D01*
Y114613D01*
X59855Y114602D01*
Y114591D01*
X59858Y114573D01*
X59862Y114547D01*
X59866Y114521D01*
X59869Y114488D01*
Y114451D01*
X59873Y114410D01*
X59877Y114362D01*
X59880Y114310D01*
Y114251D01*
X59884Y114188D01*
Y114118D01*
Y114044D01*
Y113207D01*
Y113204D01*
Y113196D01*
Y113185D01*
Y113171D01*
Y113148D01*
Y113126D01*
Y113067D01*
Y112997D01*
X59888Y112919D01*
Y112830D01*
Y112741D01*
X59891Y112553D01*
X59895Y112460D01*
X59899Y112368D01*
X59903Y112286D01*
X59910Y112212D01*
X59914Y112149D01*
X59917Y112120D01*
X59921Y112098D01*
Y112094D01*
X59925Y112086D01*
Y112075D01*
X59929Y112057D01*
X59936Y112038D01*
X59940Y112012D01*
X59958Y111953D01*
X59980Y111887D01*
X60006Y111813D01*
X60043Y111735D01*
X60084Y111653D01*
X59429D01*
Y111657D01*
X59425Y111661D01*
X59418Y111672D01*
X59414Y111687D01*
X59403Y111705D01*
X59396Y111731D01*
X59373Y111783D01*
X59351Y111853D01*
X59329Y111931D01*
X59314Y112016D01*
X59299Y112112D01*
X59296Y112109D01*
X59285Y112098D01*
X59266Y112083D01*
X59240Y112064D01*
X59207Y112038D01*
X59170Y112012D01*
X59129Y111979D01*
X59085Y111946D01*
X59033Y111913D01*
X58981Y111879D01*
X58867Y111809D01*
X58748Y111742D01*
X58685Y111716D01*
X58626Y111690D01*
X58622D01*
X58611Y111687D01*
X58593Y111679D01*
X58571Y111672D01*
X58541Y111665D01*
X58504Y111653D01*
X58463Y111642D01*
X58419Y111631D01*
X58371Y111620D01*
X58315Y111609D01*
X58197Y111591D01*
X58071Y111576D01*
X57934Y111572D01*
X57908D01*
X57875Y111576D01*
X57834D01*
X57783Y111580D01*
X57723Y111587D01*
X57657Y111598D01*
X57586Y111609D01*
X57512Y111624D01*
X57438Y111646D01*
X57357Y111668D01*
X57279Y111698D01*
X57205Y111731D01*
X57128Y111772D01*
X57061Y111816D01*
X56994Y111868D01*
X56991Y111872D01*
X56980Y111883D01*
X56965Y111898D01*
X56943Y111924D01*
X56920Y111953D01*
X56891Y111986D01*
X56861Y112027D01*
X56832Y112075D01*
X56802Y112127D01*
X56772Y112186D01*
X56743Y112249D01*
X56721Y112316D01*
X56698Y112390D01*
X56684Y112464D01*
X56673Y112545D01*
X56669Y112630D01*
Y112634D01*
Y112641D01*
Y112656D01*
X56673Y112678D01*
Y112701D01*
X56676Y112730D01*
X56684Y112797D01*
X56698Y112871D01*
X56721Y112956D01*
X56750Y113041D01*
X56791Y113126D01*
Y113130D01*
X56798Y113137D01*
X56802Y113148D01*
X56813Y113163D01*
X56839Y113204D01*
X56876Y113256D01*
X56924Y113315D01*
X56980Y113374D01*
X57042Y113433D01*
X57113Y113489D01*
X57117D01*
X57124Y113496D01*
X57135Y113504D01*
X57150Y113511D01*
X57168Y113522D01*
X57191Y113537D01*
X57246Y113566D01*
X57313Y113600D01*
X57390Y113633D01*
X57475Y113666D01*
X57568Y113696D01*
X57572D01*
X57575Y113700D01*
X57586D01*
X57601Y113703D01*
X57623Y113707D01*
X57646Y113714D01*
X57675Y113718D01*
X57709Y113725D01*
X57745Y113733D01*
X57786Y113740D01*
X57831Y113748D01*
X57882Y113755D01*
X57938Y113762D01*
X57997Y113774D01*
X58060Y113781D01*
X58127Y113788D01*
X58134D01*
X58145Y113792D01*
X58160D01*
X58201Y113800D01*
X58252Y113803D01*
X58315Y113814D01*
X58386Y113825D01*
X58467Y113837D01*
X58552Y113851D01*
X58641Y113866D01*
X58733Y113881D01*
X58918Y113918D01*
X59011Y113940D01*
X59096Y113962D01*
X59174Y113985D01*
X59248Y114007D01*
Y114014D01*
Y114029D01*
Y114047D01*
X59251Y114073D01*
Y114129D01*
Y114151D01*
Y114170D01*
Y114173D01*
Y114188D01*
Y114207D01*
X59248Y114232D01*
Y114262D01*
X59240Y114299D01*
X59229Y114380D01*
X59207Y114469D01*
X59174Y114562D01*
X59155Y114602D01*
X59129Y114643D01*
X59103Y114676D01*
X59070Y114710D01*
X59066Y114713D01*
X59059Y114721D01*
X59044Y114728D01*
X59026Y114743D01*
X59000Y114758D01*
X58970Y114776D01*
X58933Y114798D01*
X58893Y114817D01*
X58844Y114836D01*
X58789Y114858D01*
X58733Y114876D01*
X58667Y114891D01*
X58596Y114906D01*
X58522Y114917D01*
X58441Y114921D01*
X58356Y114924D01*
X58315D01*
X58282Y114921D01*
X58245D01*
X58204Y114917D01*
X58156Y114910D01*
X58108Y114906D01*
X58001Y114887D01*
X57894Y114858D01*
X57790Y114817D01*
X57742Y114795D01*
X57701Y114765D01*
X57697D01*
X57694Y114758D01*
X57683Y114747D01*
X57668Y114736D01*
X57649Y114717D01*
X57631Y114695D01*
X57609Y114669D01*
X57583Y114639D01*
X57557Y114602D01*
X57531Y114562D01*
X57505Y114517D01*
X57483Y114469D01*
X57457Y114414D01*
X57431Y114355D01*
X57409Y114288D01*
X57390Y114218D01*
X56776Y114303D01*
Y114306D01*
X56780Y114321D01*
X56783Y114340D01*
X56791Y114369D01*
X56802Y114403D01*
X56813Y114440D01*
X56824Y114484D01*
X56843Y114528D01*
X56880Y114632D01*
X56928Y114736D01*
X56983Y114843D01*
X57050Y114939D01*
X57054Y114943D01*
X57057Y114950D01*
X57068Y114961D01*
X57087Y114980D01*
X57105Y114998D01*
X57131Y115024D01*
X57157Y115050D01*
X57191Y115076D01*
X57227Y115106D01*
X57272Y115139D01*
X57316Y115168D01*
X57364Y115198D01*
X57420Y115231D01*
X57475Y115261D01*
X57538Y115287D01*
X57605Y115313D01*
X57609D01*
X57620Y115320D01*
X57642Y115324D01*
X57668Y115335D01*
X57705Y115342D01*
X57745Y115354D01*
X57794Y115368D01*
X57845Y115379D01*
X57905Y115391D01*
X57971Y115405D01*
X58042Y115416D01*
X58116Y115424D01*
X58193Y115435D01*
X58275Y115439D01*
X58448Y115446D01*
X58526D01*
X58567Y115442D01*
D02*
G37*
%LPC*%
G36*
X66378Y116171D02*
X65194D01*
Y112257D01*
X66370D01*
X66411Y112260D01*
X66459D01*
X66514Y112264D01*
X66574Y112268D01*
X66699Y112279D01*
X66833Y112297D01*
X66962Y112320D01*
X67021Y112334D01*
X67077Y112349D01*
X67081D01*
X67088Y112353D01*
X67106Y112360D01*
X67125Y112368D01*
X67151Y112375D01*
X67177Y112390D01*
X67243Y112419D01*
X67317Y112456D01*
X67395Y112501D01*
X67469Y112556D01*
X67539Y112616D01*
X67543Y112619D01*
X67550Y112627D01*
X67562Y112641D01*
X67580Y112660D01*
X67599Y112682D01*
X67621Y112712D01*
X67647Y112749D01*
X67676Y112786D01*
X67706Y112830D01*
X67735Y112878D01*
X67769Y112934D01*
X67798Y112989D01*
X67828Y113052D01*
X67858Y113119D01*
X67887Y113189D01*
X67913Y113263D01*
Y113267D01*
X67921Y113282D01*
X67924Y113304D01*
X67935Y113337D01*
X67946Y113374D01*
X67958Y113422D01*
X67969Y113478D01*
X67983Y113540D01*
X67994Y113607D01*
X68006Y113685D01*
X68017Y113766D01*
X68028Y113851D01*
X68039Y113944D01*
X68043Y114040D01*
X68050Y114144D01*
Y114251D01*
Y114255D01*
Y114258D01*
Y114269D01*
Y114288D01*
Y114306D01*
Y114329D01*
X68046Y114384D01*
X68043Y114451D01*
X68035Y114528D01*
X68028Y114613D01*
X68017Y114706D01*
X68002Y114802D01*
X67983Y114906D01*
X67965Y115006D01*
X67939Y115109D01*
X67906Y115209D01*
X67872Y115305D01*
X67832Y115398D01*
X67784Y115483D01*
X67780Y115487D01*
X67773Y115501D01*
X67758Y115524D01*
X67735Y115553D01*
X67710Y115587D01*
X67680Y115627D01*
X67647Y115672D01*
X67606Y115720D01*
X67562Y115768D01*
X67514Y115816D01*
X67458Y115864D01*
X67402Y115912D01*
X67343Y115957D01*
X67280Y115997D01*
X67214Y116034D01*
X67143Y116064D01*
X67140D01*
X67132Y116068D01*
X67114Y116075D01*
X67092Y116082D01*
X67062Y116090D01*
X67025Y116097D01*
X66981Y116108D01*
X66933Y116119D01*
X66873Y116127D01*
X66811Y116138D01*
X66737Y116145D01*
X66659Y116156D01*
X66570Y116160D01*
X66478Y116167D01*
X66378Y116171D01*
D02*
G37*
G36*
X59248Y113515D02*
X59244D01*
X59233Y113507D01*
X59211Y113500D01*
X59185Y113492D01*
X59148Y113478D01*
X59103Y113467D01*
X59052Y113448D01*
X58989Y113433D01*
X58922Y113415D01*
X58844Y113392D01*
X58759Y113374D01*
X58671Y113356D01*
X58567Y113333D01*
X58460Y113315D01*
X58345Y113293D01*
X58219Y113274D01*
X58215D01*
X58201Y113270D01*
X58182D01*
X58156Y113263D01*
X58123Y113259D01*
X58090Y113252D01*
X58004Y113237D01*
X57916Y113219D01*
X57823Y113196D01*
X57742Y113174D01*
X57705Y113163D01*
X57671Y113148D01*
X57664Y113145D01*
X57646Y113137D01*
X57616Y113119D01*
X57583Y113096D01*
X57542Y113071D01*
X57501Y113034D01*
X57461Y112993D01*
X57424Y112945D01*
X57420Y112937D01*
X57409Y112923D01*
X57398Y112893D01*
X57383Y112860D01*
X57364Y112815D01*
X57353Y112764D01*
X57342Y112708D01*
X57339Y112649D01*
Y112645D01*
Y112638D01*
Y112623D01*
X57342Y112608D01*
X57346Y112586D01*
X57350Y112560D01*
X57361Y112501D01*
X57383Y112438D01*
X57420Y112368D01*
X57438Y112331D01*
X57464Y112297D01*
X57494Y112264D01*
X57527Y112231D01*
X57531D01*
X57535Y112223D01*
X57546Y112216D01*
X57564Y112205D01*
X57583Y112194D01*
X57605Y112179D01*
X57635Y112164D01*
X57668Y112149D01*
X57705Y112131D01*
X57745Y112116D01*
X57790Y112101D01*
X57842Y112090D01*
X57894Y112079D01*
X57953Y112072D01*
X58016Y112068D01*
X58082Y112064D01*
X58119D01*
X58145Y112068D01*
X58175D01*
X58212Y112072D01*
X58256Y112079D01*
X58301Y112083D01*
X58400Y112101D01*
X58511Y112131D01*
X58622Y112168D01*
X58730Y112220D01*
X58733Y112223D01*
X58741Y112227D01*
X58756Y112234D01*
X58774Y112249D01*
X58800Y112264D01*
X58826Y112286D01*
X58889Y112334D01*
X58955Y112397D01*
X59022Y112471D01*
X59089Y112556D01*
X59144Y112656D01*
Y112660D01*
X59148Y112667D01*
X59155Y112678D01*
X59159Y112697D01*
X59170Y112719D01*
X59177Y112745D01*
X59185Y112778D01*
X59196Y112815D01*
X59207Y112856D01*
X59214Y112900D01*
X59225Y112952D01*
X59233Y113008D01*
X59237Y113071D01*
X59244Y113137D01*
X59248Y113207D01*
Y113282D01*
Y113515D01*
D02*
G37*
%LPD*%
D10*
X0Y11811D02*
X125984D01*
X0Y157480D02*
X125984D01*
Y11811D02*
Y157480D01*
X0Y11811D02*
Y157480D01*
D11*
X108813Y142430D02*
X109480Y143096D01*
Y144429D01*
X108813Y145095D01*
X108147D01*
X107480Y144429D01*
Y143096D01*
X106814Y142430D01*
X106147D01*
X105481Y143096D01*
Y144429D01*
X106147Y145095D01*
X108813Y138431D02*
X109480Y139097D01*
Y140430D01*
X108813Y141097D01*
X106147D01*
X105481Y140430D01*
Y139097D01*
X106147Y138431D01*
X109480Y137098D02*
X105481D01*
X106814D01*
X109480Y134432D01*
X107480Y136432D01*
X105481Y134432D01*
X95821Y145095D02*
X96487Y144429D01*
Y143096D01*
X95821Y142430D01*
X95155D01*
X94488Y143096D01*
Y143763D01*
Y143096D01*
X93822Y142430D01*
X93155D01*
X92489Y143096D01*
Y144429D01*
X93155Y145095D01*
X96487Y141097D02*
X93822D01*
X92489Y139764D01*
X93822Y138431D01*
X96487D01*
X95821Y137098D02*
X96487Y136432D01*
Y135099D01*
X95821Y134432D01*
X95155D01*
X94488Y135099D01*
Y135765D01*
Y135099D01*
X93822Y134432D01*
X93155D01*
X92489Y135099D01*
Y136432D01*
X93155Y137098D01*
X102982Y144762D02*
X98983D01*
Y142763D01*
X99650Y142096D01*
X102315D01*
X102982Y142763D01*
Y144762D01*
Y140763D02*
Y139430D01*
Y140097D01*
X98983D01*
Y140763D01*
Y139430D01*
X102982Y135432D02*
Y136765D01*
X102315Y137431D01*
X99650D01*
X98983Y136765D01*
Y135432D01*
X99650Y134765D01*
X102315D01*
X102982Y135432D01*
X115304Y142430D02*
X115971Y143096D01*
Y144429D01*
X115304Y145095D01*
X112638D01*
X111972Y144429D01*
Y143096D01*
X112638Y142430D01*
X113971D01*
Y143763D01*
X111972Y141097D02*
X115971D01*
X111972Y138431D01*
X115971D01*
Y137098D02*
X111972D01*
Y135099D01*
X112638Y134432D01*
X115304D01*
X115971Y135099D01*
Y137098D01*
M02*
