M48
;Layer_Color=9474304
;FILE_FORMAT=2:5
INCH,LZ
;TYPE=PLATED
T1F00S00C0.01200
T2F00S00C0.01968
T3F00S00C0.02362
T6F00S00C0.03543
;TYPE=NON_PLATED
T7F00S00C0.02953
%
T01
X00055Y00085
X0005Y00185
X0013Y00135
X00145Y00255
X0023Y00275
X0016Y0037
X0033Y00395
X0045Y0036
X00535Y00355
X0068Y00345
X0077165Y0034665
X00865Y00385
X00925Y00255
X011Y0026
X012Y00235
X01145Y00365
X0113Y0043
X01105Y0058
X0104Y0061
X0092Y0068
X008Y00715
X00755Y00665
X0073Y00905
X00645Y00895
X0062Y0083
X00505Y0087
X00415Y00875
Y0093
X0031048Y0098653
X00305Y01145
X0036Y0115208
X0044232Y0109
X0051Y0121
X0052Y0127
X0053Y0132
X005847Y01247
X0074Y01245
X0078Y0121
X00905Y0122
Y0116
X00845Y0108
X00755Y0109
X00675Y0101
Y0131911
X00605Y01385
X0053Y0148
X0036
X0035Y01385
X00245Y0137
X0013935Y0140935
X0017752Y0124261
X0017501Y0120952
X00125Y00975
X0009Y0093
X00085Y00855
X00175
Y0091
X0031043Y0078514
X0028Y00615
X0015Y0066
X0045Y00485
X00945Y0093
X0098Y01015
X01125Y00985
X0105Y0085
X0121Y00735
X01185Y01145
X0118Y01285
X0097Y01325
X0086Y01405
X00795Y01465
X0114Y001
T02
X0003937Y0145177
Y0150098
T03
X009565Y0151181
X010065
X010565
X011065
T06
X0005512Y0034843
Y0043898
T07
X0020373Y0077205
Y0099961
M30
