G04*
G04 #@! TF.GenerationSoftware,Altium Limited,Altium Designer,22.1.2 (22)*
G04*
G04 Layer_Color=2752767*
%FSLAX25Y25*%
%MOIN*%
G70*
G04*
G04 #@! TF.SameCoordinates,F82994AF-303A-43CC-98E4-720CC67364FB*
G04*
G04*
G04 #@! TF.FilePolarity,Positive*
G04*
G01*
G75*
%ADD107C,0.00200*%
%ADD108C,0.00267*%
D107*
X3137Y144377D02*
Y145977D01*
X4737D01*
Y144377D01*
X3137D01*
Y149298D02*
Y150898D01*
X4737D01*
Y149298D01*
X3137D01*
X95650Y150381D02*
X94850Y151981D01*
X96450D01*
X95650Y150381D01*
X100650D02*
X99850Y151981D01*
X101450D01*
X100650Y150381D01*
X105650D02*
X104850Y151981D01*
X106450D01*
X105650Y150381D01*
X110650D02*
X109850Y151981D01*
X111450D01*
X110650Y150381D01*
X22342Y70066D02*
X22742Y70466D01*
X23142D01*
X22742Y70866D01*
X23142Y71266D01*
X22742D01*
X22342Y71666D01*
X21942Y71266D01*
X21542D01*
X21942Y70866D01*
X21542Y70466D01*
X21942D01*
X22342Y70066D01*
Y105499D02*
X22742Y105899D01*
X23142D01*
X22742Y106299D01*
X23142Y106699D01*
X22742D01*
X22342Y107099D01*
X21942Y106699D01*
X21542D01*
X21942Y106299D01*
X21542Y105899D01*
X21942D01*
X22342Y105499D01*
X5203D02*
X5603Y106299D01*
X5203Y107099D01*
X6003Y106699D01*
X6803Y107099D01*
X6403Y106299D01*
X6803Y105499D01*
X6003Y105899D01*
X5203Y105499D01*
Y70066D02*
X5603Y70866D01*
X5203Y71666D01*
X6003Y71266D01*
X6803Y71666D01*
X6403Y70866D01*
X6803Y70066D01*
X6003Y70466D01*
X5203Y70066D01*
X19973Y99561D02*
Y99161D01*
X20773D01*
Y99561D01*
X21173D01*
Y100361D01*
X20773D01*
Y100761D01*
X19973D01*
Y100361D01*
X19573D01*
Y99561D01*
X19973D01*
Y76805D02*
Y76405D01*
X20773D01*
Y76805D01*
X21173D01*
Y77605D01*
X20773D01*
Y78005D01*
X19973D01*
Y77605D01*
X19573D01*
Y76805D01*
X19973D01*
X44200Y47700D02*
X44600D01*
X45000Y48100D01*
X45400Y47700D01*
X45800D01*
Y48100D01*
X45400Y48500D01*
X45800Y48900D01*
Y49300D01*
X45400D01*
X45000Y48900D01*
X44600Y49300D01*
X44200D01*
Y48900D01*
X44600Y48500D01*
X44200Y48100D01*
Y47700D01*
Y35200D02*
X44600D01*
X45000Y35600D01*
X45400Y35200D01*
X45800D01*
Y35600D01*
X45400Y36000D01*
X45800Y36400D01*
Y36800D01*
X45400D01*
X45000Y36400D01*
X44600Y36800D01*
X44200D01*
Y36400D01*
X44600Y36000D01*
X44200Y35600D01*
Y35200D01*
X52700Y34700D02*
X53100D01*
X53500Y35100D01*
X53900Y34700D01*
X54300D01*
Y35100D01*
X53900Y35500D01*
X54300Y35900D01*
Y36300D01*
X53900D01*
X53500Y35900D01*
X53100Y36300D01*
X52700D01*
Y35900D01*
X53100Y35500D01*
X52700Y35100D01*
Y34700D01*
X32200Y38700D02*
X32600D01*
X33000Y39100D01*
X33400Y38700D01*
X33800D01*
Y39100D01*
X33400Y39500D01*
X33800Y39900D01*
Y40300D01*
X33400D01*
X33000Y39900D01*
X32600Y40300D01*
X32200D01*
Y39900D01*
X32600Y39500D01*
X32200Y39100D01*
Y38700D01*
X85700Y37700D02*
X86100D01*
X86500Y38100D01*
X86900Y37700D01*
X87300D01*
Y38100D01*
X86900Y38500D01*
X87300Y38900D01*
Y39300D01*
X86900D01*
X86500Y38900D01*
X86100Y39300D01*
X85700D01*
Y38900D01*
X86100Y38500D01*
X85700Y38100D01*
Y37700D01*
X67200Y33700D02*
X67600D01*
X68000Y34100D01*
X68400Y33700D01*
X68800D01*
Y34100D01*
X68400Y34500D01*
X68800Y34900D01*
Y35300D01*
X68400D01*
X68000Y34900D01*
X67600Y35300D01*
X67200D01*
Y34900D01*
X67600Y34500D01*
X67200Y34100D01*
Y33700D01*
X76365Y33865D02*
X76765D01*
X77165Y34265D01*
X77565Y33865D01*
X77965D01*
Y34265D01*
X77565Y34665D01*
X77965Y35065D01*
Y35465D01*
X77565D01*
X77165Y35065D01*
X76765Y35465D01*
X76365D01*
Y35065D01*
X76765Y34665D01*
X76365Y34265D01*
Y33865D01*
X74700Y65700D02*
X75100D01*
X75500Y66100D01*
X75900Y65700D01*
X76300D01*
Y66100D01*
X75900Y66500D01*
X76300Y66900D01*
Y67300D01*
X75900D01*
X75500Y66900D01*
X75100Y67300D01*
X74700D01*
Y66900D01*
X75100Y66500D01*
X74700Y66100D01*
Y65700D01*
X93700Y92200D02*
X94100D01*
X94500Y92600D01*
X94900Y92200D01*
X95300D01*
Y92600D01*
X94900Y93000D01*
X95300Y93400D01*
Y93800D01*
X94900D01*
X94500Y93400D01*
X94100Y93800D01*
X93700D01*
Y93400D01*
X94100Y93000D01*
X93700Y92600D01*
Y92200D01*
X83700Y107200D02*
X84100D01*
X84500Y107600D01*
X84900Y107200D01*
X85300D01*
Y107600D01*
X84900Y108000D01*
X85300Y108400D01*
Y108800D01*
X84900D01*
X84500Y108400D01*
X84100Y108800D01*
X83700D01*
Y108400D01*
X84100Y108000D01*
X83700Y107600D01*
Y107200D01*
X72200Y89700D02*
X72600D01*
X73000Y90100D01*
X73400Y89700D01*
X73800D01*
Y90100D01*
X73400Y90500D01*
X73800Y90900D01*
Y91300D01*
X73400D01*
X73000Y90900D01*
X72600Y91300D01*
X72200D01*
Y90900D01*
X72600Y90500D01*
X72200Y90100D01*
Y89700D01*
X78700Y145700D02*
X79100D01*
X79500Y146100D01*
X79900Y145700D01*
X80300D01*
Y146100D01*
X79900Y146500D01*
X80300Y146900D01*
Y147300D01*
X79900D01*
X79500Y146900D01*
X79100Y147300D01*
X78700D01*
Y146900D01*
X79100Y146500D01*
X78700Y146100D01*
Y145700D01*
X11700Y96700D02*
X12100D01*
X12500Y97100D01*
X12900Y96700D01*
X13300D01*
Y97100D01*
X12900Y97500D01*
X13300Y97900D01*
Y98300D01*
X12900D01*
X12500Y97900D01*
X12100Y98300D01*
X11700D01*
Y97900D01*
X12100Y97500D01*
X11700Y97100D01*
Y96700D01*
X16700Y90200D02*
X17100D01*
X17500Y90600D01*
X17900Y90200D01*
X18300D01*
Y90600D01*
X17900Y91000D01*
X18300Y91400D01*
Y91800D01*
X17900D01*
X17500Y91400D01*
X17100Y91800D01*
X16700D01*
Y91400D01*
X17100Y91000D01*
X16700Y90600D01*
Y90200D01*
X7700Y84700D02*
X8100D01*
X8500Y85100D01*
X8900Y84700D01*
X9300D01*
Y85100D01*
X8900Y85500D01*
X9300Y85900D01*
Y86300D01*
X8900D01*
X8500Y85900D01*
X8100Y86300D01*
X7700D01*
Y85900D01*
X8100Y85500D01*
X7700Y85100D01*
Y84700D01*
X8200Y92200D02*
X8600D01*
X9000Y92600D01*
X9400Y92200D01*
X9800D01*
Y92600D01*
X9400Y93000D01*
X9800Y93400D01*
Y93800D01*
X9400D01*
X9000Y93400D01*
X8600Y93800D01*
X8200D01*
Y93400D01*
X8600Y93000D01*
X8200Y92600D01*
Y92200D01*
X16952Y123461D02*
X17352D01*
X17752Y123861D01*
X18152Y123461D01*
X18552D01*
Y123861D01*
X18152Y124261D01*
X18552Y124661D01*
Y125061D01*
X18152D01*
X17752Y124661D01*
X17352Y125061D01*
X16952D01*
Y124661D01*
X17352Y124261D01*
X16952Y123861D01*
Y123461D01*
X16701Y120152D02*
X17101D01*
X17501Y120552D01*
X17901Y120152D01*
X18301D01*
Y120552D01*
X17901Y120952D01*
X18301Y121352D01*
Y121752D01*
X17901D01*
X17501Y121352D01*
X17101Y121752D01*
X16701D01*
Y121352D01*
X17101Y120952D01*
X16701Y120552D01*
Y120152D01*
X29700Y113700D02*
X30100D01*
X30500Y114100D01*
X30900Y113700D01*
X31300D01*
Y114100D01*
X30900Y114500D01*
X31300Y114900D01*
Y115300D01*
X30900D01*
X30500Y114900D01*
X30100Y115300D01*
X29700D01*
Y114900D01*
X30100Y114500D01*
X29700Y114100D01*
Y113700D01*
X51200Y126200D02*
X51600D01*
X52000Y126600D01*
X52400Y126200D01*
X52800D01*
Y126600D01*
X52400Y127000D01*
X52800Y127400D01*
Y127800D01*
X52400D01*
X52000Y127400D01*
X51600Y127800D01*
X51200D01*
Y127400D01*
X51600Y127000D01*
X51200Y126600D01*
Y126200D01*
X50200Y120200D02*
X50600D01*
X51000Y120600D01*
X51400Y120200D01*
X51800D01*
Y120600D01*
X51400Y121000D01*
X51800Y121400D01*
Y121800D01*
X51400D01*
X51000Y121400D01*
X50600Y121800D01*
X50200D01*
Y121400D01*
X50600Y121000D01*
X50200Y120600D01*
Y120200D01*
X35200Y114408D02*
X35600D01*
X36000Y114808D01*
X36400Y114408D01*
X36800D01*
Y114808D01*
X36400Y115208D01*
X36800Y115608D01*
Y116008D01*
X36400D01*
X36000Y115608D01*
X35600Y116008D01*
X35200D01*
Y115608D01*
X35600Y115208D01*
X35200Y114808D01*
Y114408D01*
X13135Y140135D02*
X13534D01*
X13935Y140534D01*
X14334Y140135D01*
X14735D01*
Y140534D01*
X14334Y140935D01*
X14735Y141334D01*
Y141735D01*
X14334D01*
X13935Y141334D01*
X13534Y141735D01*
X13135D01*
Y141334D01*
X13534Y140935D01*
X13135Y140534D01*
Y140135D01*
X57670Y123900D02*
X58070D01*
X58470Y124300D01*
X58870Y123900D01*
X59270D01*
Y124300D01*
X58870Y124700D01*
X59270Y125100D01*
Y125500D01*
X58870D01*
X58470Y125100D01*
X58070Y125500D01*
X57670D01*
Y125100D01*
X58070Y124700D01*
X57670Y124300D01*
Y123900D01*
X27200Y60700D02*
X27600D01*
X28000Y61100D01*
X28400Y60700D01*
X28800D01*
Y61100D01*
X28400Y61500D01*
X28800Y61900D01*
Y62300D01*
X28400D01*
X28000Y61900D01*
X27600Y62300D01*
X27200D01*
Y61900D01*
X27600Y61500D01*
X27200Y61100D01*
Y60700D01*
X91700Y24700D02*
X92100D01*
X92500Y25100D01*
X92900Y24700D01*
X93300D01*
Y25100D01*
X92900Y25500D01*
X93300Y25900D01*
Y26300D01*
X92900D01*
X92500Y25900D01*
X92100Y26300D01*
X91700D01*
Y25900D01*
X92100Y25500D01*
X91700Y25100D01*
Y24700D01*
X22200Y26700D02*
X22600D01*
X23000Y27100D01*
X23400Y26700D01*
X23800D01*
Y27100D01*
X23400Y27500D01*
X23800Y27900D01*
Y28300D01*
X23400D01*
X23000Y27900D01*
X22600Y28300D01*
X22200D01*
Y27900D01*
X22600Y27500D01*
X22200Y27100D01*
Y26700D01*
X4200Y17700D02*
X4600D01*
X5000Y18100D01*
X5400Y17700D01*
X5800D01*
Y18100D01*
X5400Y18500D01*
X5800Y18900D01*
Y19300D01*
X5400D01*
X5000Y18900D01*
X4600Y19300D01*
X4200D01*
Y18900D01*
X4600Y18500D01*
X4200Y18100D01*
Y17700D01*
X85200Y139700D02*
X85600D01*
X86000Y140100D01*
X86400Y139700D01*
X86800D01*
Y140100D01*
X86400Y140500D01*
X86800Y140900D01*
Y141300D01*
X86400D01*
X86000Y140900D01*
X85600Y141300D01*
X85200D01*
Y140900D01*
X85600Y140500D01*
X85200Y140100D01*
Y139700D01*
X91200Y67200D02*
X91600D01*
X92000Y67600D01*
X92400Y67200D01*
X92800D01*
Y67600D01*
X92400Y68000D01*
X92800Y68400D01*
Y68800D01*
X92400D01*
X92000Y68400D01*
X91600Y68800D01*
X91200D01*
Y68400D01*
X91600Y68000D01*
X91200Y67600D01*
Y67200D01*
X15200Y36200D02*
X15600D01*
X16000Y36600D01*
X16400Y36200D01*
X16800D01*
Y36600D01*
X16400Y37000D01*
X16800Y37400D01*
Y37800D01*
X16400D01*
X16000Y37400D01*
X15600Y37800D01*
X15200D01*
Y37400D01*
X15600Y37000D01*
X15200Y36600D01*
Y36200D01*
X61200Y82200D02*
X61600D01*
X62000Y82600D01*
X62400Y82200D01*
X62800D01*
Y82600D01*
X62400Y83000D01*
X62800Y83400D01*
Y83800D01*
X62400D01*
X62000Y83400D01*
X61600Y83800D01*
X61200D01*
Y83400D01*
X61600Y83000D01*
X61200Y82600D01*
Y82200D01*
X52200Y131200D02*
X52600D01*
X53000Y131600D01*
X53400Y131200D01*
X53800D01*
Y131600D01*
X53400Y132000D01*
X53800Y132400D01*
Y132800D01*
X53400D01*
X53000Y132400D01*
X52600Y132800D01*
X52200D01*
Y132400D01*
X52600Y132000D01*
X52200Y131600D01*
Y131200D01*
X34200Y137700D02*
X34600D01*
X35000Y138100D01*
X35400Y137700D01*
X35800D01*
Y138100D01*
X35400Y138500D01*
X35800Y138900D01*
Y139300D01*
X35400D01*
X35000Y138900D01*
X34600Y139300D01*
X34200D01*
Y138900D01*
X34600Y138500D01*
X34200Y138100D01*
Y137700D01*
X79200Y70700D02*
X79600D01*
X80000Y71100D01*
X80400Y70700D01*
X80800D01*
Y71100D01*
X80400Y71500D01*
X80800Y71900D01*
Y72300D01*
X80400D01*
X80000Y71900D01*
X79600Y72300D01*
X79200D01*
Y71900D01*
X79600Y71500D01*
X79200Y71100D01*
Y70700D01*
X89700Y115200D02*
X90100D01*
X90500Y115600D01*
X90900Y115200D01*
X91300D01*
Y115600D01*
X90900Y116000D01*
X91300Y116400D01*
Y116800D01*
X90900D01*
X90500Y116400D01*
X90100Y116800D01*
X89700D01*
Y116400D01*
X90100Y116000D01*
X89700Y115600D01*
Y115200D01*
Y121200D02*
X90100D01*
X90500Y121600D01*
X90900Y121200D01*
X91300D01*
Y121600D01*
X90900Y122000D01*
X91300Y122400D01*
Y122800D01*
X90900D01*
X90500Y122400D01*
X90100Y122800D01*
X89700D01*
Y122400D01*
X90100Y122000D01*
X89700Y121600D01*
Y121200D01*
X66700Y100200D02*
X67100D01*
X67500Y100600D01*
X67900Y100200D01*
X68300D01*
Y100600D01*
X67900Y101000D01*
X68300Y101400D01*
Y101800D01*
X67900D01*
X67500Y101400D01*
X67100Y101800D01*
X66700D01*
Y101400D01*
X67100Y101000D01*
X66700Y100600D01*
Y100200D01*
Y131111D02*
X67100D01*
X67500Y131511D01*
X67900Y131111D01*
X68300D01*
Y131511D01*
X67900Y131911D01*
X68300Y132311D01*
Y132711D01*
X67900D01*
X67500Y132311D01*
X67100Y132711D01*
X66700D01*
Y132311D01*
X67100Y131911D01*
X66700Y131511D01*
Y131111D01*
X96200Y131700D02*
X96600D01*
X97000Y132100D01*
X97400Y131700D01*
X97800D01*
Y132100D01*
X97400Y132500D01*
X97800Y132900D01*
Y133300D01*
X97400D01*
X97000Y132900D01*
X96600Y133300D01*
X96200D01*
Y132900D01*
X96600Y132500D01*
X96200Y132100D01*
Y131700D01*
X104200Y84200D02*
X104600D01*
X105000Y84600D01*
X105400Y84200D01*
X105800D01*
Y84600D01*
X105400Y85000D01*
X105800Y85400D01*
Y85800D01*
X105400D01*
X105000Y85400D01*
X104600Y85800D01*
X104200D01*
Y85400D01*
X104600Y85000D01*
X104200Y84600D01*
Y84200D01*
X52200Y147200D02*
X52600D01*
X53000Y147600D01*
X53400Y147200D01*
X53800D01*
Y147600D01*
X53400Y148000D01*
X53800Y148400D01*
Y148800D01*
X53400D01*
X53000Y148400D01*
X52600Y148800D01*
X52200D01*
Y148400D01*
X52600Y148000D01*
X52200Y147600D01*
Y147200D01*
X74700Y108200D02*
X75100D01*
X75500Y108600D01*
X75900Y108200D01*
X76300D01*
Y108600D01*
X75900Y109000D01*
X76300Y109400D01*
Y109800D01*
X75900D01*
X75500Y109400D01*
X75100Y109800D01*
X74700D01*
Y109400D01*
X75100Y109000D01*
X74700Y108600D01*
Y108200D01*
X59700Y137700D02*
X60100D01*
X60500Y138100D01*
X60900Y137700D01*
X61300D01*
Y138100D01*
X60900Y138500D01*
X61300Y138900D01*
Y139300D01*
X60900D01*
X60500Y138900D01*
X60100Y139300D01*
X59700D01*
Y138900D01*
X60100Y138500D01*
X59700Y138100D01*
Y137700D01*
X117200Y127700D02*
X117600D01*
X118000Y128100D01*
X118400Y127700D01*
X118800D01*
Y128100D01*
X118400Y128500D01*
X118800Y128900D01*
Y129300D01*
X118400D01*
X118000Y128900D01*
X117600Y129300D01*
X117200D01*
Y128900D01*
X117600Y128500D01*
X117200Y128100D01*
Y127700D01*
X111700Y97700D02*
X112100D01*
X112500Y98100D01*
X112900Y97700D01*
X113300D01*
Y98100D01*
X112900Y98500D01*
X113300Y98900D01*
Y99300D01*
X112900D01*
X112500Y98900D01*
X112100Y99300D01*
X111700D01*
Y98900D01*
X112100Y98500D01*
X111700Y98100D01*
Y97700D01*
X117700Y113700D02*
X118100D01*
X118500Y114100D01*
X118900Y113700D01*
X119300D01*
Y114100D01*
X118900Y114500D01*
X119300Y114900D01*
Y115300D01*
X118900D01*
X118500Y114900D01*
X118100Y115300D01*
X117700D01*
Y114900D01*
X118100Y114500D01*
X117700Y114100D01*
Y113700D01*
X103200Y60200D02*
X103600D01*
X104000Y60600D01*
X104400Y60200D01*
X104800D01*
Y60600D01*
X104400Y61000D01*
X104800Y61400D01*
Y61800D01*
X104400D01*
X104000Y61400D01*
X103600Y61800D01*
X103200D01*
Y61400D01*
X103600Y61000D01*
X103200Y60600D01*
Y60200D01*
X97200Y100700D02*
X97600D01*
X98000Y101100D01*
X98400Y100700D01*
X98800D01*
Y101100D01*
X98400Y101500D01*
X98800Y101900D01*
Y102300D01*
X98400D01*
X98000Y101900D01*
X97600Y102300D01*
X97200D01*
Y101900D01*
X97600Y101500D01*
X97200Y101100D01*
Y100700D01*
X120200Y72700D02*
X120600D01*
X121000Y73100D01*
X121400Y72700D01*
X121800D01*
Y73100D01*
X121400Y73500D01*
X121800Y73900D01*
Y74300D01*
X121400D01*
X121000Y73900D01*
X120600Y74300D01*
X120200D01*
Y73900D01*
X120600Y73500D01*
X120200Y73100D01*
Y72700D01*
X73200Y123700D02*
X73600D01*
X74000Y124100D01*
X74400Y123700D01*
X74800D01*
Y124100D01*
X74400Y124500D01*
X74800Y124900D01*
Y125300D01*
X74400D01*
X74000Y124900D01*
X73600Y125300D01*
X73200D01*
Y124900D01*
X73600Y124500D01*
X73200Y124100D01*
Y123700D01*
X77200Y120200D02*
X77600D01*
X78000Y120600D01*
X78400Y120200D01*
X78800D01*
Y120600D01*
X78400Y121000D01*
X78800Y121400D01*
Y121800D01*
X78400D01*
X78000Y121400D01*
X77600Y121800D01*
X77200D01*
Y121400D01*
X77600Y121000D01*
X77200Y120600D01*
Y120200D01*
X35200Y147200D02*
X35600D01*
X36000Y147600D01*
X36400Y147200D01*
X36800D01*
Y147600D01*
X36400Y148000D01*
X36800Y148400D01*
Y148800D01*
X36400D01*
X36000Y148400D01*
X35600Y148800D01*
X35200D01*
Y148400D01*
X35600Y148000D01*
X35200Y147600D01*
Y147200D01*
X43432Y108200D02*
X43832D01*
X44232Y108600D01*
X44632Y108200D01*
X45032D01*
Y108600D01*
X44632Y109000D01*
X45032Y109400D01*
Y109800D01*
X44632D01*
X44232Y109400D01*
X43832Y109800D01*
X43432D01*
Y109400D01*
X43832Y109000D01*
X43432Y108600D01*
Y108200D01*
X49700Y86200D02*
X50100D01*
X50500Y86600D01*
X50900Y86200D01*
X51300D01*
Y86600D01*
X50900Y87000D01*
X51300Y87400D01*
Y87800D01*
X50900D01*
X50500Y87400D01*
X50100Y87800D01*
X49700D01*
Y87400D01*
X50100Y87000D01*
X49700Y86600D01*
Y86200D01*
X30248Y97853D02*
X30648D01*
X31048Y98253D01*
X31448Y97853D01*
X31848D01*
Y98253D01*
X31448Y98653D01*
X31848Y99053D01*
Y99453D01*
X31448D01*
X31048Y99053D01*
X30648Y99453D01*
X30248D01*
Y99053D01*
X30648Y98653D01*
X30248Y98253D01*
Y97853D01*
X30243Y77715D02*
X30643D01*
X31043Y78114D01*
X31443Y77715D01*
X31843D01*
Y78114D01*
X31443Y78514D01*
X31843Y78914D01*
Y79315D01*
X31443D01*
X31043Y78914D01*
X30643Y79315D01*
X30243D01*
Y78914D01*
X30643Y78514D01*
X30243Y78114D01*
Y77715D01*
X13700Y24700D02*
X14100D01*
X14500Y25100D01*
X14900Y24700D01*
X15300D01*
Y25100D01*
X14900Y25500D01*
X15300Y25900D01*
Y26300D01*
X14900D01*
X14500Y25900D01*
X14100Y26300D01*
X13700D01*
Y25900D01*
X14100Y25500D01*
X13700Y25100D01*
Y24700D01*
X40700Y92200D02*
X41100D01*
X41500Y92600D01*
X41900Y92200D01*
X42300D01*
Y92600D01*
X41900Y93000D01*
X42300Y93400D01*
Y93800D01*
X41900D01*
X41500Y93400D01*
X41100Y93800D01*
X40700D01*
Y93400D01*
X41100Y93000D01*
X40700Y92600D01*
Y92200D01*
Y86700D02*
X41100D01*
X41500Y87100D01*
X41900Y86700D01*
X42300D01*
Y87100D01*
X41900Y87500D01*
X42300Y87900D01*
Y88300D01*
X41900D01*
X41500Y87900D01*
X41100Y88300D01*
X40700D01*
Y87900D01*
X41100Y87500D01*
X40700Y87100D01*
Y86700D01*
X16700Y84700D02*
X17100D01*
X17500Y85100D01*
X17900Y84700D01*
X18300D01*
Y85100D01*
X17900Y85500D01*
X18300Y85900D01*
Y86300D01*
X17900D01*
X17500Y85900D01*
X17100Y86300D01*
X16700D01*
Y85900D01*
X17100Y85500D01*
X16700Y85100D01*
Y84700D01*
X63700Y88700D02*
X64100D01*
X64500Y89100D01*
X64900Y88700D01*
X65300D01*
Y89100D01*
X64900Y89500D01*
X65300Y89900D01*
Y90300D01*
X64900D01*
X64500Y89900D01*
X64100Y90300D01*
X63700D01*
Y89900D01*
X64100Y89500D01*
X63700Y89100D01*
Y88700D01*
X113200Y9200D02*
X113600D01*
X114000Y9600D01*
X114400Y9200D01*
X114800D01*
Y9600D01*
X114400Y10000D01*
X114800Y10400D01*
Y10800D01*
X114400D01*
X114000Y10400D01*
X113600Y10800D01*
X113200D01*
Y10400D01*
X113600Y10000D01*
X113200Y9600D01*
Y9200D01*
X113700Y35700D02*
X114100D01*
X114500Y36100D01*
X114900Y35700D01*
X115300D01*
Y36100D01*
X114900Y36500D01*
X115300Y36900D01*
Y37300D01*
X114900D01*
X114500Y36900D01*
X114100Y37300D01*
X113700D01*
Y36900D01*
X114100Y36500D01*
X113700Y36100D01*
Y35700D01*
X119200Y22700D02*
X119600D01*
X120000Y23100D01*
X120400Y22700D01*
X120800D01*
Y23100D01*
X120400Y23500D01*
X120800Y23900D01*
Y24300D01*
X120400D01*
X120000Y23900D01*
X119600Y24300D01*
X119200D01*
Y23900D01*
X119600Y23500D01*
X119200Y23100D01*
Y22700D01*
X109700Y57200D02*
X110100D01*
X110500Y57600D01*
X110900Y57200D01*
X111300D01*
Y57600D01*
X110900Y58000D01*
X111300Y58400D01*
Y58800D01*
X110900D01*
X110500Y58400D01*
X110100Y58800D01*
X109700D01*
Y58400D01*
X110100Y58000D01*
X109700Y57600D01*
Y57200D01*
X14200Y65200D02*
X14600D01*
X15000Y65600D01*
X15400Y65200D01*
X15800D01*
Y65600D01*
X15400Y66000D01*
X15800Y66400D01*
Y66800D01*
X15400D01*
X15000Y66400D01*
X14600Y66800D01*
X14200D01*
Y66400D01*
X14600Y66000D01*
X14200Y65600D01*
Y65200D01*
X12200Y12700D02*
X12600D01*
X13000Y13100D01*
X13400Y12700D01*
X13800D01*
Y13100D01*
X13400Y13500D01*
X13800Y13900D01*
Y14300D01*
X13400D01*
X13000Y13900D01*
X12600Y14300D01*
X12200D01*
Y13900D01*
X12600Y13500D01*
X12200Y13100D01*
Y12700D01*
X4700Y7700D02*
X5100D01*
X5500Y8100D01*
X5900Y7700D01*
X6300D01*
Y8100D01*
X5900Y8500D01*
X6300Y8900D01*
Y9300D01*
X5900D01*
X5500Y8900D01*
X5100Y9300D01*
X4700D01*
Y8900D01*
X5100Y8500D01*
X4700Y8100D01*
Y7700D01*
X112200Y42200D02*
X112600D01*
X113000Y42600D01*
X113400Y42200D01*
X113800D01*
Y42600D01*
X113400Y43000D01*
X113800Y43400D01*
Y43800D01*
X113400D01*
X113000Y43400D01*
X112600Y43800D01*
X112200D01*
Y43400D01*
X112600Y43000D01*
X112200Y42600D01*
Y42200D01*
X109200Y25200D02*
X109600D01*
X110000Y25600D01*
X110400Y25200D01*
X110800D01*
Y25600D01*
X110400Y26000D01*
X110800Y26400D01*
Y26800D01*
X110400D01*
X110000Y26400D01*
X109600Y26800D01*
X109200D01*
Y26400D01*
X109600Y26000D01*
X109200Y25600D01*
Y25200D01*
X23700Y136200D02*
X24100D01*
X24500Y136600D01*
X24900Y136200D01*
X25300D01*
Y136600D01*
X24900Y137000D01*
X25300Y137400D01*
Y137800D01*
X24900D01*
X24500Y137400D01*
X24100Y137800D01*
X23700D01*
Y137400D01*
X24100Y137000D01*
X23700Y136600D01*
Y136200D01*
D108*
X6312Y34843D02*
G03*
X6312Y34843I-800J0D01*
G01*
Y43898D02*
G03*
X6312Y43898I-800J0D01*
G01*
M02*
