G04*
G04 #@! TF.GenerationSoftware,Altium Limited,Altium Designer,23.4.1 (23)*
G04*
G04 Layer_Color=32896*
%FSLAX25Y25*%
%MOIN*%
G70*
G04*
G04 #@! TF.SameCoordinates,517BF390-C1E0-4631-B7DD-1789FC60F1BE*
G04*
G04*
G04 #@! TF.FilePolarity,Positive*
G04*
G01*
G75*
%ADD11C,0.01000*%
%ADD42C,0.00800*%
%ADD71C,0.00600*%
%ADD102C,0.01968*%
%ADD103C,0.00984*%
%ADD104C,0.02362*%
%ADD105C,0.00787*%
%ADD106C,0.00700*%
G36*
X108856Y80590D02*
X106717D01*
Y80320D01*
X106721Y80257D01*
Y80201D01*
X106725Y80153D01*
X106732Y80105D01*
X106736Y80061D01*
X106739Y80024D01*
X106747Y79991D01*
X106751Y79961D01*
X106758Y79935D01*
X106762Y79913D01*
X106765Y79894D01*
X106769Y79883D01*
X106773Y79872D01*
X106776Y79865D01*
X106802Y79802D01*
X106836Y79746D01*
X106869Y79695D01*
X106906Y79646D01*
X106939Y79610D01*
X106965Y79580D01*
X106984Y79561D01*
X106991Y79554D01*
X107024Y79524D01*
X107069Y79487D01*
X107117Y79447D01*
X107172Y79406D01*
X107235Y79361D01*
X107298Y79317D01*
X107424Y79225D01*
X107487Y79180D01*
X107546Y79140D01*
X107598Y79102D01*
X107646Y79069D01*
X107687Y79043D01*
X107716Y79025D01*
X107735Y79010D01*
X107742Y79006D01*
X108856Y78263D01*
Y77023D01*
X107857Y77649D01*
X107750Y77715D01*
X107650Y77782D01*
X107561Y77841D01*
X107476Y77896D01*
X107402Y77948D01*
X107332Y77996D01*
X107272Y78041D01*
X107220Y78081D01*
X107172Y78118D01*
X107132Y78148D01*
X107098Y78174D01*
X107072Y78196D01*
X107054Y78215D01*
X107039Y78226D01*
X107032Y78233D01*
X107028Y78237D01*
X106943Y78322D01*
X106862Y78414D01*
X106788Y78507D01*
X106721Y78596D01*
X106695Y78636D01*
X106669Y78673D01*
X106647Y78707D01*
X106629Y78736D01*
X106614Y78759D01*
X106603Y78777D01*
X106599Y78788D01*
X106595Y78792D01*
X106573Y78670D01*
X106547Y78555D01*
X106518Y78448D01*
X106481Y78348D01*
X106444Y78255D01*
X106403Y78174D01*
X106366Y78100D01*
X106325Y78030D01*
X106284Y77970D01*
X106247Y77919D01*
X106214Y77878D01*
X106184Y77841D01*
X106159Y77815D01*
X106140Y77793D01*
X106129Y77782D01*
X106125Y77778D01*
X106051Y77719D01*
X105977Y77667D01*
X105896Y77619D01*
X105818Y77582D01*
X105737Y77549D01*
X105659Y77519D01*
X105581Y77497D01*
X105507Y77478D01*
X105437Y77467D01*
X105374Y77456D01*
X105315Y77449D01*
X105267Y77441D01*
X105226D01*
X105197Y77438D01*
X105178D01*
X105171D01*
X105086Y77441D01*
X105008Y77449D01*
X104930Y77460D01*
X104856Y77471D01*
X104786Y77489D01*
X104719Y77508D01*
X104656Y77530D01*
X104601Y77549D01*
X104549Y77571D01*
X104501Y77593D01*
X104464Y77612D01*
X104431Y77626D01*
X104405Y77641D01*
X104383Y77652D01*
X104372Y77660D01*
X104368Y77663D01*
X104305Y77708D01*
X104246Y77752D01*
X104190Y77800D01*
X104142Y77848D01*
X104098Y77900D01*
X104057Y77948D01*
X104020Y77996D01*
X103987Y78044D01*
X103961Y78089D01*
X103939Y78129D01*
X103916Y78166D01*
X103902Y78196D01*
X103891Y78222D01*
X103883Y78244D01*
X103876Y78255D01*
Y78259D01*
X103850Y78333D01*
X103828Y78418D01*
X103809Y78507D01*
X103794Y78599D01*
X103768Y78799D01*
X103761Y78895D01*
X103754Y78992D01*
X103746Y79084D01*
X103743Y79169D01*
X103739Y79247D01*
Y79317D01*
X103735Y79373D01*
Y81622D01*
X108856D01*
Y80590D01*
D02*
G37*
G36*
X107346Y76701D02*
X107494Y76668D01*
X107631Y76631D01*
X107761Y76583D01*
X107875Y76535D01*
X107983Y76483D01*
X108083Y76431D01*
X108168Y76376D01*
X108245Y76324D01*
X108312Y76276D01*
X108371Y76228D01*
X108416Y76187D01*
X108453Y76154D01*
X108478Y76128D01*
X108497Y76113D01*
X108501Y76106D01*
X108578Y76002D01*
X108649Y75891D01*
X108708Y75773D01*
X108760Y75651D01*
X108804Y75528D01*
X108837Y75402D01*
X108867Y75280D01*
X108893Y75162D01*
X108911Y75051D01*
X108926Y74948D01*
X108934Y74851D01*
X108941Y74770D01*
X108945Y74736D01*
Y74703D01*
X108948Y74677D01*
Y74611D01*
X108945Y74489D01*
X108941Y74370D01*
X108930Y74259D01*
X108919Y74156D01*
X108904Y74059D01*
X108889Y73967D01*
X108874Y73882D01*
X108856Y73804D01*
X108837Y73738D01*
X108823Y73675D01*
X108808Y73623D01*
X108793Y73582D01*
X108782Y73545D01*
X108771Y73519D01*
X108767Y73504D01*
X108763Y73501D01*
X108726Y73419D01*
X108686Y73342D01*
X108641Y73271D01*
X108593Y73205D01*
X108549Y73142D01*
X108501Y73086D01*
X108453Y73035D01*
X108408Y72987D01*
X108364Y72946D01*
X108323Y72909D01*
X108286Y72879D01*
X108256Y72853D01*
X108231Y72835D01*
X108208Y72820D01*
X108197Y72812D01*
X108194Y72809D01*
X108120Y72764D01*
X108049Y72727D01*
X107975Y72694D01*
X107901Y72664D01*
X107831Y72642D01*
X107764Y72620D01*
X107698Y72605D01*
X107635Y72591D01*
X107579Y72583D01*
X107528Y72576D01*
X107483Y72568D01*
X107442Y72565D01*
X107413Y72561D01*
X107387D01*
X107372D01*
X107369D01*
X107280Y72565D01*
X107195Y72568D01*
X107113Y72579D01*
X107036Y72594D01*
X106965Y72609D01*
X106899Y72628D01*
X106836Y72646D01*
X106780Y72664D01*
X106728Y72683D01*
X106684Y72702D01*
X106647Y72720D01*
X106614Y72735D01*
X106588Y72750D01*
X106569Y72761D01*
X106558Y72764D01*
X106554Y72768D01*
X106495Y72809D01*
X106436Y72850D01*
X106333Y72942D01*
X106284Y72990D01*
X106244Y73038D01*
X106203Y73083D01*
X106170Y73127D01*
X106136Y73172D01*
X106111Y73208D01*
X106088Y73246D01*
X106066Y73275D01*
X106051Y73301D01*
X106040Y73319D01*
X106036Y73331D01*
X106033Y73334D01*
X105996Y73405D01*
X105963Y73486D01*
X105926Y73571D01*
X105892Y73660D01*
X105829Y73845D01*
X105803Y73937D01*
X105774Y74026D01*
X105752Y74111D01*
X105729Y74189D01*
X105711Y74263D01*
X105692Y74326D01*
X105681Y74378D01*
X105670Y74415D01*
X105666Y74429D01*
Y74440D01*
X105663Y74444D01*
Y74448D01*
X105630Y74581D01*
X105596Y74707D01*
X105567Y74814D01*
X105533Y74914D01*
X105504Y75003D01*
X105474Y75081D01*
X105448Y75147D01*
X105422Y75206D01*
X105400Y75254D01*
X105382Y75295D01*
X105363Y75328D01*
X105348Y75354D01*
X105333Y75377D01*
X105326Y75388D01*
X105319Y75395D01*
Y75399D01*
X105267Y75451D01*
X105215Y75488D01*
X105163Y75513D01*
X105115Y75532D01*
X105071Y75543D01*
X105037Y75547D01*
X105015Y75551D01*
X105012D01*
X105008D01*
X104971Y75547D01*
X104938Y75543D01*
X104875Y75525D01*
X104823Y75499D01*
X104779Y75469D01*
X104742Y75440D01*
X104716Y75414D01*
X104697Y75395D01*
X104693Y75388D01*
X104660Y75336D01*
X104630Y75284D01*
X104605Y75229D01*
X104582Y75169D01*
X104549Y75051D01*
X104527Y74940D01*
X104519Y74885D01*
X104516Y74836D01*
X104512Y74792D01*
X104508Y74755D01*
X104505Y74726D01*
Y74603D01*
X104512Y74526D01*
X104519Y74459D01*
X104531Y74396D01*
X104545Y74337D01*
X104560Y74281D01*
X104575Y74233D01*
X104590Y74189D01*
X104608Y74152D01*
X104623Y74119D01*
X104638Y74089D01*
X104653Y74067D01*
X104664Y74048D01*
X104671Y74037D01*
X104675Y74030D01*
X104679Y74026D01*
X104712Y73985D01*
X104753Y73952D01*
X104841Y73889D01*
X104934Y73841D01*
X105026Y73800D01*
X105071Y73786D01*
X105112Y73774D01*
X105148Y73764D01*
X105182Y73756D01*
X105208Y73749D01*
X105226Y73745D01*
X105241Y73741D01*
X105245D01*
X105200Y72709D01*
X105071Y72720D01*
X104949Y72738D01*
X104834Y72764D01*
X104727Y72801D01*
X104627Y72838D01*
X104534Y72883D01*
X104449Y72927D01*
X104375Y72975D01*
X104305Y73023D01*
X104246Y73068D01*
X104194Y73109D01*
X104153Y73146D01*
X104120Y73179D01*
X104094Y73201D01*
X104079Y73216D01*
X104076Y73223D01*
X104001Y73319D01*
X103935Y73423D01*
X103879Y73538D01*
X103828Y73652D01*
X103787Y73774D01*
X103754Y73897D01*
X103724Y74015D01*
X103702Y74130D01*
X103687Y74241D01*
X103672Y74341D01*
X103661Y74433D01*
X103657Y74515D01*
X103654Y74551D01*
Y74581D01*
X103650Y74607D01*
Y74674D01*
X103654Y74781D01*
X103657Y74885D01*
X103665Y74985D01*
X103680Y75081D01*
X103691Y75169D01*
X103706Y75251D01*
X103724Y75328D01*
X103739Y75399D01*
X103757Y75462D01*
X103772Y75517D01*
X103791Y75565D01*
X103802Y75606D01*
X103813Y75636D01*
X103824Y75661D01*
X103828Y75676D01*
X103831Y75680D01*
X103865Y75758D01*
X103905Y75828D01*
X103946Y75895D01*
X103987Y75958D01*
X104031Y76013D01*
X104072Y76065D01*
X104116Y76113D01*
X104157Y76157D01*
X104198Y76194D01*
X104231Y76228D01*
X104264Y76257D01*
X104294Y76279D01*
X104316Y76298D01*
X104334Y76309D01*
X104346Y76316D01*
X104349Y76320D01*
X104412Y76357D01*
X104479Y76390D01*
X104542Y76420D01*
X104608Y76446D01*
X104671Y76468D01*
X104730Y76487D01*
X104790Y76498D01*
X104841Y76512D01*
X104893Y76520D01*
X104941Y76527D01*
X104982Y76531D01*
X105015Y76535D01*
X105045Y76538D01*
X105063D01*
X105078D01*
X105082D01*
X105193Y76535D01*
X105300Y76520D01*
X105404Y76494D01*
X105500Y76464D01*
X105589Y76431D01*
X105674Y76390D01*
X105752Y76346D01*
X105822Y76302D01*
X105888Y76261D01*
X105944Y76217D01*
X105996Y76176D01*
X106036Y76143D01*
X106066Y76113D01*
X106092Y76087D01*
X106107Y76072D01*
X106111Y76069D01*
X106166Y75998D01*
X106218Y75921D01*
X106270Y75836D01*
X106318Y75743D01*
X106362Y75651D01*
X106403Y75551D01*
X106440Y75454D01*
X106477Y75358D01*
X106506Y75269D01*
X106536Y75184D01*
X106562Y75107D01*
X106580Y75036D01*
X106595Y74981D01*
X106603Y74959D01*
X106606Y74940D01*
X106614Y74925D01*
Y74914D01*
X106617Y74907D01*
Y74903D01*
X106647Y74788D01*
X106673Y74681D01*
X106695Y74585D01*
X106717Y74500D01*
X106739Y74422D01*
X106758Y74355D01*
X106773Y74296D01*
X106788Y74244D01*
X106799Y74204D01*
X106810Y74167D01*
X106821Y74137D01*
X106828Y74111D01*
X106832Y74097D01*
X106836Y74082D01*
X106839Y74078D01*
Y74074D01*
X106858Y74026D01*
X106876Y73982D01*
X106913Y73904D01*
X106954Y73838D01*
X106987Y73786D01*
X107021Y73749D01*
X107043Y73723D01*
X107058Y73704D01*
X107065Y73700D01*
X107113Y73664D01*
X107165Y73638D01*
X107217Y73619D01*
X107265Y73608D01*
X107309Y73597D01*
X107343Y73593D01*
X107365D01*
X107369D01*
X107372D01*
X107424Y73597D01*
X107476Y73604D01*
X107520Y73615D01*
X107568Y73634D01*
X107650Y73675D01*
X107724Y73719D01*
X107753Y73745D01*
X107783Y73767D01*
X107805Y73789D01*
X107827Y73808D01*
X107842Y73826D01*
X107853Y73838D01*
X107861Y73845D01*
X107864Y73849D01*
X107901Y73897D01*
X107935Y73952D01*
X107960Y74011D01*
X107986Y74071D01*
X108005Y74133D01*
X108023Y74196D01*
X108049Y74318D01*
X108057Y74374D01*
X108064Y74429D01*
X108068Y74477D01*
X108071Y74518D01*
X108075Y74551D01*
Y74600D01*
X108071Y74685D01*
X108064Y74766D01*
X108053Y74844D01*
X108038Y74918D01*
X108020Y74985D01*
X108001Y75044D01*
X107979Y75103D01*
X107957Y75151D01*
X107935Y75199D01*
X107912Y75236D01*
X107894Y75273D01*
X107875Y75299D01*
X107861Y75321D01*
X107850Y75336D01*
X107842Y75347D01*
X107838Y75351D01*
X107790Y75399D01*
X107738Y75447D01*
X107683Y75488D01*
X107624Y75525D01*
X107561Y75558D01*
X107498Y75587D01*
X107376Y75639D01*
X107320Y75658D01*
X107269Y75673D01*
X107220Y75687D01*
X107176Y75699D01*
X107143Y75706D01*
X107117Y75713D01*
X107102Y75717D01*
X107095D01*
X107191Y76723D01*
X107346Y76701D01*
D02*
G37*
G36*
X104601Y70533D02*
X108856D01*
Y69501D01*
X104601D01*
Y67984D01*
X103735D01*
Y72054D01*
X104601D01*
Y70533D01*
D02*
G37*
G36*
X108858Y130049D02*
X108854Y129971D01*
Y129823D01*
X108850Y129756D01*
Y129693D01*
X108847Y129579D01*
Y129479D01*
X108843Y129390D01*
X108839Y129312D01*
X108835Y129246D01*
Y129194D01*
X108832Y129149D01*
X108828Y129116D01*
Y129090D01*
X108825Y129072D01*
Y129061D01*
X108802Y128913D01*
X108787Y128842D01*
X108769Y128776D01*
X108750Y128717D01*
X108728Y128657D01*
X108710Y128605D01*
X108688Y128557D01*
X108669Y128513D01*
X108647Y128476D01*
X108632Y128443D01*
X108614Y128417D01*
X108602Y128395D01*
X108591Y128376D01*
X108588Y128369D01*
X108584Y128365D01*
X108502Y128265D01*
X108417Y128176D01*
X108329Y128102D01*
X108244Y128036D01*
X108170Y127988D01*
X108136Y127965D01*
X108110Y127951D01*
X108088Y127939D01*
X108070Y127928D01*
X108059Y127921D01*
X108055D01*
X107992Y127891D01*
X107929Y127866D01*
X107807Y127829D01*
X107692Y127799D01*
X107641Y127788D01*
X107589Y127777D01*
X107544Y127773D01*
X107500Y127766D01*
X107467Y127762D01*
X107433D01*
X107407Y127758D01*
X107389D01*
X107378D01*
X107374D01*
X107293Y127762D01*
X107215Y127769D01*
X107137Y127780D01*
X107067Y127799D01*
X106997Y127817D01*
X106934Y127836D01*
X106875Y127862D01*
X106819Y127884D01*
X106771Y127906D01*
X106727Y127928D01*
X106690Y127951D01*
X106660Y127969D01*
X106634Y127988D01*
X106616Y127999D01*
X106604Y128006D01*
X106601Y128010D01*
X106542Y128058D01*
X106486Y128113D01*
X106434Y128169D01*
X106390Y128228D01*
X106349Y128287D01*
X106308Y128347D01*
X106275Y128406D01*
X106246Y128461D01*
X106220Y128517D01*
X106198Y128568D01*
X106179Y128613D01*
X106164Y128650D01*
X106153Y128683D01*
X106146Y128705D01*
X106138Y128724D01*
Y128728D01*
X106075Y128609D01*
X106005Y128506D01*
X105927Y128417D01*
X105890Y128380D01*
X105857Y128343D01*
X105820Y128313D01*
X105790Y128284D01*
X105761Y128261D01*
X105735Y128239D01*
X105717Y128224D01*
X105702Y128213D01*
X105691Y128210D01*
X105687Y128206D01*
X105631Y128173D01*
X105572Y128139D01*
X105513Y128113D01*
X105457Y128091D01*
X105347Y128058D01*
X105247Y128036D01*
X105199Y128025D01*
X105158Y128021D01*
X105121Y128017D01*
X105087Y128014D01*
X105062Y128010D01*
X105043D01*
X105032D01*
X105028D01*
X104965D01*
X104906Y128017D01*
X104795Y128036D01*
X104692Y128062D01*
X104647Y128073D01*
X104603Y128087D01*
X104566Y128102D01*
X104529Y128117D01*
X104499Y128132D01*
X104477Y128143D01*
X104455Y128154D01*
X104440Y128162D01*
X104432Y128165D01*
X104429Y128169D01*
X104333Y128232D01*
X104251Y128295D01*
X104177Y128361D01*
X104114Y128424D01*
X104066Y128480D01*
X104033Y128520D01*
X104018Y128539D01*
X104011Y128550D01*
X104003Y128557D01*
Y128561D01*
X103948Y128654D01*
X103900Y128746D01*
X103863Y128835D01*
X103833Y128916D01*
X103822Y128957D01*
X103815Y128990D01*
X103807Y129020D01*
X103800Y129046D01*
X103796Y129068D01*
X103793Y129083D01*
X103789Y129094D01*
Y129098D01*
X103781Y129157D01*
X103770Y129220D01*
X103763Y129290D01*
X103759Y129364D01*
X103748Y129512D01*
X103744Y129660D01*
X103741Y129730D01*
Y129793D01*
X103737Y129849D01*
Y132046D01*
X108858D01*
Y130049D01*
D02*
G37*
G36*
X106445Y127092D02*
X106553Y127088D01*
X106764Y127066D01*
X106963Y127033D01*
X107148Y126992D01*
X107319Y126941D01*
X107478Y126881D01*
X107622Y126822D01*
X107751Y126759D01*
X107866Y126696D01*
X107918Y126667D01*
X107966Y126637D01*
X108010Y126608D01*
X108051Y126578D01*
X108088Y126552D01*
X108122Y126526D01*
X108151Y126504D01*
X108177Y126485D01*
X108199Y126467D01*
X108218Y126452D01*
X108232Y126437D01*
X108244Y126430D01*
X108247Y126423D01*
X108251D01*
X108314Y126360D01*
X108373Y126289D01*
X108429Y126223D01*
X108480Y126152D01*
X108573Y126004D01*
X108654Y125853D01*
X108721Y125701D01*
X108776Y125553D01*
X108825Y125405D01*
X108858Y125261D01*
X108887Y125127D01*
X108909Y125002D01*
X108917Y124946D01*
X108924Y124891D01*
X108932Y124843D01*
X108935Y124794D01*
X108939Y124754D01*
X108943Y124717D01*
Y124683D01*
X108947Y124658D01*
Y124606D01*
X108943Y124502D01*
X108939Y124399D01*
X108917Y124203D01*
X108884Y124021D01*
X108835Y123847D01*
X108784Y123688D01*
X108724Y123540D01*
X108662Y123403D01*
X108595Y123281D01*
X108532Y123174D01*
X108469Y123078D01*
X108410Y122993D01*
X108354Y122926D01*
X108332Y122896D01*
X108310Y122874D01*
X108292Y122852D01*
X108277Y122834D01*
X108266Y122822D01*
X108255Y122811D01*
X108251Y122808D01*
X108247Y122804D01*
X108181Y122741D01*
X108110Y122686D01*
X108036Y122630D01*
X107962Y122582D01*
X107807Y122489D01*
X107648Y122412D01*
X107489Y122345D01*
X107326Y122293D01*
X107167Y122249D01*
X107015Y122212D01*
X106871Y122182D01*
X106738Y122164D01*
X106675Y122153D01*
X106616Y122149D01*
X106564Y122142D01*
X106512Y122138D01*
X106468Y122134D01*
X106427Y122131D01*
X106394D01*
X106364Y122127D01*
X106338D01*
X106323D01*
X106312D01*
X106308D01*
X106194D01*
X106079Y122134D01*
X105865Y122156D01*
X105665Y122190D01*
X105476Y122234D01*
X105302Y122286D01*
X105139Y122341D01*
X104995Y122404D01*
X104862Y122467D01*
X104803Y122501D01*
X104747Y122530D01*
X104692Y122563D01*
X104643Y122593D01*
X104599Y122623D01*
X104555Y122649D01*
X104518Y122674D01*
X104484Y122700D01*
X104455Y122722D01*
X104429Y122745D01*
X104407Y122763D01*
X104388Y122778D01*
X104373Y122789D01*
X104362Y122800D01*
X104358Y122804D01*
X104355Y122808D01*
X104292Y122874D01*
X104233Y122941D01*
X104174Y123011D01*
X104122Y123081D01*
X104029Y123229D01*
X103948Y123377D01*
X103881Y123529D01*
X103822Y123681D01*
X103778Y123829D01*
X103741Y123969D01*
X103711Y124103D01*
X103689Y124225D01*
X103681Y124284D01*
X103674Y124336D01*
X103667Y124388D01*
X103663Y124432D01*
X103659Y124476D01*
X103656Y124513D01*
Y124543D01*
X103652Y124569D01*
Y124621D01*
X103656Y124735D01*
X103659Y124846D01*
X103670Y124954D01*
X103685Y125057D01*
X103700Y125153D01*
X103715Y125246D01*
X103733Y125327D01*
X103752Y125405D01*
X103774Y125475D01*
X103793Y125538D01*
X103807Y125594D01*
X103822Y125638D01*
X103837Y125675D01*
X103848Y125701D01*
X103852Y125716D01*
X103855Y125723D01*
X103885Y125790D01*
X103918Y125856D01*
X103992Y125979D01*
X104070Y126093D01*
X104107Y126145D01*
X104144Y126193D01*
X104177Y126234D01*
X104210Y126275D01*
X104240Y126308D01*
X104266Y126337D01*
X104288Y126360D01*
X104303Y126374D01*
X104314Y126385D01*
X104318Y126389D01*
X104436Y126497D01*
X104558Y126589D01*
X104677Y126670D01*
X104784Y126737D01*
X104836Y126767D01*
X104880Y126793D01*
X104921Y126815D01*
X104954Y126830D01*
X104984Y126844D01*
X105002Y126855D01*
X105017Y126859D01*
X105021Y126863D01*
X105124Y126903D01*
X105228Y126941D01*
X105339Y126970D01*
X105450Y126996D01*
X105557Y127018D01*
X105668Y127040D01*
X105772Y127055D01*
X105876Y127066D01*
X105968Y127077D01*
X106057Y127085D01*
X106134Y127088D01*
X106201Y127092D01*
X106257Y127096D01*
X106279D01*
X106297D01*
X106312D01*
X106323D01*
X106327D01*
X106331D01*
X106445Y127092D01*
D02*
G37*
G36*
Y121527D02*
X106553Y121524D01*
X106764Y121502D01*
X106963Y121468D01*
X107148Y121428D01*
X107319Y121376D01*
X107478Y121317D01*
X107622Y121257D01*
X107751Y121194D01*
X107866Y121132D01*
X107918Y121102D01*
X107966Y121072D01*
X108010Y121043D01*
X108051Y121013D01*
X108088Y120987D01*
X108122Y120961D01*
X108151Y120939D01*
X108177Y120921D01*
X108199Y120902D01*
X108218Y120887D01*
X108232Y120872D01*
X108244Y120865D01*
X108247Y120858D01*
X108251D01*
X108314Y120795D01*
X108373Y120724D01*
X108429Y120658D01*
X108480Y120588D01*
X108573Y120440D01*
X108654Y120288D01*
X108721Y120136D01*
X108776Y119988D01*
X108825Y119840D01*
X108858Y119696D01*
X108887Y119563D01*
X108909Y119437D01*
X108917Y119381D01*
X108924Y119326D01*
X108932Y119278D01*
X108935Y119230D01*
X108939Y119189D01*
X108943Y119152D01*
Y119119D01*
X108947Y119093D01*
Y119041D01*
X108943Y118937D01*
X108939Y118834D01*
X108917Y118638D01*
X108884Y118456D01*
X108835Y118282D01*
X108784Y118123D01*
X108724Y117975D01*
X108662Y117839D01*
X108595Y117716D01*
X108532Y117609D01*
X108469Y117513D01*
X108410Y117428D01*
X108354Y117361D01*
X108332Y117332D01*
X108310Y117309D01*
X108292Y117287D01*
X108277Y117269D01*
X108266Y117258D01*
X108255Y117246D01*
X108251Y117243D01*
X108247Y117239D01*
X108181Y117176D01*
X108110Y117121D01*
X108036Y117065D01*
X107962Y117017D01*
X107807Y116925D01*
X107648Y116847D01*
X107489Y116780D01*
X107326Y116728D01*
X107167Y116684D01*
X107015Y116647D01*
X106871Y116618D01*
X106738Y116599D01*
X106675Y116588D01*
X106616Y116584D01*
X106564Y116577D01*
X106512Y116573D01*
X106468Y116569D01*
X106427Y116566D01*
X106394D01*
X106364Y116562D01*
X106338D01*
X106323D01*
X106312D01*
X106308D01*
X106194D01*
X106079Y116569D01*
X105865Y116592D01*
X105665Y116625D01*
X105476Y116669D01*
X105302Y116721D01*
X105139Y116777D01*
X104995Y116840D01*
X104862Y116902D01*
X104803Y116936D01*
X104747Y116965D01*
X104692Y116999D01*
X104643Y117028D01*
X104599Y117058D01*
X104555Y117084D01*
X104518Y117110D01*
X104484Y117136D01*
X104455Y117158D01*
X104429Y117180D01*
X104407Y117198D01*
X104388Y117213D01*
X104373Y117224D01*
X104362Y117235D01*
X104358Y117239D01*
X104355Y117243D01*
X104292Y117309D01*
X104233Y117376D01*
X104174Y117446D01*
X104122Y117517D01*
X104029Y117665D01*
X103948Y117813D01*
X103881Y117964D01*
X103822Y118116D01*
X103778Y118264D01*
X103741Y118405D01*
X103711Y118538D01*
X103689Y118660D01*
X103681Y118719D01*
X103674Y118771D01*
X103667Y118823D01*
X103663Y118867D01*
X103659Y118912D01*
X103656Y118948D01*
Y118978D01*
X103652Y119004D01*
Y119056D01*
X103656Y119170D01*
X103659Y119281D01*
X103670Y119389D01*
X103685Y119492D01*
X103700Y119589D01*
X103715Y119681D01*
X103733Y119763D01*
X103752Y119840D01*
X103774Y119911D01*
X103793Y119973D01*
X103807Y120029D01*
X103822Y120073D01*
X103837Y120110D01*
X103848Y120136D01*
X103852Y120151D01*
X103855Y120158D01*
X103885Y120225D01*
X103918Y120292D01*
X103992Y120414D01*
X104070Y120528D01*
X104107Y120580D01*
X104144Y120628D01*
X104177Y120669D01*
X104210Y120710D01*
X104240Y120743D01*
X104266Y120773D01*
X104288Y120795D01*
X104303Y120810D01*
X104314Y120821D01*
X104318Y120824D01*
X104436Y120932D01*
X104558Y121024D01*
X104677Y121106D01*
X104784Y121172D01*
X104836Y121202D01*
X104880Y121228D01*
X104921Y121250D01*
X104954Y121265D01*
X104984Y121280D01*
X105002Y121291D01*
X105017Y121294D01*
X105021Y121298D01*
X105124Y121339D01*
X105228Y121376D01*
X105339Y121405D01*
X105450Y121431D01*
X105557Y121453D01*
X105668Y121476D01*
X105772Y121490D01*
X105876Y121502D01*
X105968Y121513D01*
X106057Y121520D01*
X106134Y121524D01*
X106201Y121527D01*
X106257Y121531D01*
X106279D01*
X106297D01*
X106312D01*
X106323D01*
X106327D01*
X106331D01*
X106445Y121527D01*
D02*
G37*
G36*
X104603Y114597D02*
X108858D01*
Y113565D01*
X104603D01*
Y112048D01*
X103737D01*
Y116118D01*
X104603D01*
Y114597D01*
D02*
G37*
G36*
X31376Y141440D02*
X30417D01*
Y144793D01*
X28349Y141440D01*
X27313D01*
Y146561D01*
X28271D01*
Y143131D01*
X30373Y146561D01*
X31376D01*
Y141440D01*
D02*
G37*
G36*
X34717Y146643D02*
X34846Y146635D01*
X34972Y146624D01*
X35087Y146606D01*
X35194Y146587D01*
X35294Y146565D01*
X35390Y146543D01*
X35475Y146521D01*
X35549Y146495D01*
X35616Y146473D01*
X35675Y146450D01*
X35723Y146432D01*
X35760Y146413D01*
X35790Y146402D01*
X35805Y146395D01*
X35812Y146391D01*
X35930Y146325D01*
X36038Y146254D01*
X36141Y146180D01*
X36237Y146102D01*
X36326Y146021D01*
X36404Y145943D01*
X36478Y145866D01*
X36545Y145788D01*
X36600Y145718D01*
X36652Y145651D01*
X36696Y145592D01*
X36730Y145540D01*
X36755Y145496D01*
X36778Y145462D01*
X36789Y145444D01*
X36792Y145437D01*
X36852Y145318D01*
X36904Y145196D01*
X36948Y145074D01*
X36985Y144952D01*
X37018Y144833D01*
X37044Y144715D01*
X37066Y144600D01*
X37085Y144493D01*
X37096Y144393D01*
X37107Y144301D01*
X37114Y144219D01*
X37122Y144149D01*
Y144093D01*
X37126Y144071D01*
Y144053D01*
Y144038D01*
Y144023D01*
Y144019D01*
Y144016D01*
X37122Y143879D01*
X37111Y143746D01*
X37096Y143616D01*
X37077Y143490D01*
X37055Y143372D01*
X37029Y143261D01*
X37003Y143154D01*
X36974Y143057D01*
X36948Y142969D01*
X36922Y142887D01*
X36896Y142821D01*
X36874Y142761D01*
X36852Y142713D01*
X36837Y142680D01*
X36830Y142658D01*
X36826Y142650D01*
X36767Y142536D01*
X36700Y142428D01*
X36633Y142329D01*
X36559Y142236D01*
X36485Y142151D01*
X36411Y142069D01*
X36337Y141999D01*
X36267Y141936D01*
X36197Y141877D01*
X36134Y141829D01*
X36078Y141785D01*
X36027Y141751D01*
X35986Y141725D01*
X35956Y141703D01*
X35938Y141692D01*
X35930Y141688D01*
X35816Y141629D01*
X35697Y141577D01*
X35579Y141533D01*
X35457Y141492D01*
X35338Y141463D01*
X35224Y141433D01*
X35113Y141411D01*
X35005Y141392D01*
X34905Y141381D01*
X34813Y141370D01*
X34732Y141363D01*
X34661Y141355D01*
X34606D01*
X34584Y141352D01*
X34528D01*
X34410Y141355D01*
X34291Y141363D01*
X34177Y141374D01*
X34066Y141389D01*
X33958Y141407D01*
X33855Y141426D01*
X33759Y141448D01*
X33666Y141470D01*
X33585Y141492D01*
X33511Y141515D01*
X33444Y141533D01*
X33389Y141551D01*
X33340Y141566D01*
X33307Y141577D01*
X33289Y141585D01*
X33281Y141588D01*
X33170Y141633D01*
X33063Y141681D01*
X32963Y141729D01*
X32874Y141777D01*
X32789Y141825D01*
X32711Y141870D01*
X32641Y141914D01*
X32578Y141955D01*
X32523Y141996D01*
X32475Y142033D01*
X32430Y142062D01*
X32397Y142092D01*
X32371Y142114D01*
X32353Y142129D01*
X32341Y142140D01*
X32338Y142143D01*
Y144186D01*
X34565D01*
Y143320D01*
X33381D01*
Y142669D01*
X33474Y142602D01*
X33570Y142543D01*
X33662Y142491D01*
X33751Y142447D01*
X33792Y142428D01*
X33829Y142410D01*
X33862Y142395D01*
X33888Y142384D01*
X33910Y142373D01*
X33929Y142369D01*
X33940Y142362D01*
X33944D01*
X34066Y142321D01*
X34184Y142288D01*
X34291Y142266D01*
X34343Y142258D01*
X34391Y142251D01*
X34436Y142247D01*
X34473Y142243D01*
X34510Y142240D01*
X34539D01*
X34561Y142236D01*
X34595D01*
X34713Y142240D01*
X34828Y142254D01*
X34935Y142277D01*
X35035Y142306D01*
X35131Y142343D01*
X35220Y142380D01*
X35298Y142421D01*
X35372Y142465D01*
X35435Y142506D01*
X35494Y142547D01*
X35542Y142587D01*
X35583Y142621D01*
X35616Y142650D01*
X35638Y142673D01*
X35653Y142687D01*
X35657Y142691D01*
X35727Y142780D01*
X35790Y142880D01*
X35845Y142987D01*
X35890Y143098D01*
X35930Y143209D01*
X35960Y143324D01*
X35990Y143435D01*
X36008Y143546D01*
X36027Y143649D01*
X36038Y143746D01*
X36049Y143831D01*
X36053Y143908D01*
X36056Y143942D01*
Y143971D01*
X36060Y143993D01*
Y144016D01*
Y144034D01*
Y144045D01*
Y144053D01*
Y144056D01*
X36056Y144208D01*
X36041Y144352D01*
X36023Y144486D01*
X35997Y144611D01*
X35967Y144726D01*
X35934Y144830D01*
X35897Y144926D01*
X35860Y145011D01*
X35823Y145085D01*
X35786Y145148D01*
X35753Y145203D01*
X35723Y145248D01*
X35697Y145285D01*
X35679Y145311D01*
X35664Y145326D01*
X35660Y145329D01*
X35583Y145407D01*
X35497Y145474D01*
X35412Y145529D01*
X35324Y145581D01*
X35235Y145622D01*
X35142Y145655D01*
X35057Y145684D01*
X34972Y145707D01*
X34891Y145725D01*
X34820Y145740D01*
X34754Y145747D01*
X34695Y145755D01*
X34650Y145758D01*
X34613Y145762D01*
X34584D01*
X34502Y145758D01*
X34424Y145751D01*
X34347Y145740D01*
X34280Y145729D01*
X34214Y145710D01*
X34151Y145692D01*
X34095Y145673D01*
X34043Y145651D01*
X33999Y145629D01*
X33958Y145610D01*
X33921Y145592D01*
X33892Y145573D01*
X33869Y145562D01*
X33855Y145551D01*
X33844Y145544D01*
X33840Y145540D01*
X33784Y145499D01*
X33736Y145451D01*
X33692Y145403D01*
X33648Y145355D01*
X33610Y145307D01*
X33577Y145255D01*
X33548Y145207D01*
X33522Y145163D01*
X33500Y145118D01*
X33481Y145078D01*
X33463Y145041D01*
X33451Y145011D01*
X33440Y144985D01*
X33433Y144963D01*
X33429Y144952D01*
Y144948D01*
X32404Y145141D01*
X32438Y145270D01*
X32478Y145388D01*
X32526Y145503D01*
X32578Y145610D01*
X32634Y145707D01*
X32693Y145799D01*
X32748Y145880D01*
X32808Y145955D01*
X32863Y146021D01*
X32919Y146080D01*
X32967Y146128D01*
X33011Y146169D01*
X33044Y146202D01*
X33074Y146225D01*
X33089Y146239D01*
X33096Y146243D01*
X33200Y146313D01*
X33314Y146376D01*
X33433Y146432D01*
X33555Y146476D01*
X33677Y146517D01*
X33803Y146546D01*
X33925Y146576D01*
X34040Y146595D01*
X34151Y146613D01*
X34254Y146624D01*
X34347Y146635D01*
X34428Y146639D01*
X34462Y146643D01*
X34491D01*
X34521Y146646D01*
X34584D01*
X34717Y146643D01*
D02*
G37*
G36*
X26222Y141440D02*
X24175D01*
X24076Y141444D01*
X23983Y141452D01*
X23894Y141459D01*
X23813Y141466D01*
X23735Y141474D01*
X23669Y141485D01*
X23606Y141496D01*
X23550Y141503D01*
X23502Y141515D01*
X23458Y141522D01*
X23424Y141533D01*
X23399Y141537D01*
X23376Y141544D01*
X23365Y141548D01*
X23361D01*
X23276Y141577D01*
X23199Y141607D01*
X23125Y141640D01*
X23054Y141674D01*
X22991Y141707D01*
X22932Y141740D01*
X22877Y141773D01*
X22829Y141807D01*
X22784Y141836D01*
X22747Y141866D01*
X22714Y141888D01*
X22684Y141910D01*
X22666Y141929D01*
X22647Y141944D01*
X22640Y141951D01*
X22636Y141955D01*
X22570Y142021D01*
X22511Y142095D01*
X22455Y142169D01*
X22400Y142243D01*
X22351Y142321D01*
X22307Y142395D01*
X22266Y142469D01*
X22229Y142539D01*
X22196Y142606D01*
X22166Y142665D01*
X22144Y142721D01*
X22126Y142769D01*
X22107Y142806D01*
X22096Y142835D01*
X22092Y142854D01*
X22089Y142861D01*
X22059Y142950D01*
X22037Y143039D01*
X21996Y143224D01*
X21967Y143405D01*
X21959Y143494D01*
X21948Y143575D01*
X21944Y143653D01*
X21937Y143723D01*
X21933Y143790D01*
Y143842D01*
X21930Y143886D01*
Y143920D01*
Y143942D01*
Y143949D01*
Y144082D01*
X21937Y144208D01*
X21944Y144330D01*
X21956Y144441D01*
X21970Y144548D01*
X21985Y144648D01*
X22000Y144741D01*
X22015Y144826D01*
X22029Y144900D01*
X22044Y144967D01*
X22059Y145022D01*
X22074Y145070D01*
X22085Y145111D01*
X22092Y145137D01*
X22096Y145155D01*
X22100Y145159D01*
X22133Y145248D01*
X22170Y145337D01*
X22207Y145418D01*
X22248Y145496D01*
X22288Y145570D01*
X22329Y145636D01*
X22366Y145699D01*
X22407Y145758D01*
X22444Y145810D01*
X22477Y145855D01*
X22507Y145895D01*
X22536Y145929D01*
X22559Y145955D01*
X22573Y145973D01*
X22584Y145984D01*
X22588Y145988D01*
X22651Y146051D01*
X22714Y146106D01*
X22781Y146158D01*
X22843Y146206D01*
X22910Y146247D01*
X22973Y146288D01*
X23036Y146321D01*
X23095Y146354D01*
X23151Y146380D01*
X23202Y146402D01*
X23247Y146421D01*
X23288Y146435D01*
X23317Y146447D01*
X23343Y146454D01*
X23358Y146461D01*
X23361D01*
X23428Y146480D01*
X23498Y146495D01*
X23576Y146510D01*
X23654Y146521D01*
X23817Y146535D01*
X23894Y146543D01*
X23972Y146550D01*
X24046Y146554D01*
X24113Y146558D01*
X24175D01*
X24231Y146561D01*
X26222D01*
Y141440D01*
D02*
G37*
G36*
X36545Y149439D02*
X34547D01*
X34469Y149442D01*
X34321D01*
X34254Y149446D01*
X34191D01*
X34077Y149450D01*
X33977D01*
X33888Y149453D01*
X33810Y149457D01*
X33744Y149461D01*
X33692D01*
X33648Y149464D01*
X33614Y149468D01*
X33588D01*
X33570Y149472D01*
X33559D01*
X33411Y149494D01*
X33340Y149509D01*
X33274Y149527D01*
X33215Y149546D01*
X33155Y149568D01*
X33104Y149587D01*
X33055Y149609D01*
X33011Y149627D01*
X32974Y149650D01*
X32941Y149664D01*
X32915Y149683D01*
X32893Y149694D01*
X32874Y149705D01*
X32867Y149709D01*
X32863Y149712D01*
X32763Y149794D01*
X32674Y149879D01*
X32600Y149968D01*
X32534Y150053D01*
X32486Y150127D01*
X32463Y150160D01*
X32449Y150186D01*
X32438Y150208D01*
X32427Y150227D01*
X32419Y150238D01*
Y150241D01*
X32390Y150304D01*
X32364Y150367D01*
X32327Y150489D01*
X32297Y150604D01*
X32286Y150656D01*
X32275Y150708D01*
X32271Y150752D01*
X32264Y150796D01*
X32260Y150830D01*
Y150863D01*
X32256Y150889D01*
Y150908D01*
Y150919D01*
Y150922D01*
X32260Y151004D01*
X32267Y151081D01*
X32278Y151159D01*
X32297Y151229D01*
X32315Y151300D01*
X32334Y151363D01*
X32360Y151422D01*
X32382Y151477D01*
X32404Y151525D01*
X32427Y151570D01*
X32449Y151607D01*
X32467Y151636D01*
X32486Y151662D01*
X32497Y151681D01*
X32504Y151692D01*
X32508Y151696D01*
X32556Y151755D01*
X32612Y151810D01*
X32667Y151862D01*
X32726Y151907D01*
X32785Y151947D01*
X32845Y151988D01*
X32904Y152021D01*
X32959Y152051D01*
X33015Y152077D01*
X33067Y152099D01*
X33111Y152117D01*
X33148Y152132D01*
X33181Y152143D01*
X33204Y152151D01*
X33222Y152158D01*
X33226D01*
X33107Y152221D01*
X33004Y152291D01*
X32915Y152369D01*
X32878Y152406D01*
X32841Y152439D01*
X32811Y152476D01*
X32782Y152506D01*
X32759Y152535D01*
X32737Y152561D01*
X32722Y152580D01*
X32711Y152595D01*
X32708Y152606D01*
X32704Y152610D01*
X32671Y152665D01*
X32637Y152724D01*
X32612Y152783D01*
X32589Y152839D01*
X32556Y152950D01*
X32534Y153050D01*
X32523Y153098D01*
X32519Y153139D01*
X32515Y153176D01*
X32512Y153209D01*
X32508Y153235D01*
Y153253D01*
Y153264D01*
Y153268D01*
Y153331D01*
X32515Y153390D01*
X32534Y153501D01*
X32560Y153605D01*
X32571Y153649D01*
X32586Y153694D01*
X32600Y153731D01*
X32615Y153768D01*
X32630Y153797D01*
X32641Y153819D01*
X32652Y153842D01*
X32660Y153856D01*
X32663Y153864D01*
X32667Y153867D01*
X32730Y153964D01*
X32793Y154045D01*
X32859Y154119D01*
X32922Y154182D01*
X32978Y154230D01*
X33018Y154263D01*
X33037Y154278D01*
X33048Y154286D01*
X33055Y154293D01*
X33059D01*
X33152Y154349D01*
X33244Y154397D01*
X33333Y154434D01*
X33414Y154463D01*
X33455Y154474D01*
X33488Y154482D01*
X33518Y154489D01*
X33544Y154497D01*
X33566Y154500D01*
X33581Y154504D01*
X33592Y154508D01*
X33596D01*
X33655Y154515D01*
X33718Y154526D01*
X33788Y154534D01*
X33862Y154537D01*
X34010Y154548D01*
X34158Y154552D01*
X34228Y154556D01*
X34291D01*
X34347Y154559D01*
X36545D01*
Y149439D01*
D02*
G37*
G36*
X31905D02*
X30810D01*
X30388Y150600D01*
X28338D01*
X27894Y149439D01*
X26769D01*
X28819Y154559D01*
X29918D01*
X31905Y149439D01*
D02*
G37*
G36*
X26581Y153694D02*
X25060D01*
Y149439D01*
X24027D01*
Y153694D01*
X22511D01*
Y154559D01*
X26581D01*
Y153694D01*
D02*
G37*
%LPC*%
G36*
X105900Y80590D02*
X104601D01*
Y79484D01*
X104605Y79402D01*
Y79332D01*
X104608Y79273D01*
Y79173D01*
X104612Y79136D01*
Y79106D01*
X104616Y79080D01*
Y79062D01*
X104619Y79047D01*
Y79032D01*
X104642Y78943D01*
X104671Y78866D01*
X104704Y78799D01*
X104738Y78744D01*
X104771Y78699D01*
X104797Y78670D01*
X104815Y78651D01*
X104819Y78644D01*
X104823D01*
X104886Y78596D01*
X104952Y78562D01*
X105023Y78536D01*
X105089Y78522D01*
X105148Y78511D01*
X105171Y78507D01*
X105193D01*
X105211Y78503D01*
X105226D01*
X105234D01*
X105237D01*
X105319Y78507D01*
X105393Y78518D01*
X105459Y78536D01*
X105515Y78555D01*
X105559Y78577D01*
X105593Y78592D01*
X105615Y78607D01*
X105622Y78610D01*
X105678Y78651D01*
X105722Y78699D01*
X105759Y78747D01*
X105789Y78792D01*
X105811Y78836D01*
X105829Y78869D01*
X105837Y78892D01*
X105840Y78895D01*
Y78899D01*
X105851Y78940D01*
X105859Y78992D01*
X105866Y79054D01*
X105874Y79121D01*
X105881Y79195D01*
X105885Y79273D01*
X105892Y79432D01*
X105896Y79510D01*
Y79650D01*
X105900Y79709D01*
Y80590D01*
D02*
G37*
G36*
X105772Y131014D02*
X104588D01*
Y130071D01*
X104592Y129978D01*
Y129893D01*
X104595Y129823D01*
Y129708D01*
X104599Y129664D01*
Y129627D01*
X104603Y129597D01*
Y129575D01*
X104606Y129556D01*
Y129538D01*
X104625Y129445D01*
X104647Y129368D01*
X104677Y129301D01*
X104710Y129246D01*
X104740Y129205D01*
X104766Y129175D01*
X104780Y129157D01*
X104788Y129149D01*
X104847Y129105D01*
X104910Y129072D01*
X104973Y129050D01*
X105036Y129031D01*
X105091Y129024D01*
X105132Y129020D01*
X105150Y129016D01*
X105161D01*
X105169D01*
X105173D01*
X105261Y129024D01*
X105339Y129042D01*
X105409Y129064D01*
X105465Y129094D01*
X105509Y129123D01*
X105546Y129146D01*
X105565Y129164D01*
X105572Y129172D01*
X105624Y129235D01*
X105665Y129301D01*
X105698Y129368D01*
X105720Y129434D01*
X105739Y129493D01*
X105746Y129519D01*
X105750Y129542D01*
X105753Y129560D01*
X105757Y129575D01*
Y129586D01*
X105761Y129619D01*
Y129660D01*
X105765Y129712D01*
Y129767D01*
X105768Y129826D01*
Y130015D01*
X105772Y130078D01*
Y131014D01*
D02*
G37*
G36*
X107992D02*
X106623D01*
Y130052D01*
X106627Y129934D01*
X106630Y129830D01*
X106634Y129738D01*
X106641Y129653D01*
X106645Y129579D01*
X106652Y129512D01*
X106660Y129453D01*
X106667Y129405D01*
X106675Y129364D01*
X106678Y129331D01*
X106686Y129305D01*
X106690Y129283D01*
X106693Y129271D01*
X106697Y129264D01*
Y129260D01*
X106727Y129186D01*
X106764Y129120D01*
X106804Y129064D01*
X106841Y129020D01*
X106878Y128983D01*
X106908Y128961D01*
X106926Y128942D01*
X106930Y128938D01*
X106934D01*
X106997Y128902D01*
X107063Y128872D01*
X107126Y128853D01*
X107189Y128839D01*
X107241Y128831D01*
X107285Y128824D01*
X107300D01*
X107311D01*
X107319D01*
X107322D01*
X107419Y128831D01*
X107507Y128846D01*
X107581Y128872D01*
X107644Y128898D01*
X107692Y128924D01*
X107729Y128950D01*
X107751Y128964D01*
X107755Y128972D01*
X107759D01*
X107814Y129031D01*
X107859Y129090D01*
X107896Y129153D01*
X107922Y129212D01*
X107940Y129264D01*
X107955Y129308D01*
X107959Y129323D01*
Y129334D01*
X107962Y129342D01*
Y129346D01*
X107966Y129379D01*
X107974Y129420D01*
X107977Y129468D01*
X107981Y129519D01*
Y129579D01*
X107984Y129638D01*
X107988Y129756D01*
Y129815D01*
X107992Y129871D01*
Y131014D01*
D02*
G37*
G36*
X106357Y126030D02*
X106334D01*
X106320D01*
X106308D01*
X106301D01*
X106297D01*
X106138Y126027D01*
X105987Y126012D01*
X105846Y125993D01*
X105717Y125971D01*
X105598Y125942D01*
X105491Y125908D01*
X105395Y125871D01*
X105306Y125834D01*
X105228Y125801D01*
X105161Y125764D01*
X105106Y125731D01*
X105058Y125701D01*
X105021Y125679D01*
X104999Y125657D01*
X104980Y125645D01*
X104976Y125642D01*
X104899Y125564D01*
X104832Y125486D01*
X104773Y125401D01*
X104721Y125316D01*
X104680Y125227D01*
X104643Y125142D01*
X104614Y125057D01*
X104592Y124979D01*
X104573Y124902D01*
X104558Y124831D01*
X104551Y124769D01*
X104544Y124717D01*
X104540Y124672D01*
X104536Y124639D01*
Y124609D01*
X104540Y124491D01*
X104555Y124380D01*
X104577Y124276D01*
X104603Y124180D01*
X104636Y124088D01*
X104673Y124003D01*
X104714Y123925D01*
X104751Y123855D01*
X104791Y123792D01*
X104832Y123736D01*
X104869Y123692D01*
X104902Y123651D01*
X104928Y123622D01*
X104950Y123599D01*
X104965Y123585D01*
X104969Y123581D01*
X105054Y123511D01*
X105150Y123451D01*
X105250Y123400D01*
X105358Y123355D01*
X105465Y123318D01*
X105576Y123289D01*
X105683Y123263D01*
X105787Y123240D01*
X105887Y123226D01*
X105979Y123215D01*
X106064Y123204D01*
X106138Y123200D01*
X106172Y123196D01*
X106198D01*
X106223Y123192D01*
X106246D01*
X106260D01*
X106272D01*
X106279D01*
X106282D01*
X106445Y123196D01*
X106597Y123211D01*
X106738Y123229D01*
X106867Y123255D01*
X106985Y123285D01*
X107097Y123318D01*
X107196Y123355D01*
X107285Y123392D01*
X107363Y123429D01*
X107430Y123466D01*
X107489Y123500D01*
X107533Y123529D01*
X107570Y123555D01*
X107596Y123574D01*
X107615Y123588D01*
X107618Y123592D01*
X107696Y123670D01*
X107766Y123751D01*
X107826Y123832D01*
X107874Y123918D01*
X107918Y124003D01*
X107955Y124088D01*
X107984Y124169D01*
X108007Y124251D01*
X108025Y124325D01*
X108040Y124391D01*
X108047Y124454D01*
X108055Y124506D01*
X108059Y124550D01*
X108062Y124584D01*
Y124609D01*
X108059Y124724D01*
X108044Y124831D01*
X108022Y124931D01*
X107992Y125031D01*
X107959Y125120D01*
X107922Y125205D01*
X107881Y125283D01*
X107837Y125353D01*
X107796Y125416D01*
X107755Y125472D01*
X107718Y125520D01*
X107685Y125557D01*
X107655Y125590D01*
X107633Y125612D01*
X107618Y125627D01*
X107615Y125631D01*
X107526Y125701D01*
X107430Y125764D01*
X107326Y125816D01*
X107219Y125860D01*
X107111Y125901D01*
X107000Y125934D01*
X106893Y125960D01*
X106790Y125979D01*
X106690Y125997D01*
X106597Y126008D01*
X106512Y126019D01*
X106442Y126023D01*
X106379Y126027D01*
X106357Y126030D01*
D02*
G37*
G36*
Y120466D02*
X106334D01*
X106320D01*
X106308D01*
X106301D01*
X106297D01*
X106138Y120462D01*
X105987Y120447D01*
X105846Y120429D01*
X105717Y120406D01*
X105598Y120377D01*
X105491Y120343D01*
X105395Y120306D01*
X105306Y120269D01*
X105228Y120236D01*
X105161Y120199D01*
X105106Y120166D01*
X105058Y120136D01*
X105021Y120114D01*
X104999Y120092D01*
X104980Y120081D01*
X104976Y120077D01*
X104899Y119999D01*
X104832Y119922D01*
X104773Y119836D01*
X104721Y119751D01*
X104680Y119663D01*
X104643Y119578D01*
X104614Y119492D01*
X104592Y119415D01*
X104573Y119337D01*
X104558Y119267D01*
X104551Y119204D01*
X104544Y119152D01*
X104540Y119108D01*
X104536Y119074D01*
Y119045D01*
X104540Y118926D01*
X104555Y118815D01*
X104577Y118712D01*
X104603Y118615D01*
X104636Y118523D01*
X104673Y118438D01*
X104714Y118360D01*
X104751Y118290D01*
X104791Y118227D01*
X104832Y118172D01*
X104869Y118127D01*
X104902Y118086D01*
X104928Y118057D01*
X104950Y118035D01*
X104965Y118020D01*
X104969Y118016D01*
X105054Y117946D01*
X105150Y117887D01*
X105250Y117835D01*
X105358Y117790D01*
X105465Y117753D01*
X105576Y117724D01*
X105683Y117698D01*
X105787Y117676D01*
X105887Y117661D01*
X105979Y117650D01*
X106064Y117639D01*
X106138Y117635D01*
X106172Y117631D01*
X106198D01*
X106223Y117628D01*
X106246D01*
X106260D01*
X106272D01*
X106279D01*
X106282D01*
X106445Y117631D01*
X106597Y117646D01*
X106738Y117665D01*
X106867Y117691D01*
X106985Y117720D01*
X107097Y117753D01*
X107196Y117790D01*
X107285Y117827D01*
X107363Y117864D01*
X107430Y117901D01*
X107489Y117935D01*
X107533Y117964D01*
X107570Y117990D01*
X107596Y118009D01*
X107615Y118024D01*
X107618Y118027D01*
X107696Y118105D01*
X107766Y118186D01*
X107826Y118268D01*
X107874Y118353D01*
X107918Y118438D01*
X107955Y118523D01*
X107984Y118604D01*
X108007Y118686D01*
X108025Y118760D01*
X108040Y118826D01*
X108047Y118889D01*
X108055Y118941D01*
X108059Y118985D01*
X108062Y119019D01*
Y119045D01*
X108059Y119159D01*
X108044Y119267D01*
X108022Y119367D01*
X107992Y119466D01*
X107959Y119555D01*
X107922Y119640D01*
X107881Y119718D01*
X107837Y119788D01*
X107796Y119851D01*
X107755Y119907D01*
X107718Y119955D01*
X107685Y119992D01*
X107655Y120025D01*
X107633Y120047D01*
X107618Y120062D01*
X107615Y120066D01*
X107526Y120136D01*
X107430Y120199D01*
X107326Y120251D01*
X107219Y120295D01*
X107111Y120336D01*
X107000Y120369D01*
X106893Y120395D01*
X106790Y120414D01*
X106690Y120432D01*
X106597Y120443D01*
X106512Y120454D01*
X106442Y120458D01*
X106379Y120462D01*
X106357Y120466D01*
D02*
G37*
G36*
X25189Y145695D02*
X24612D01*
X24509Y145692D01*
X24412D01*
X24327Y145688D01*
X24250Y145684D01*
X24179Y145681D01*
X24116Y145673D01*
X24065Y145670D01*
X24016Y145666D01*
X23979Y145659D01*
X23946Y145655D01*
X23920Y145651D01*
X23902Y145647D01*
X23887D01*
X23879Y145644D01*
X23876D01*
X23772Y145614D01*
X23676Y145581D01*
X23595Y145540D01*
X23524Y145499D01*
X23469Y145462D01*
X23447Y145448D01*
X23428Y145433D01*
X23413Y145422D01*
X23402Y145411D01*
X23399Y145407D01*
X23395Y145403D01*
X23328Y145329D01*
X23269Y145252D01*
X23221Y145170D01*
X23177Y145089D01*
X23147Y145018D01*
X23132Y144985D01*
X23121Y144959D01*
X23114Y144937D01*
X23106Y144922D01*
X23102Y144911D01*
Y144907D01*
X23084Y144844D01*
X23065Y144778D01*
X23054Y144704D01*
X23040Y144630D01*
X23021Y144478D01*
X23014Y144404D01*
X23010Y144334D01*
X23003Y144264D01*
X22999Y144201D01*
Y144145D01*
X22995Y144093D01*
Y144053D01*
Y144023D01*
Y144005D01*
Y143997D01*
Y143890D01*
X22999Y143786D01*
X23006Y143690D01*
X23010Y143601D01*
X23021Y143516D01*
X23029Y143442D01*
X23040Y143372D01*
X23047Y143309D01*
X23058Y143250D01*
X23069Y143202D01*
X23077Y143157D01*
X23084Y143124D01*
X23091Y143098D01*
X23099Y143076D01*
X23102Y143065D01*
Y143061D01*
X23121Y142998D01*
X23143Y142943D01*
X23165Y142887D01*
X23188Y142839D01*
X23210Y142795D01*
X23232Y142754D01*
X23254Y142717D01*
X23276Y142684D01*
X23295Y142654D01*
X23313Y142632D01*
X23332Y142610D01*
X23343Y142595D01*
X23358Y142580D01*
X23365Y142573D01*
X23369Y142569D01*
X23373Y142565D01*
X23439Y142514D01*
X23509Y142469D01*
X23576Y142432D01*
X23643Y142406D01*
X23702Y142384D01*
X23728Y142373D01*
X23750Y142366D01*
X23765Y142362D01*
X23780Y142358D01*
X23787Y142354D01*
X23791D01*
X23828Y142347D01*
X23872Y142340D01*
X23968Y142329D01*
X24072Y142317D01*
X24175Y142314D01*
X24224Y142310D01*
X24268D01*
X24309Y142306D01*
X25189D01*
Y145695D01*
D02*
G37*
G36*
X35512Y153708D02*
X34569D01*
X34476Y153705D01*
X34391D01*
X34321Y153701D01*
X34206D01*
X34162Y153697D01*
X34125D01*
X34095Y153694D01*
X34073D01*
X34054Y153690D01*
X34036D01*
X33944Y153671D01*
X33866Y153649D01*
X33799Y153620D01*
X33744Y153586D01*
X33703Y153557D01*
X33673Y153531D01*
X33655Y153516D01*
X33648Y153509D01*
X33603Y153449D01*
X33570Y153386D01*
X33548Y153324D01*
X33529Y153261D01*
X33522Y153205D01*
X33518Y153165D01*
X33514Y153146D01*
Y153135D01*
Y153128D01*
Y153124D01*
X33522Y153035D01*
X33540Y152957D01*
X33562Y152887D01*
X33592Y152831D01*
X33622Y152787D01*
X33644Y152750D01*
X33662Y152732D01*
X33670Y152724D01*
X33733Y152672D01*
X33799Y152632D01*
X33866Y152598D01*
X33932Y152576D01*
X33992Y152558D01*
X34018Y152550D01*
X34040Y152547D01*
X34058Y152543D01*
X34073Y152539D01*
X34084D01*
X34117Y152535D01*
X34158D01*
X34210Y152532D01*
X34265D01*
X34325Y152528D01*
X34513D01*
X34576Y152524D01*
X35512D01*
Y153708D01*
D02*
G37*
G36*
Y151673D02*
X34550D01*
X34432Y151670D01*
X34328Y151666D01*
X34236Y151662D01*
X34151Y151655D01*
X34077Y151651D01*
X34010Y151644D01*
X33951Y151636D01*
X33903Y151629D01*
X33862Y151622D01*
X33829Y151618D01*
X33803Y151611D01*
X33781Y151607D01*
X33770Y151603D01*
X33762Y151599D01*
X33759D01*
X33685Y151570D01*
X33618Y151533D01*
X33562Y151492D01*
X33518Y151455D01*
X33481Y151418D01*
X33459Y151389D01*
X33440Y151370D01*
X33437Y151366D01*
Y151363D01*
X33400Y151300D01*
X33370Y151233D01*
X33351Y151170D01*
X33337Y151107D01*
X33329Y151056D01*
X33322Y151011D01*
Y150996D01*
Y150985D01*
Y150978D01*
Y150974D01*
X33329Y150878D01*
X33344Y150789D01*
X33370Y150715D01*
X33396Y150652D01*
X33422Y150604D01*
X33448Y150567D01*
X33463Y150545D01*
X33470Y150541D01*
Y150538D01*
X33529Y150482D01*
X33588Y150438D01*
X33651Y150401D01*
X33710Y150375D01*
X33762Y150356D01*
X33807Y150341D01*
X33821Y150338D01*
X33832D01*
X33840Y150334D01*
X33844D01*
X33877Y150330D01*
X33918Y150323D01*
X33966Y150319D01*
X34018Y150315D01*
X34077D01*
X34136Y150312D01*
X34254Y150308D01*
X34313D01*
X34369Y150304D01*
X35512D01*
Y151673D01*
D02*
G37*
G36*
X29381Y153364D02*
X28671Y151466D01*
X30073D01*
X29381Y153364D01*
D02*
G37*
%LPD*%
D11*
X104331Y1969D02*
Y21654D01*
X124016D01*
Y1969D02*
Y21654D01*
X104331Y1969D02*
X124016D01*
X30709Y36220D02*
X30740Y42752D01*
X95245Y36220D02*
X95276Y42752D01*
X27559Y36220D02*
X98425D01*
X27559Y60866D02*
X38582D01*
X27559D02*
X27559Y36220D01*
X98425Y60866D02*
X98425Y36220D01*
X87401Y60866D02*
X98425D01*
X111998Y44007D02*
X112098Y42307D01*
X111998Y44007D02*
X112698Y43407D01*
X112498Y42807D02*
X112698Y43407D01*
X7815Y54725D02*
X12835D01*
X1815Y28370D02*
Y50370D01*
X7815Y24017D02*
X12795D01*
X12815Y24037D02*
Y28370D01*
X12795Y24017D02*
X12815Y24037D01*
Y54705D02*
X12835Y54725D01*
X12815Y50370D02*
Y54705D01*
Y33870D02*
Y44870D01*
X-1685Y33370D02*
X1815D01*
X-1685D02*
Y45370D01*
X1815D01*
X121923Y109888D02*
X124803D01*
X121923Y134691D02*
X124803D01*
X109843Y109888D02*
X113123D01*
X109843Y134691D02*
X113123D01*
X124803Y109888D02*
Y134691D01*
X109843Y109888D02*
Y134691D01*
X112323Y115047D02*
X115223D01*
X112323D02*
Y129047D01*
X115223D01*
X121323Y119147D02*
Y125047D01*
X116723Y122047D02*
X119323D01*
X112323D02*
X114923D01*
X121923Y62644D02*
X124803D01*
X121923Y87447D02*
X124803D01*
X109843Y62644D02*
X113123D01*
X109843Y87447D02*
X113123D01*
X124803Y62644D02*
Y87447D01*
X109843Y62644D02*
Y87447D01*
X112323Y67803D02*
X115223D01*
X112323D02*
Y81803D01*
X115223D01*
X121323Y71903D02*
Y77803D01*
X116723Y74803D02*
X119323D01*
X112323D02*
X114923D01*
X18985Y27746D02*
X20685Y27847D01*
X18985Y27746D02*
X19585Y28446D01*
X20185Y28247D01*
X93020Y32496D02*
X93120Y30796D01*
X92420Y31396D02*
X93120Y30796D01*
X92420Y31396D02*
X92620Y31996D01*
X18685Y46957D02*
X20385Y47057D01*
X19785Y46357D02*
X20385Y47057D01*
X19185Y46557D02*
X19785Y46357D01*
X53650Y145095D02*
X53750Y143394D01*
X53050Y143994D02*
X53750Y143394D01*
X53050Y143994D02*
X53250Y144595D01*
X91920Y25897D02*
X92020Y24197D01*
X91920Y25897D02*
X92620Y25297D01*
X92420Y24697D02*
X92620Y25297D01*
X53650Y152181D02*
X53750Y150481D01*
X53050Y151081D02*
X53750Y150481D01*
X53050Y151081D02*
X53250Y151681D01*
X98150Y146457D02*
Y156181D01*
X103150Y146181D02*
Y155905D01*
X108150Y146181D02*
Y156181D01*
X113650Y146181D02*
Y156181D01*
X92650Y146181D02*
X113650D01*
X92650D02*
Y156181D01*
X113650D01*
X111650Y146181D02*
X113650Y148181D01*
X10842Y106526D02*
X16912D01*
X-4233D02*
X1164D01*
X10817Y70866D02*
X16937D01*
X26574Y103617D02*
Y103766D01*
Y103272D02*
Y103617D01*
Y73400D02*
Y73893D01*
X-4233Y70866D02*
Y106526D01*
Y70866D02*
X1189D01*
X103453Y143853D02*
X104120Y144519D01*
X105453D01*
X106119Y143853D01*
Y143186D01*
X105453Y142520D01*
X104120D01*
X103453Y141853D01*
Y141187D01*
X104120Y140520D01*
X105453D01*
X106119Y141187D01*
X99454Y143853D02*
X100121Y144519D01*
X101454D01*
X102120Y143853D01*
Y141187D01*
X101454Y140520D01*
X100121D01*
X99454Y141187D01*
X98122Y144519D02*
Y140520D01*
Y141853D01*
X95456Y144519D01*
X97455Y142520D01*
X95456Y140520D01*
X107501Y144998D02*
X111499D01*
Y142999D01*
X110833Y142333D01*
X108167D01*
X107501Y142999D01*
Y144998D01*
Y141000D02*
Y139667D01*
Y140333D01*
X111499D01*
Y141000D01*
Y139667D01*
X107501Y135668D02*
Y137001D01*
X108167Y137667D01*
X110833D01*
X111499Y137001D01*
Y135668D01*
X110833Y135002D01*
X108167D01*
X107501Y135668D01*
X91946Y147002D02*
X91279Y147669D01*
X89946D01*
X89280Y147002D01*
Y146336D01*
X89946Y145669D01*
X90613D01*
X89946D01*
X89280Y145003D01*
Y144336D01*
X89946Y143670D01*
X91279D01*
X91946Y144336D01*
X87947Y147669D02*
Y145003D01*
X86614Y143670D01*
X85281Y145003D01*
Y147669D01*
X83948Y147002D02*
X83282Y147669D01*
X81949D01*
X81283Y147002D01*
Y146336D01*
X81949Y145669D01*
X82616D01*
X81949D01*
X81283Y145003D01*
Y144336D01*
X81949Y143670D01*
X83282D01*
X83948Y144336D01*
X122351Y147002D02*
X123017Y147669D01*
X124350D01*
X125017Y147002D01*
Y144336D01*
X124350Y143670D01*
X123017D01*
X122351Y144336D01*
Y145669D01*
X123684D01*
X121018Y143670D02*
Y147669D01*
X118352Y143670D01*
Y147669D01*
X117019D02*
Y143670D01*
X115020D01*
X114353Y144336D01*
Y147002D01*
X115020Y147669D01*
X117019D01*
X86296Y64930D02*
X88962D01*
X86296Y67596D01*
Y68262D01*
X86963Y68928D01*
X88296D01*
X88962Y68262D01*
X82964Y64930D02*
Y68928D01*
X84964Y66929D01*
X82298D01*
X41021Y64930D02*
X39688D01*
X40354D01*
Y68928D01*
X41021Y68262D01*
D42*
X59055Y91764D02*
G03*
X57055Y89764I0J-2000D01*
G01*
X57055D02*
G03*
X59055Y87764I2000J-0D01*
G01*
X33858Y132252D02*
G03*
X35858Y134252I0J2000D01*
G01*
X31858Y134252D02*
G03*
X33858Y132252I2000J0D01*
G01*
X59055Y91764D02*
Y95764D01*
Y83764D02*
Y87764D01*
X35858Y134252D02*
X39858D01*
X27858D02*
X31858D01*
D71*
X31158Y22134D02*
Y33748D01*
X36558D01*
Y22134D02*
Y33748D01*
X31158Y22134D02*
X36558D01*
X37333Y89113D02*
Y96713D01*
X33533D02*
X37333D01*
X33533Y89113D02*
Y96713D01*
Y89113D02*
X37333D01*
X91551Y90776D02*
X93996D01*
X91551Y87176D02*
X93996D01*
Y90776D01*
X87106Y87176D02*
X89551D01*
X87106Y90776D02*
X89551D01*
X87106Y87176D02*
Y90776D01*
X100213Y70698D02*
X102657D01*
X100213Y67098D02*
X102657D01*
Y70698D01*
X95768Y67098D02*
X98213D01*
X95768Y70698D02*
X98213D01*
X95768Y67098D02*
Y70698D01*
X95768Y87176D02*
X98213D01*
X95768Y90776D02*
X98213D01*
X95768Y87176D02*
Y90776D01*
X100213D02*
X102657D01*
X100213Y87176D02*
X102657D01*
Y90776D01*
X2499Y5837D02*
X10099D01*
X2499Y2037D02*
Y5837D01*
Y2037D02*
X10099D01*
Y5837D01*
X12735Y2037D02*
X20335D01*
Y5837D01*
X12735D02*
X20335D01*
X12735Y2037D02*
Y5837D01*
X111698Y41607D02*
X113298Y43207D01*
Y41307D02*
Y45307D01*
X111698Y45107D02*
X113298Y43407D01*
X111698Y41607D02*
Y45107D01*
X37570Y31386D02*
X41170D01*
Y28941D02*
Y31386D01*
X37570Y28941D02*
Y31386D01*
Y24496D02*
X41170D01*
X37570D02*
Y26941D01*
X41170Y24496D02*
Y26941D01*
X6206Y59124D02*
Y62924D01*
X13806D01*
Y59124D02*
Y62924D01*
X6206Y59124D02*
X13806D01*
X102344Y101346D02*
X104890Y98801D01*
X103161Y97072D02*
X104890Y98801D01*
X100615Y99618D02*
X102344Y101346D01*
X97473Y96475D02*
X100018Y93929D01*
X97473Y96475D02*
X99201Y98203D01*
X100018Y93929D02*
X101747Y95658D01*
X60465Y133483D02*
X63010Y130937D01*
X60465Y133483D02*
X62193Y135211D01*
X63010Y130937D02*
X64739Y132666D01*
X65336Y138354D02*
X67882Y135809D01*
X66153Y134080D02*
X67882Y135809D01*
X63608Y136626D02*
X65336Y138354D01*
X94945Y139200D02*
Y142800D01*
X92500Y139200D02*
X94945D01*
X92500Y142800D02*
X94945D01*
X88055Y139200D02*
Y142800D01*
X90500D01*
X88055Y139200D02*
X90500D01*
X102344Y130937D02*
X104890Y133483D01*
X100615Y132666D02*
X102344Y130937D01*
X103161Y135211D02*
X104890Y133483D01*
X97473Y135809D02*
X100018Y138354D01*
X101747Y136626D01*
X97473Y135809D02*
X99201Y134080D01*
X65336Y93929D02*
X67882Y96475D01*
X63608Y95658D02*
X65336Y93929D01*
X66153Y98203D02*
X67882Y96475D01*
X60465Y98801D02*
X63010Y101346D01*
X64739Y99618D01*
X60465Y98801D02*
X62193Y97072D01*
X56468Y31386D02*
X60068D01*
Y28941D02*
Y31386D01*
X56468Y28941D02*
Y31386D01*
Y24496D02*
X60068D01*
X56468D02*
Y26941D01*
X60068Y24496D02*
Y26941D01*
X102924Y24114D02*
X106524D01*
X102924D02*
Y26559D01*
X106524Y24114D02*
Y26559D01*
X102924Y31004D02*
X106524D01*
Y28559D02*
Y31004D01*
X102924Y28559D02*
Y31004D01*
X19785Y29046D02*
X21385Y27446D01*
X17685Y29046D02*
X21685D01*
X17885Y27446D02*
X19585Y29046D01*
X17885Y27446D02*
X21385D01*
X17785Y17580D02*
X21585D01*
Y9979D02*
Y17580D01*
X17785Y9979D02*
X21585D01*
X17785D02*
Y17580D01*
X70641Y31386D02*
X74241D01*
Y28941D02*
Y31386D01*
X70641Y28941D02*
Y31386D01*
Y24496D02*
X74241D01*
X70641D02*
Y26941D01*
X74241Y24496D02*
Y26941D01*
X75365Y31386D02*
X78965D01*
Y28941D02*
Y31386D01*
X75365Y28941D02*
Y31386D01*
Y24496D02*
X78965D01*
X75365D02*
Y26941D01*
X78965Y24496D02*
Y26941D01*
X51743Y31386D02*
X55343D01*
Y28941D02*
Y31386D01*
X51743Y28941D02*
Y31386D01*
Y24496D02*
X55343D01*
X51743D02*
Y26941D01*
X55343Y24496D02*
Y26941D01*
X91820Y31596D02*
X93420Y33196D01*
X91820Y29496D02*
Y33496D01*
Y31396D02*
X93420Y29696D01*
Y33196D01*
X17985Y47357D02*
X19585Y45757D01*
X17685D02*
X21685D01*
X19785D02*
X21485Y47357D01*
X17985D02*
X21485D01*
X23485Y59124D02*
Y62924D01*
X15885Y59124D02*
X23485D01*
X15885D02*
Y62924D01*
X23485D01*
X65917Y31386D02*
X69516D01*
Y28941D02*
Y31386D01*
X65917Y28941D02*
Y31386D01*
Y24496D02*
X69516D01*
X65917D02*
Y26941D01*
X69516Y24496D02*
Y26941D01*
X26447Y31741D02*
X30246D01*
Y24141D02*
Y31741D01*
X26447Y24141D02*
X30246D01*
X26447D02*
Y31741D01*
X61192Y31386D02*
X64792D01*
Y28941D02*
Y31386D01*
X61192Y28941D02*
Y31386D01*
Y24496D02*
X64792D01*
X61192D02*
Y26941D01*
X64792Y24496D02*
Y26941D01*
X80090Y31386D02*
X83690D01*
Y28941D02*
Y31386D01*
X80090Y28941D02*
Y31386D01*
Y24496D02*
X83690D01*
X80090D02*
Y26941D01*
X83690Y24496D02*
Y26941D01*
X55287Y113681D02*
X58887D01*
Y111236D02*
Y113681D01*
X55287Y111236D02*
Y113681D01*
Y106791D02*
X58887D01*
X55287D02*
Y109236D01*
X58887Y106791D02*
Y109236D01*
X52450Y144194D02*
X54050Y145794D01*
X52450Y142095D02*
Y146095D01*
Y143994D02*
X54050Y142295D01*
Y145794D01*
X42195Y31741D02*
X45994D01*
Y24141D02*
Y31741D01*
X42195Y24141D02*
X45994D01*
X42195D02*
Y31741D01*
X102924Y31988D02*
X106524D01*
X102924D02*
Y34433D01*
X106524Y31988D02*
Y34433D01*
X102924Y38878D02*
X106524D01*
Y36433D02*
Y38878D01*
X102924Y36433D02*
Y38878D01*
X46919Y31741D02*
X50719D01*
Y24141D02*
Y31741D01*
X46919Y24141D02*
X50719D01*
X46919D02*
Y31741D01*
X91620Y23497D02*
X93220Y25097D01*
Y23197D02*
Y27197D01*
X91620Y26997D02*
X93220Y25297D01*
X91620Y23497D02*
Y26997D01*
X49350Y135895D02*
Y139695D01*
X56950D01*
Y135895D02*
Y139695D01*
X49350Y135895D02*
X56950D01*
X111300Y48600D02*
Y52400D01*
X103700Y48600D02*
X111300D01*
X103700D02*
Y52400D01*
X111300D01*
X115885Y149281D02*
Y153081D01*
X123485D01*
Y149281D02*
Y153081D01*
X115885Y149281D02*
X123485D01*
X9154Y132846D02*
Y136446D01*
X11598D01*
X9154Y132846D02*
X11598D01*
X16043D02*
Y136446D01*
X13598Y132846D02*
X16043D01*
X13598Y136446D02*
X16043D01*
X33633Y79035D02*
X37233D01*
Y76591D02*
Y79035D01*
X33633Y76591D02*
Y79035D01*
Y72146D02*
X37233D01*
X33633D02*
Y74590D01*
X37233Y72146D02*
Y74590D01*
X8798Y123297D02*
Y127097D01*
X16398D01*
Y123297D02*
Y127097D01*
X8798Y123297D02*
X16398D01*
X16043Y118672D02*
Y122272D01*
X13598Y118672D02*
X16043D01*
X13598Y122272D02*
X16043D01*
X9154Y118672D02*
Y122272D01*
X11598D01*
X9154Y118672D02*
X11598D01*
X8798Y113848D02*
Y117648D01*
X16398D01*
Y113848D02*
Y117648D01*
X8798Y113848D02*
X16398D01*
X2425Y127200D02*
Y137800D01*
Y127200D02*
X7025D01*
X3700Y132900D02*
X5700D01*
X4700Y131900D02*
X5700Y132900D01*
X3700D02*
X4700Y131900D01*
X7025Y127200D02*
Y137800D01*
X2425D02*
X7025D01*
X3225Y126400D02*
X6225D01*
X33633Y98130D02*
X37233D01*
X33633D02*
Y100575D01*
X37233Y98130D02*
Y100575D01*
X33633Y105020D02*
X37233D01*
Y102575D02*
Y105020D01*
X33633Y102575D02*
Y105019D01*
X33533Y88052D02*
X37333D01*
Y80452D02*
Y88052D01*
X33533Y80452D02*
X37333D01*
X33533D02*
Y88052D01*
X8798Y128021D02*
Y131821D01*
X16398D01*
Y128021D02*
Y131821D01*
X8798Y128021D02*
X16398D01*
X123130Y97019D02*
Y100619D01*
X120685Y97019D02*
X123130D01*
X120685Y100619D02*
X123130D01*
X116240Y97019D02*
Y100619D01*
X118685D01*
X116240Y97019D02*
X118685D01*
X2425Y114700D02*
Y125300D01*
Y114700D02*
X7025D01*
X3700Y120400D02*
X5700D01*
X4700Y119400D02*
X5700Y120400D01*
X3700D02*
X4700Y119400D01*
X7025Y114700D02*
Y125300D01*
X2425D02*
X7025D01*
X3225Y113900D02*
X6225D01*
X37445Y66700D02*
Y70300D01*
X35000Y66700D02*
X37445D01*
X35000Y70300D02*
X37445D01*
X30555Y66700D02*
Y70300D01*
X33000D01*
X30555Y66700D02*
X33000D01*
X39600Y155800D02*
X43400D01*
Y148200D02*
Y155800D01*
X39600Y148200D02*
X43400D01*
X39600D02*
Y155800D01*
Y146800D02*
X43400D01*
Y139200D02*
Y146800D01*
X39600Y139200D02*
X43400D01*
X39600D02*
Y146800D01*
X52450Y151281D02*
X54050Y152881D01*
X52450Y149181D02*
Y153181D01*
Y151081D02*
X54050Y149381D01*
Y152881D01*
X113200Y52799D02*
X123800D01*
X113200Y48199D02*
Y52799D01*
X118900Y49525D02*
Y51525D01*
X117900Y50525D02*
X118900Y49525D01*
X117900Y50525D02*
X118900Y51525D01*
X113200Y48199D02*
X123800D01*
Y52799D01*
X112400Y49000D02*
Y52000D01*
D102*
X61821Y79764D02*
G03*
X61821Y79764I-608J0D01*
G01*
X44467Y136409D02*
G03*
X44467Y136409I-608J0D01*
G01*
D103*
X99705Y85827D02*
G03*
X99705Y85827I-492J0D01*
G01*
X99311Y129724D02*
G03*
X99311Y129724I-492J0D01*
G01*
X120768Y38583D02*
G03*
X120768Y38583I-492J0D01*
G01*
X13287Y20866D02*
G03*
X13287Y20866I-492J0D01*
G01*
X66437Y140945D02*
G03*
X66437Y140945I-492J0D01*
G01*
D104*
X90354Y122638D02*
G03*
X90354Y122638I-1181J0D01*
G01*
D105*
X18437Y138823D02*
Y156453D01*
X591D02*
X20437D01*
Y138823D02*
Y156453D01*
X591Y138823D02*
X20437D01*
X591D02*
Y156453D01*
X7937Y144323D02*
Y150323D01*
X14437D01*
Y144323D02*
Y150323D01*
X7937Y144323D02*
X14437D01*
X39370Y83764D02*
Y95764D01*
X59055D01*
X39370Y83764D02*
X59055D01*
X93307Y72638D02*
Y84842D01*
X95669Y72638D02*
Y84842D01*
X93307Y72638D02*
X95669D01*
X93307Y84842D02*
X95669D01*
X93110Y105709D02*
Y126575D01*
X72244Y105709D02*
Y126575D01*
X93110D01*
X72244Y105709D02*
X93110D01*
X27858Y114567D02*
X39858D01*
X27858D02*
Y134252D01*
X39858Y114567D02*
Y134252D01*
X113386Y25591D02*
Y28740D01*
Y25591D02*
X116142D01*
X113386Y34252D02*
Y37402D01*
X116142D01*
X5906Y7874D02*
Y11024D01*
Y7874D02*
X8661D01*
X5906Y16535D02*
Y19685D01*
X8661D01*
X72835Y150787D02*
Y153937D01*
X70079D02*
X72835D01*
Y142126D02*
Y145276D01*
X70079Y142126D02*
X72835D01*
D106*
X120898Y42107D02*
Y44607D01*
X119198Y46307D02*
X120898Y44607D01*
X115998Y46307D02*
X119198D01*
X115998Y40307D02*
X119098D01*
X120898Y42107D01*
X104298Y40307D02*
X109498D01*
X104298Y46307D02*
X109498D01*
X104298Y40307D02*
Y46307D01*
X18385Y36647D02*
X20885D01*
X16685Y34947D02*
X18385Y36647D01*
X16685Y31747D02*
Y34947D01*
X22685Y31747D02*
Y34846D01*
X20885Y36647D02*
X22685Y34846D01*
Y20046D02*
Y25247D01*
X16685Y20046D02*
Y25247D01*
Y20046D02*
X22685D01*
X84220Y30196D02*
Y32696D01*
Y30196D02*
X85920Y28496D01*
X89120D01*
X86020Y34496D02*
X89120D01*
X84220Y32696D02*
X86020Y34496D01*
X95620D02*
X100820D01*
X95620Y28496D02*
X100820D01*
Y34496D01*
X18485Y38157D02*
X20985D01*
X22685Y39857D01*
Y43057D01*
X16685Y39957D02*
Y43057D01*
Y39957D02*
X18485Y38157D01*
X16685Y49557D02*
Y54757D01*
X22685Y49557D02*
Y54757D01*
X16685D02*
X22685D01*
X44850Y142795D02*
Y145294D01*
Y142795D02*
X46550Y141095D01*
X49750D01*
X46650Y147095D02*
X49750D01*
X44850Y145294D02*
X46650Y147095D01*
X56250D02*
X61450D01*
X56250Y141095D02*
X61450D01*
Y147095D01*
X100820Y23997D02*
Y26497D01*
X99120Y28197D02*
X100820Y26497D01*
X95920Y28197D02*
X99120D01*
X95920Y22197D02*
X99020D01*
X100820Y23997D01*
X84220Y22197D02*
X89420D01*
X84220Y28197D02*
X89420D01*
X84220Y22197D02*
Y28197D01*
X44850Y149881D02*
Y152381D01*
Y149881D02*
X46550Y148181D01*
X49750D01*
X46650Y154181D02*
X49750D01*
X44850Y152381D02*
X46650Y154181D01*
X56250D02*
X61450D01*
X56250Y148181D02*
X61450D01*
Y154181D01*
M02*
