G04*
G04 #@! TF.GenerationSoftware,Altium Limited,Altium Designer,22.1.2 (22)*
G04*
G04 Layer_Color=32896*
%FSLAX25Y25*%
%MOIN*%
G70*
G04*
G04 #@! TF.SameCoordinates,F82994AF-303A-43CC-98E4-720CC67364FB*
G04*
G04*
G04 #@! TF.FilePolarity,Positive*
G04*
G01*
G75*
%ADD11C,0.01000*%
%ADD42C,0.00800*%
%ADD71C,0.00600*%
%ADD102C,0.01968*%
%ADD103C,0.00984*%
%ADD104C,0.02362*%
%ADD105C,0.00787*%
%ADD106C,0.00700*%
G36*
X108860Y80586D02*
X106721D01*
Y80253D01*
X106728Y80150D01*
X106736Y80061D01*
X106751Y79987D01*
X106758Y79928D01*
X106773Y79891D01*
X106780Y79868D01*
Y79861D01*
X106810Y79802D01*
X106839Y79743D01*
X106876Y79691D01*
X106906Y79639D01*
X106943Y79602D01*
X106973Y79572D01*
X106987Y79558D01*
X106995Y79550D01*
X107032Y79521D01*
X107069Y79484D01*
X107180Y79402D01*
X107298Y79313D01*
X107431Y79217D01*
X107550Y79136D01*
X107609Y79099D01*
X107653Y79069D01*
X107690Y79040D01*
X107720Y79017D01*
X107742Y79010D01*
X107750Y79003D01*
X108860Y78263D01*
Y77019D01*
X107861Y77649D01*
X107757Y77715D01*
X107653Y77782D01*
X107565Y77841D01*
X107483Y77900D01*
X107409Y77952D01*
X107335Y77996D01*
X107224Y78085D01*
X107135Y78152D01*
X107076Y78196D01*
X107039Y78233D01*
X107032Y78240D01*
X106943Y78322D01*
X106862Y78418D01*
X106795Y78507D01*
X106728Y78596D01*
X106677Y78670D01*
X106640Y78729D01*
X106610Y78773D01*
X106603Y78781D01*
Y78788D01*
X106580Y78662D01*
X106551Y78551D01*
X106521Y78448D01*
X106484Y78344D01*
X106447Y78255D01*
X106410Y78174D01*
X106373Y78092D01*
X106329Y78026D01*
X106292Y77967D01*
X106255Y77915D01*
X106218Y77871D01*
X106188Y77841D01*
X106166Y77811D01*
X106144Y77789D01*
X106136Y77782D01*
X106129Y77774D01*
X106055Y77715D01*
X105981Y77663D01*
X105818Y77574D01*
X105663Y77515D01*
X105507Y77478D01*
X105374Y77449D01*
X105322Y77441D01*
X105271D01*
X105234Y77434D01*
X105197D01*
X105182D01*
X105174D01*
X105012Y77441D01*
X104856Y77471D01*
X104723Y77508D01*
X104605Y77545D01*
X104508Y77589D01*
X104434Y77626D01*
X104412Y77641D01*
X104390Y77656D01*
X104383Y77663D01*
X104375D01*
X104249Y77752D01*
X104146Y77848D01*
X104064Y77944D01*
X103990Y78041D01*
X103946Y78129D01*
X103909Y78196D01*
X103887Y78240D01*
X103879Y78248D01*
Y78255D01*
X103857Y78329D01*
X103835Y78411D01*
X103798Y78596D01*
X103776Y78795D01*
X103754Y78988D01*
Y79084D01*
X103746Y79165D01*
Y79247D01*
X103739Y79313D01*
Y81622D01*
X108860D01*
Y80586D01*
D02*
G37*
G36*
X107350Y76709D02*
X107498Y76679D01*
X107639Y76635D01*
X107764Y76598D01*
X107883Y76546D01*
X107994Y76494D01*
X108090Y76442D01*
X108179Y76390D01*
X108253Y76339D01*
X108319Y76287D01*
X108379Y76242D01*
X108430Y76198D01*
X108467Y76168D01*
X108490Y76139D01*
X108504Y76124D01*
X108512Y76117D01*
X108593Y76013D01*
X108660Y75902D01*
X108719Y75784D01*
X108771Y75658D01*
X108808Y75539D01*
X108845Y75414D01*
X108897Y75169D01*
X108919Y75059D01*
X108934Y74955D01*
X108941Y74866D01*
X108948Y74785D01*
X108956Y74718D01*
Y74622D01*
X108948Y74385D01*
X108926Y74171D01*
X108897Y73978D01*
X108882Y73897D01*
X108860Y73815D01*
X108845Y73749D01*
X108830Y73689D01*
X108815Y73638D01*
X108800Y73593D01*
X108786Y73556D01*
X108778Y73534D01*
X108771Y73519D01*
Y73512D01*
X108689Y73349D01*
X108601Y73216D01*
X108512Y73090D01*
X108416Y72994D01*
X108334Y72920D01*
X108260Y72861D01*
X108216Y72831D01*
X108208Y72816D01*
X108201D01*
X108053Y72735D01*
X107912Y72668D01*
X107772Y72624D01*
X107639Y72594D01*
X107535Y72579D01*
X107483Y72572D01*
X107446Y72565D01*
X107417D01*
X107394D01*
X107380D01*
X107372D01*
X107195Y72572D01*
X107039Y72594D01*
X106899Y72631D01*
X106780Y72668D01*
X106684Y72705D01*
X106617Y72742D01*
X106573Y72764D01*
X106558Y72772D01*
X106440Y72853D01*
X106336Y72949D01*
X106247Y73046D01*
X106173Y73134D01*
X106114Y73216D01*
X106070Y73282D01*
X106040Y73327D01*
X106033Y73334D01*
Y73342D01*
X105996Y73416D01*
X105959Y73490D01*
X105892Y73667D01*
X105833Y73852D01*
X105774Y74030D01*
X105752Y74111D01*
X105729Y74193D01*
X105707Y74267D01*
X105692Y74326D01*
X105678Y74378D01*
X105670Y74415D01*
X105663Y74444D01*
Y74452D01*
X105626Y74585D01*
X105596Y74703D01*
X105567Y74814D01*
X105537Y74918D01*
X105507Y74999D01*
X105478Y75081D01*
X105448Y75147D01*
X105426Y75206D01*
X105404Y75258D01*
X105382Y75295D01*
X105367Y75332D01*
X105352Y75354D01*
X105330Y75391D01*
X105322Y75399D01*
X105271Y75451D01*
X105219Y75488D01*
X105167Y75510D01*
X105115Y75525D01*
X105078Y75539D01*
X105041Y75547D01*
X105019D01*
X105012D01*
X104938Y75539D01*
X104878Y75525D01*
X104819Y75495D01*
X104775Y75465D01*
X104738Y75436D01*
X104716Y75406D01*
X104701Y75391D01*
X104693Y75384D01*
X104627Y75280D01*
X104582Y75169D01*
X104545Y75051D01*
X104523Y74940D01*
X104508Y74844D01*
X104501Y74762D01*
Y74689D01*
X104508Y74533D01*
X104531Y74400D01*
X104560Y74289D01*
X104590Y74200D01*
X104619Y74126D01*
X104649Y74074D01*
X104671Y74045D01*
X104679Y74037D01*
X104753Y73963D01*
X104841Y73897D01*
X104930Y73845D01*
X105026Y73808D01*
X105108Y73778D01*
X105174Y73764D01*
X105226Y73749D01*
X105234D01*
X105241D01*
X105204Y72713D01*
X105071Y72720D01*
X104952Y72742D01*
X104834Y72772D01*
X104730Y72809D01*
X104627Y72846D01*
X104531Y72890D01*
X104449Y72935D01*
X104368Y72979D01*
X104301Y73031D01*
X104242Y73075D01*
X104190Y73120D01*
X104146Y73157D01*
X104116Y73186D01*
X104094Y73208D01*
X104079Y73223D01*
X104072Y73231D01*
X103998Y73327D01*
X103931Y73430D01*
X103872Y73541D01*
X103820Y73660D01*
X103783Y73778D01*
X103746Y73897D01*
X103694Y74133D01*
X103680Y74244D01*
X103665Y74341D01*
X103657Y74437D01*
X103650Y74518D01*
X103643Y74585D01*
Y74674D01*
X103650Y74888D01*
X103672Y75081D01*
X103702Y75251D01*
X103731Y75399D01*
X103754Y75465D01*
X103768Y75525D01*
X103783Y75569D01*
X103798Y75613D01*
X103813Y75643D01*
X103820Y75665D01*
X103828Y75680D01*
Y75687D01*
X103902Y75836D01*
X103983Y75961D01*
X104072Y76072D01*
X104153Y76161D01*
X104227Y76235D01*
X104286Y76279D01*
X104331Y76316D01*
X104338Y76324D01*
X104346D01*
X104471Y76398D01*
X104605Y76450D01*
X104730Y76487D01*
X104841Y76509D01*
X104938Y76524D01*
X105012Y76538D01*
X105041D01*
X105063D01*
X105071D01*
X105078D01*
X105189Y76531D01*
X105300Y76516D01*
X105396Y76494D01*
X105493Y76464D01*
X105670Y76390D01*
X105826Y76302D01*
X105892Y76265D01*
X105944Y76220D01*
X105996Y76183D01*
X106040Y76146D01*
X106070Y76117D01*
X106092Y76094D01*
X106107Y76080D01*
X106114Y76072D01*
X106166Y76006D01*
X106218Y75924D01*
X106270Y75843D01*
X106314Y75747D01*
X106403Y75562D01*
X106477Y75369D01*
X106506Y75273D01*
X106536Y75192D01*
X106558Y75110D01*
X106580Y75044D01*
X106595Y74992D01*
X106610Y74948D01*
X106617Y74918D01*
Y74910D01*
X106647Y74792D01*
X106677Y74689D01*
X106699Y74592D01*
X106721Y74503D01*
X106743Y74429D01*
X106758Y74363D01*
X106780Y74304D01*
X106795Y74252D01*
X106802Y74207D01*
X106817Y74171D01*
X106832Y74119D01*
X106847Y74089D01*
Y74082D01*
X106884Y73985D01*
X106921Y73911D01*
X106958Y73845D01*
X106995Y73793D01*
X107024Y73756D01*
X107047Y73734D01*
X107061Y73719D01*
X107069Y73712D01*
X107121Y73675D01*
X107172Y73645D01*
X107224Y73630D01*
X107269Y73615D01*
X107313Y73608D01*
X107350Y73601D01*
X107372D01*
X107380D01*
X107483Y73608D01*
X107572Y73638D01*
X107661Y73682D01*
X107735Y73726D01*
X107794Y73778D01*
X107838Y73815D01*
X107868Y73845D01*
X107875Y73860D01*
X107942Y73963D01*
X107994Y74082D01*
X108031Y74207D01*
X108053Y74326D01*
X108068Y74437D01*
X108083Y74526D01*
Y74607D01*
X108075Y74777D01*
X108046Y74925D01*
X108009Y75051D01*
X107964Y75162D01*
X107920Y75251D01*
X107883Y75310D01*
X107853Y75347D01*
X107846Y75362D01*
X107742Y75458D01*
X107631Y75532D01*
X107505Y75599D01*
X107380Y75643D01*
X107269Y75680D01*
X107180Y75710D01*
X107150Y75717D01*
X107121D01*
X107106Y75725D01*
X107098D01*
X107195Y76731D01*
X107350Y76709D01*
D02*
G37*
G36*
X104605Y70530D02*
X108860D01*
Y69494D01*
X104605D01*
Y67984D01*
X103739D01*
Y72047D01*
X104605D01*
Y70530D01*
D02*
G37*
G36*
X108860Y129825D02*
X108852Y129699D01*
Y129477D01*
X108845Y129388D01*
Y129247D01*
X108837Y129196D01*
Y129122D01*
X108830Y129092D01*
Y129062D01*
X108808Y128914D01*
X108771Y128781D01*
X108734Y128663D01*
X108689Y128559D01*
X108652Y128478D01*
X108615Y128419D01*
X108593Y128382D01*
X108586Y128367D01*
X108504Y128263D01*
X108416Y128182D01*
X108334Y128100D01*
X108245Y128041D01*
X108171Y127989D01*
X108112Y127952D01*
X108075Y127930D01*
X108060Y127923D01*
X107935Y127871D01*
X107816Y127827D01*
X107698Y127797D01*
X107594Y127782D01*
X107505Y127767D01*
X107439Y127760D01*
X107394D01*
X107387D01*
X107380D01*
X107217Y127767D01*
X107069Y127797D01*
X106943Y127841D01*
X106825Y127886D01*
X106736Y127930D01*
X106669Y127975D01*
X106625Y128004D01*
X106610Y128012D01*
X106492Y128115D01*
X106395Y128226D01*
X106314Y128352D01*
X106255Y128463D01*
X106203Y128567D01*
X106166Y128655D01*
X106159Y128685D01*
X106151Y128707D01*
X106144Y128722D01*
Y128729D01*
X106077Y128611D01*
X106011Y128507D01*
X105929Y128419D01*
X105863Y128345D01*
X105796Y128293D01*
X105744Y128248D01*
X105707Y128219D01*
X105692Y128211D01*
X105574Y128145D01*
X105463Y128093D01*
X105352Y128063D01*
X105248Y128034D01*
X105160Y128019D01*
X105093Y128012D01*
X105049D01*
X105041D01*
X105034D01*
X104915Y128019D01*
X104797Y128034D01*
X104701Y128063D01*
X104612Y128093D01*
X104538Y128123D01*
X104479Y128152D01*
X104449Y128167D01*
X104434Y128174D01*
X104338Y128234D01*
X104257Y128300D01*
X104183Y128367D01*
X104116Y128426D01*
X104072Y128485D01*
X104035Y128530D01*
X104013Y128559D01*
X104005Y128567D01*
X103946Y128655D01*
X103902Y128752D01*
X103865Y128840D01*
X103835Y128922D01*
X103813Y128996D01*
X103798Y129048D01*
X103791Y129085D01*
Y129099D01*
X103776Y129225D01*
X103761Y129366D01*
X103754Y129514D01*
X103746Y129662D01*
X103739Y129795D01*
Y132045D01*
X108860D01*
Y129825D01*
D02*
G37*
G36*
X106558Y127087D02*
X106773Y127064D01*
X106973Y127035D01*
X107158Y126990D01*
X107328Y126939D01*
X107483Y126879D01*
X107631Y126820D01*
X107757Y126754D01*
X107875Y126694D01*
X107972Y126635D01*
X108060Y126576D01*
X108134Y126524D01*
X108186Y126480D01*
X108231Y126450D01*
X108253Y126428D01*
X108260Y126421D01*
X108386Y126287D01*
X108490Y126147D01*
X108586Y126006D01*
X108660Y125851D01*
X108726Y125703D01*
X108786Y125547D01*
X108830Y125407D01*
X108867Y125259D01*
X108897Y125126D01*
X108919Y125000D01*
X108934Y124889D01*
X108941Y124793D01*
X108948Y124719D01*
X108956Y124659D01*
Y124608D01*
X108948Y124400D01*
X108926Y124208D01*
X108889Y124023D01*
X108845Y123853D01*
X108793Y123690D01*
X108734Y123542D01*
X108675Y123409D01*
X108608Y123283D01*
X108541Y123179D01*
X108482Y123083D01*
X108423Y123002D01*
X108371Y122935D01*
X108327Y122876D01*
X108290Y122839D01*
X108268Y122817D01*
X108260Y122809D01*
X108120Y122691D01*
X107972Y122587D01*
X107816Y122491D01*
X107661Y122417D01*
X107498Y122351D01*
X107335Y122291D01*
X107172Y122247D01*
X107017Y122210D01*
X106876Y122188D01*
X106736Y122166D01*
X106617Y122151D01*
X106514Y122136D01*
X106425D01*
X106358Y122129D01*
X106321D01*
X106307D01*
X106077Y122136D01*
X105863Y122158D01*
X105663Y122188D01*
X105470Y122232D01*
X105300Y122284D01*
X105137Y122343D01*
X104989Y122402D01*
X104864Y122469D01*
X104745Y122536D01*
X104642Y122595D01*
X104553Y122654D01*
X104479Y122706D01*
X104427Y122743D01*
X104383Y122780D01*
X104360Y122802D01*
X104353Y122809D01*
X104227Y122943D01*
X104116Y123083D01*
X104020Y123231D01*
X103939Y123379D01*
X103872Y123535D01*
X103813Y123683D01*
X103768Y123831D01*
X103731Y123971D01*
X103702Y124104D01*
X103680Y124230D01*
X103665Y124341D01*
X103650Y124437D01*
Y124511D01*
X103643Y124571D01*
Y124622D01*
X103650Y124844D01*
X103672Y125059D01*
X103709Y125244D01*
X103746Y125407D01*
X103768Y125473D01*
X103783Y125540D01*
X103798Y125592D01*
X103820Y125636D01*
X103828Y125673D01*
X103842Y125703D01*
X103850Y125718D01*
Y125725D01*
X103909Y125858D01*
X103983Y125984D01*
X104064Y126095D01*
X104138Y126191D01*
X104205Y126273D01*
X104264Y126339D01*
X104301Y126376D01*
X104309Y126384D01*
X104316Y126391D01*
X104434Y126495D01*
X104560Y126591D01*
X104671Y126672D01*
X104782Y126739D01*
X104878Y126791D01*
X104952Y126835D01*
X104982Y126842D01*
X105004Y126857D01*
X105012Y126865D01*
X105019D01*
X105226Y126939D01*
X105448Y126998D01*
X105670Y127035D01*
X105877Y127064D01*
X105974Y127072D01*
X106062Y127079D01*
X106136Y127087D01*
X106203D01*
X106262Y127094D01*
X106299D01*
X106329D01*
X106336D01*
X106558Y127087D01*
D02*
G37*
G36*
Y121522D02*
X106773Y121500D01*
X106973Y121470D01*
X107158Y121426D01*
X107328Y121374D01*
X107483Y121315D01*
X107631Y121255D01*
X107757Y121189D01*
X107875Y121130D01*
X107972Y121070D01*
X108060Y121011D01*
X108134Y120959D01*
X108186Y120915D01*
X108231Y120885D01*
X108253Y120863D01*
X108260Y120856D01*
X108386Y120723D01*
X108490Y120582D01*
X108586Y120441D01*
X108660Y120286D01*
X108726Y120138D01*
X108786Y119983D01*
X108830Y119842D01*
X108867Y119694D01*
X108897Y119561D01*
X108919Y119435D01*
X108934Y119324D01*
X108941Y119228D01*
X108948Y119154D01*
X108956Y119095D01*
Y119043D01*
X108948Y118836D01*
X108926Y118643D01*
X108889Y118458D01*
X108845Y118288D01*
X108793Y118125D01*
X108734Y117977D01*
X108675Y117844D01*
X108608Y117718D01*
X108541Y117615D01*
X108482Y117518D01*
X108423Y117437D01*
X108371Y117370D01*
X108327Y117311D01*
X108290Y117274D01*
X108268Y117252D01*
X108260Y117245D01*
X108120Y117126D01*
X107972Y117023D01*
X107816Y116926D01*
X107661Y116852D01*
X107498Y116786D01*
X107335Y116727D01*
X107172Y116682D01*
X107017Y116645D01*
X106876Y116623D01*
X106736Y116601D01*
X106617Y116586D01*
X106514Y116571D01*
X106425D01*
X106358Y116564D01*
X106321D01*
X106307D01*
X106077Y116571D01*
X105863Y116593D01*
X105663Y116623D01*
X105470Y116667D01*
X105300Y116719D01*
X105137Y116778D01*
X104989Y116838D01*
X104864Y116904D01*
X104745Y116971D01*
X104642Y117030D01*
X104553Y117089D01*
X104479Y117141D01*
X104427Y117178D01*
X104383Y117215D01*
X104360Y117237D01*
X104353Y117245D01*
X104227Y117378D01*
X104116Y117518D01*
X104020Y117666D01*
X103939Y117814D01*
X103872Y117970D01*
X103813Y118118D01*
X103768Y118266D01*
X103731Y118406D01*
X103702Y118540D01*
X103680Y118665D01*
X103665Y118776D01*
X103650Y118873D01*
Y118947D01*
X103643Y119006D01*
Y119058D01*
X103650Y119280D01*
X103672Y119494D01*
X103709Y119679D01*
X103746Y119842D01*
X103768Y119909D01*
X103783Y119975D01*
X103798Y120027D01*
X103820Y120071D01*
X103828Y120108D01*
X103842Y120138D01*
X103850Y120153D01*
Y120160D01*
X103909Y120293D01*
X103983Y120419D01*
X104064Y120530D01*
X104138Y120626D01*
X104205Y120708D01*
X104264Y120774D01*
X104301Y120811D01*
X104309Y120819D01*
X104316Y120826D01*
X104434Y120930D01*
X104560Y121026D01*
X104671Y121107D01*
X104782Y121174D01*
X104878Y121226D01*
X104952Y121270D01*
X104982Y121278D01*
X105004Y121292D01*
X105012Y121300D01*
X105019D01*
X105226Y121374D01*
X105448Y121433D01*
X105670Y121470D01*
X105877Y121500D01*
X105974Y121507D01*
X106062Y121514D01*
X106136Y121522D01*
X106203D01*
X106262Y121529D01*
X106299D01*
X106329D01*
X106336D01*
X106558Y121522D01*
D02*
G37*
G36*
X104605Y114595D02*
X108860D01*
Y113559D01*
X104605D01*
Y112050D01*
X103739D01*
Y116112D01*
X104605D01*
Y114595D01*
D02*
G37*
G36*
X31378Y141439D02*
X30423D01*
Y144813D01*
X28344Y141439D01*
X27308D01*
Y146559D01*
X28262D01*
Y143111D01*
X30379Y146559D01*
X31378D01*
Y141439D01*
D02*
G37*
G36*
X34856Y146648D02*
X35092Y146619D01*
X35196Y146596D01*
X35300Y146574D01*
X35396Y146552D01*
X35477Y146530D01*
X35551Y146500D01*
X35625Y146478D01*
X35677Y146456D01*
X35729Y146441D01*
X35766Y146419D01*
X35795Y146411D01*
X35810Y146397D01*
X35818D01*
X36047Y146263D01*
X36143Y146182D01*
X36239Y146108D01*
X36328Y146027D01*
X36410Y145945D01*
X36484Y145864D01*
X36550Y145790D01*
X36602Y145716D01*
X36654Y145649D01*
X36698Y145590D01*
X36735Y145538D01*
X36757Y145494D01*
X36780Y145464D01*
X36787Y145442D01*
X36794Y145435D01*
X36854Y145316D01*
X36905Y145198D01*
X36987Y144954D01*
X37046Y144709D01*
X37083Y144495D01*
X37098Y144391D01*
X37113Y144302D01*
X37120Y144221D01*
Y144147D01*
X37127Y144095D01*
Y144051D01*
Y144021D01*
Y144014D01*
X37113Y143740D01*
X37083Y143488D01*
X37031Y143259D01*
X37009Y143148D01*
X36979Y143052D01*
X36950Y142963D01*
X36928Y142882D01*
X36898Y142815D01*
X36876Y142756D01*
X36861Y142711D01*
X36846Y142674D01*
X36831Y142652D01*
Y142645D01*
X36706Y142423D01*
X36565Y142230D01*
X36417Y142060D01*
X36269Y141927D01*
X36202Y141868D01*
X36136Y141816D01*
X36084Y141772D01*
X36032Y141742D01*
X35995Y141712D01*
X35958Y141690D01*
X35943Y141683D01*
X35936Y141675D01*
X35818Y141616D01*
X35707Y141564D01*
X35462Y141483D01*
X35226Y141424D01*
X35011Y141387D01*
X34907Y141372D01*
X34819Y141357D01*
X34737Y141350D01*
X34663D01*
X34611Y141342D01*
X34530D01*
X34293Y141350D01*
X34071Y141379D01*
X33857Y141416D01*
X33672Y141461D01*
X33590Y141483D01*
X33516Y141505D01*
X33450Y141527D01*
X33390Y141542D01*
X33346Y141557D01*
X33316Y141572D01*
X33294Y141579D01*
X33287D01*
X33065Y141668D01*
X32880Y141764D01*
X32717Y141860D01*
X32576Y141942D01*
X32473Y142016D01*
X32436Y142045D01*
X32399Y142075D01*
X32377Y142097D01*
X32354Y142112D01*
X32340Y142127D01*
Y144184D01*
X34567D01*
Y143318D01*
X33383D01*
Y142660D01*
X33472Y142593D01*
X33568Y142534D01*
X33664Y142482D01*
X33753Y142438D01*
X33827Y142401D01*
X33894Y142371D01*
X33931Y142356D01*
X33938Y142349D01*
X33945D01*
X34064Y142304D01*
X34182Y142275D01*
X34293Y142253D01*
X34389Y142238D01*
X34478Y142230D01*
X34537Y142223D01*
X34597D01*
X34715Y142230D01*
X34833Y142245D01*
X34937Y142267D01*
X35041Y142297D01*
X35226Y142371D01*
X35300Y142408D01*
X35374Y142452D01*
X35440Y142497D01*
X35499Y142534D01*
X35544Y142578D01*
X35588Y142608D01*
X35618Y142637D01*
X35640Y142660D01*
X35655Y142674D01*
X35662Y142682D01*
X35729Y142771D01*
X35795Y142874D01*
X35847Y142978D01*
X35892Y143089D01*
X35966Y143318D01*
X36010Y143540D01*
X36025Y143644D01*
X36040Y143747D01*
X36047Y143829D01*
X36054Y143910D01*
X36062Y143969D01*
Y144021D01*
Y144051D01*
Y144058D01*
X36054Y144214D01*
X36047Y144354D01*
X36025Y144495D01*
X36003Y144621D01*
X35973Y144732D01*
X35936Y144835D01*
X35899Y144931D01*
X35862Y145020D01*
X35832Y145094D01*
X35795Y145161D01*
X35758Y145213D01*
X35729Y145257D01*
X35707Y145294D01*
X35684Y145316D01*
X35677Y145331D01*
X35670Y145338D01*
X35588Y145412D01*
X35507Y145486D01*
X35418Y145538D01*
X35329Y145590D01*
X35240Y145634D01*
X35152Y145671D01*
X34981Y145723D01*
X34900Y145738D01*
X34826Y145753D01*
X34759Y145760D01*
X34700Y145768D01*
X34656Y145775D01*
X34589D01*
X34426Y145768D01*
X34286Y145738D01*
X34160Y145708D01*
X34049Y145664D01*
X33968Y145627D01*
X33901Y145590D01*
X33864Y145560D01*
X33849Y145553D01*
X33746Y145464D01*
X33657Y145368D01*
X33583Y145272D01*
X33531Y145176D01*
X33487Y145087D01*
X33457Y145020D01*
X33442Y144976D01*
X33435Y144968D01*
Y144961D01*
X32406Y145153D01*
X32436Y145279D01*
X32480Y145405D01*
X32525Y145516D01*
X32584Y145620D01*
X32636Y145723D01*
X32695Y145812D01*
X32754Y145893D01*
X32813Y145967D01*
X32872Y146034D01*
X32924Y146093D01*
X32969Y146145D01*
X33013Y146182D01*
X33050Y146212D01*
X33080Y146241D01*
X33094Y146249D01*
X33102Y146256D01*
X33205Y146330D01*
X33316Y146389D01*
X33435Y146441D01*
X33561Y146485D01*
X33805Y146559D01*
X34042Y146604D01*
X34153Y146626D01*
X34256Y146633D01*
X34352Y146641D01*
X34434Y146648D01*
X34500Y146656D01*
X34589D01*
X34856Y146648D01*
D02*
G37*
G36*
X26212Y141439D02*
X24274D01*
X24074Y141446D01*
X23889Y141453D01*
X23733Y141468D01*
X23608Y141490D01*
X23504Y141513D01*
X23423Y141527D01*
X23400Y141535D01*
X23378D01*
X23371Y141542D01*
X23363D01*
X23201Y141601D01*
X23053Y141668D01*
X22934Y141735D01*
X22831Y141801D01*
X22749Y141860D01*
X22690Y141905D01*
X22653Y141934D01*
X22638Y141949D01*
X22512Y142090D01*
X22401Y142238D01*
X22305Y142393D01*
X22231Y142534D01*
X22172Y142667D01*
X22142Y142719D01*
X22128Y142763D01*
X22113Y142808D01*
X22098Y142837D01*
X22091Y142852D01*
Y142859D01*
X22039Y143037D01*
X21994Y143222D01*
X21965Y143400D01*
X21950Y143570D01*
X21943Y143651D01*
X21935Y143725D01*
Y143784D01*
X21928Y143844D01*
Y143888D01*
Y143918D01*
Y143940D01*
Y143947D01*
X21935Y144206D01*
X21957Y144436D01*
X21965Y144547D01*
X21980Y144643D01*
X21994Y144739D01*
X22009Y144820D01*
X22031Y144894D01*
X22046Y144961D01*
X22061Y145020D01*
X22068Y145065D01*
X22083Y145102D01*
X22091Y145131D01*
X22098Y145146D01*
Y145153D01*
X22165Y145331D01*
X22246Y145494D01*
X22327Y145634D01*
X22409Y145753D01*
X22475Y145849D01*
X22535Y145923D01*
X22572Y145967D01*
X22579Y145982D01*
X22586D01*
X22712Y146101D01*
X22838Y146197D01*
X22971Y146278D01*
X23090Y146345D01*
X23193Y146397D01*
X23282Y146434D01*
X23312Y146441D01*
X23334Y146448D01*
X23349Y146456D01*
X23356D01*
X23497Y146493D01*
X23652Y146515D01*
X23815Y146537D01*
X23970Y146545D01*
X24111Y146552D01*
X24170Y146559D01*
X26212D01*
Y141439D01*
D02*
G37*
G36*
X36543Y149439D02*
X34323D01*
X34197Y149446D01*
X33975D01*
X33886Y149453D01*
X33746D01*
X33694Y149461D01*
X33620D01*
X33590Y149468D01*
X33561D01*
X33413Y149490D01*
X33279Y149527D01*
X33161Y149564D01*
X33057Y149609D01*
X32976Y149646D01*
X32917Y149683D01*
X32880Y149705D01*
X32865Y149712D01*
X32761Y149794D01*
X32680Y149883D01*
X32599Y149964D01*
X32539Y150053D01*
X32488Y150127D01*
X32451Y150186D01*
X32428Y150223D01*
X32421Y150238D01*
X32369Y150364D01*
X32325Y150482D01*
X32295Y150600D01*
X32280Y150704D01*
X32266Y150793D01*
X32258Y150859D01*
Y150904D01*
Y150911D01*
Y150919D01*
X32266Y151081D01*
X32295Y151229D01*
X32340Y151355D01*
X32384Y151474D01*
X32428Y151562D01*
X32473Y151629D01*
X32502Y151673D01*
X32510Y151688D01*
X32613Y151807D01*
X32724Y151903D01*
X32850Y151984D01*
X32961Y152043D01*
X33065Y152095D01*
X33154Y152132D01*
X33183Y152140D01*
X33205Y152147D01*
X33220Y152154D01*
X33228D01*
X33109Y152221D01*
X33006Y152288D01*
X32917Y152369D01*
X32843Y152436D01*
X32791Y152502D01*
X32747Y152554D01*
X32717Y152591D01*
X32710Y152606D01*
X32643Y152724D01*
X32591Y152835D01*
X32562Y152946D01*
X32532Y153050D01*
X32517Y153139D01*
X32510Y153205D01*
Y153250D01*
Y153257D01*
Y153264D01*
X32517Y153383D01*
X32532Y153501D01*
X32562Y153597D01*
X32591Y153686D01*
X32621Y153760D01*
X32650Y153819D01*
X32665Y153849D01*
X32673Y153864D01*
X32732Y153960D01*
X32798Y154041D01*
X32865Y154115D01*
X32924Y154182D01*
X32983Y154226D01*
X33028Y154263D01*
X33057Y154286D01*
X33065Y154293D01*
X33154Y154352D01*
X33250Y154397D01*
X33339Y154434D01*
X33420Y154463D01*
X33494Y154485D01*
X33546Y154500D01*
X33583Y154508D01*
X33598D01*
X33723Y154522D01*
X33864Y154537D01*
X34012Y154545D01*
X34160Y154552D01*
X34293Y154559D01*
X36543D01*
Y149439D01*
D02*
G37*
G36*
X31903D02*
X30808D01*
X30386Y150600D01*
X28329D01*
X27885Y149439D01*
X26767D01*
X28825Y154559D01*
X29920D01*
X31903Y149439D01*
D02*
G37*
G36*
X26575Y153694D02*
X25058D01*
Y149439D01*
X24022D01*
Y153694D01*
X22512D01*
Y154559D01*
X26575D01*
Y153694D01*
D02*
G37*
%LPC*%
G36*
X105907Y80586D02*
X104605D01*
Y79402D01*
X104612Y79336D01*
Y79173D01*
X104619Y79106D01*
Y79062D01*
X104627Y79040D01*
Y79032D01*
X104649Y78943D01*
X104679Y78862D01*
X104708Y78795D01*
X104745Y78744D01*
X104782Y78699D01*
X104804Y78662D01*
X104827Y78648D01*
X104834Y78640D01*
X104893Y78596D01*
X104967Y78559D01*
X105034Y78536D01*
X105100Y78514D01*
X105160Y78507D01*
X105204Y78500D01*
X105234D01*
X105248D01*
X105330Y78507D01*
X105404Y78514D01*
X105470Y78536D01*
X105530Y78551D01*
X105574Y78574D01*
X105604Y78596D01*
X105626Y78603D01*
X105633Y78610D01*
X105685Y78655D01*
X105729Y78699D01*
X105796Y78795D01*
X105818Y78832D01*
X105833Y78869D01*
X105848Y78892D01*
Y78899D01*
X105855Y78936D01*
X105870Y78995D01*
X105877Y79054D01*
X105885Y79121D01*
X105892Y79276D01*
X105900Y79432D01*
X105907Y79580D01*
Y80586D01*
D02*
G37*
G36*
X105774Y131009D02*
X104590D01*
Y129980D01*
X104597Y129899D01*
Y129706D01*
X104605Y129662D01*
Y129580D01*
X104612Y129551D01*
Y129543D01*
X104627Y129455D01*
X104649Y129373D01*
X104679Y129307D01*
X104708Y129247D01*
X104738Y129210D01*
X104767Y129173D01*
X104782Y129159D01*
X104790Y129151D01*
X104849Y129107D01*
X104915Y129077D01*
X104975Y129048D01*
X105034Y129033D01*
X105093Y129025D01*
X105137Y129018D01*
X105167D01*
X105174D01*
X105263Y129025D01*
X105345Y129040D01*
X105411Y129070D01*
X105470Y129092D01*
X105522Y129122D01*
X105552Y129151D01*
X105574Y129166D01*
X105581Y129173D01*
X105633Y129233D01*
X105670Y129299D01*
X105700Y129366D01*
X105722Y129432D01*
X105744Y129499D01*
X105752Y129543D01*
X105759Y129573D01*
Y129617D01*
X105766Y129662D01*
Y129891D01*
X105774Y130017D01*
Y131009D01*
D02*
G37*
G36*
X107994D02*
X106625D01*
Y129936D01*
X106632Y129832D01*
X106640Y129743D01*
Y129654D01*
X106647Y129580D01*
X106654Y129514D01*
X106662Y129462D01*
X106669Y129410D01*
X106677Y129373D01*
X106684Y129314D01*
X106699Y129277D01*
Y129270D01*
X106728Y129196D01*
X106765Y129129D01*
X106802Y129070D01*
X106847Y129025D01*
X106876Y128988D01*
X106906Y128966D01*
X106928Y128951D01*
X106936Y128944D01*
X107002Y128907D01*
X107069Y128877D01*
X107128Y128855D01*
X107195Y128840D01*
X107246Y128833D01*
X107291Y128826D01*
X107320D01*
X107328D01*
X107424Y128833D01*
X107513Y128848D01*
X107587Y128870D01*
X107646Y128900D01*
X107698Y128929D01*
X107735Y128951D01*
X107757Y128966D01*
X107764Y128974D01*
X107816Y129033D01*
X107861Y129092D01*
X107898Y129159D01*
X107927Y129218D01*
X107942Y129270D01*
X107957Y129314D01*
X107964Y129344D01*
Y129351D01*
X107972Y129381D01*
Y129425D01*
X107979Y129521D01*
X107986Y129640D01*
Y129758D01*
X107994Y129869D01*
Y131009D01*
D02*
G37*
G36*
X106381Y126028D02*
X106336D01*
X106307D01*
X106299D01*
X106136Y126021D01*
X105988Y126014D01*
X105848Y125991D01*
X105715Y125969D01*
X105596Y125940D01*
X105485Y125910D01*
X105389Y125873D01*
X105300Y125836D01*
X105219Y125799D01*
X105152Y125762D01*
X105100Y125732D01*
X105049Y125703D01*
X105012Y125681D01*
X104989Y125658D01*
X104975Y125651D01*
X104967Y125644D01*
X104886Y125570D01*
X104819Y125488D01*
X104760Y125399D01*
X104708Y125318D01*
X104664Y125229D01*
X104634Y125140D01*
X104575Y124978D01*
X104545Y124830D01*
X104538Y124770D01*
X104531Y124711D01*
X104523Y124667D01*
Y124608D01*
X104531Y124489D01*
X104545Y124378D01*
X104560Y124275D01*
X104590Y124178D01*
X104664Y124008D01*
X104701Y123927D01*
X104738Y123860D01*
X104782Y123794D01*
X104819Y123742D01*
X104856Y123697D01*
X104893Y123653D01*
X104923Y123623D01*
X104938Y123601D01*
X104952Y123594D01*
X104960Y123586D01*
X105049Y123520D01*
X105145Y123453D01*
X105241Y123401D01*
X105352Y123357D01*
X105574Y123290D01*
X105789Y123246D01*
X105885Y123224D01*
X105981Y123216D01*
X106062Y123209D01*
X106136Y123202D01*
X106203Y123194D01*
X106247D01*
X106277D01*
X106284D01*
X106447Y123202D01*
X106603Y123209D01*
X106743Y123231D01*
X106869Y123253D01*
X106995Y123283D01*
X107106Y123320D01*
X107202Y123357D01*
X107291Y123394D01*
X107372Y123431D01*
X107439Y123468D01*
X107498Y123498D01*
X107550Y123535D01*
X107587Y123557D01*
X107609Y123579D01*
X107624Y123586D01*
X107631Y123594D01*
X107713Y123668D01*
X107779Y123749D01*
X107838Y123838D01*
X107890Y123919D01*
X107927Y124008D01*
X107964Y124090D01*
X108016Y124252D01*
X108053Y124393D01*
X108060Y124452D01*
X108068Y124504D01*
X108075Y124548D01*
Y124608D01*
X108068Y124719D01*
X108053Y124830D01*
X108031Y124933D01*
X108001Y125029D01*
X107935Y125207D01*
X107846Y125348D01*
X107809Y125414D01*
X107764Y125466D01*
X107727Y125518D01*
X107690Y125555D01*
X107668Y125584D01*
X107646Y125607D01*
X107631Y125621D01*
X107624Y125629D01*
X107535Y125695D01*
X107439Y125762D01*
X107335Y125814D01*
X107224Y125858D01*
X107010Y125932D01*
X106795Y125977D01*
X106691Y125991D01*
X106603Y126006D01*
X106514Y126014D01*
X106440Y126021D01*
X106381Y126028D01*
D02*
G37*
G36*
Y120464D02*
X106336D01*
X106307D01*
X106299D01*
X106136Y120456D01*
X105988Y120449D01*
X105848Y120427D01*
X105715Y120404D01*
X105596Y120375D01*
X105485Y120345D01*
X105389Y120308D01*
X105300Y120271D01*
X105219Y120234D01*
X105152Y120197D01*
X105100Y120168D01*
X105049Y120138D01*
X105012Y120116D01*
X104989Y120094D01*
X104975Y120086D01*
X104967Y120079D01*
X104886Y120005D01*
X104819Y119923D01*
X104760Y119835D01*
X104708Y119753D01*
X104664Y119664D01*
X104634Y119576D01*
X104575Y119413D01*
X104545Y119265D01*
X104538Y119206D01*
X104531Y119146D01*
X104523Y119102D01*
Y119043D01*
X104531Y118924D01*
X104545Y118813D01*
X104560Y118710D01*
X104590Y118614D01*
X104664Y118443D01*
X104701Y118362D01*
X104738Y118295D01*
X104782Y118229D01*
X104819Y118177D01*
X104856Y118133D01*
X104893Y118088D01*
X104923Y118059D01*
X104938Y118036D01*
X104952Y118029D01*
X104960Y118022D01*
X105049Y117955D01*
X105145Y117888D01*
X105241Y117837D01*
X105352Y117792D01*
X105574Y117726D01*
X105789Y117681D01*
X105885Y117659D01*
X105981Y117652D01*
X106062Y117644D01*
X106136Y117637D01*
X106203Y117629D01*
X106247D01*
X106277D01*
X106284D01*
X106447Y117637D01*
X106603Y117644D01*
X106743Y117666D01*
X106869Y117689D01*
X106995Y117718D01*
X107106Y117755D01*
X107202Y117792D01*
X107291Y117829D01*
X107372Y117866D01*
X107439Y117903D01*
X107498Y117933D01*
X107550Y117970D01*
X107587Y117992D01*
X107609Y118014D01*
X107624Y118022D01*
X107631Y118029D01*
X107713Y118103D01*
X107779Y118184D01*
X107838Y118273D01*
X107890Y118355D01*
X107927Y118443D01*
X107964Y118525D01*
X108016Y118688D01*
X108053Y118828D01*
X108060Y118887D01*
X108068Y118939D01*
X108075Y118984D01*
Y119043D01*
X108068Y119154D01*
X108053Y119265D01*
X108031Y119368D01*
X108001Y119465D01*
X107935Y119642D01*
X107846Y119783D01*
X107809Y119849D01*
X107764Y119901D01*
X107727Y119953D01*
X107690Y119990D01*
X107668Y120020D01*
X107646Y120042D01*
X107631Y120057D01*
X107624Y120064D01*
X107535Y120131D01*
X107439Y120197D01*
X107335Y120249D01*
X107224Y120293D01*
X107010Y120367D01*
X106795Y120412D01*
X106691Y120427D01*
X106603Y120441D01*
X106514Y120449D01*
X106440Y120456D01*
X106381Y120464D01*
D02*
G37*
G36*
X25176Y145694D02*
X24503D01*
X24407Y145686D01*
X24318D01*
X24244Y145679D01*
X24177D01*
X24111Y145671D01*
X24059D01*
X23978Y145657D01*
X23918Y145649D01*
X23881Y145642D01*
X23874D01*
X23770Y145612D01*
X23682Y145575D01*
X23600Y145538D01*
X23526Y145494D01*
X23474Y145457D01*
X23430Y145427D01*
X23408Y145405D01*
X23400Y145398D01*
X23334Y145324D01*
X23275Y145242D01*
X23223Y145161D01*
X23178Y145087D01*
X23149Y145013D01*
X23127Y144954D01*
X23112Y144917D01*
X23104Y144909D01*
Y144902D01*
X23067Y144769D01*
X23038Y144628D01*
X23023Y144473D01*
X23008Y144325D01*
X23001Y144199D01*
X22993Y144140D01*
Y144088D01*
Y144051D01*
Y144021D01*
Y143999D01*
Y143992D01*
X23001Y143784D01*
X23008Y143592D01*
X23030Y143437D01*
X23045Y143303D01*
X23067Y143192D01*
X23075Y143148D01*
X23090Y143118D01*
X23097Y143089D01*
Y143067D01*
X23104Y143059D01*
Y143052D01*
X23149Y142933D01*
X23186Y142830D01*
X23238Y142748D01*
X23275Y142682D01*
X23312Y142630D01*
X23341Y142593D01*
X23363Y142571D01*
X23371Y142563D01*
X23437Y142512D01*
X23504Y142467D01*
X23571Y142430D01*
X23637Y142401D01*
X23696Y142378D01*
X23741Y142364D01*
X23770Y142349D01*
X23785D01*
X23867Y142334D01*
X23963Y142327D01*
X24066Y142312D01*
X24170D01*
X24266Y142304D01*
X25176D01*
Y145694D01*
D02*
G37*
G36*
X35507Y153708D02*
X34478D01*
X34397Y153701D01*
X34204D01*
X34160Y153694D01*
X34079D01*
X34049Y153686D01*
X34042D01*
X33953Y153671D01*
X33871Y153649D01*
X33805Y153620D01*
X33746Y153590D01*
X33709Y153560D01*
X33672Y153531D01*
X33657Y153516D01*
X33649Y153509D01*
X33605Y153449D01*
X33575Y153383D01*
X33546Y153324D01*
X33531Y153264D01*
X33524Y153205D01*
X33516Y153161D01*
Y153131D01*
Y153124D01*
X33524Y153035D01*
X33538Y152954D01*
X33568Y152887D01*
X33590Y152828D01*
X33620Y152776D01*
X33649Y152746D01*
X33664Y152724D01*
X33672Y152717D01*
X33731Y152665D01*
X33797Y152628D01*
X33864Y152598D01*
X33931Y152576D01*
X33997Y152554D01*
X34042Y152547D01*
X34071Y152539D01*
X34116D01*
X34160Y152532D01*
X34389D01*
X34515Y152524D01*
X35507D01*
Y153708D01*
D02*
G37*
G36*
Y151673D02*
X34434D01*
X34330Y151666D01*
X34241Y151659D01*
X34153D01*
X34079Y151651D01*
X34012Y151644D01*
X33960Y151636D01*
X33908Y151629D01*
X33871Y151622D01*
X33812Y151614D01*
X33775Y151599D01*
X33768D01*
X33694Y151570D01*
X33627Y151533D01*
X33568Y151496D01*
X33524Y151451D01*
X33487Y151422D01*
X33464Y151392D01*
X33450Y151370D01*
X33442Y151363D01*
X33405Y151296D01*
X33376Y151229D01*
X33353Y151170D01*
X33339Y151104D01*
X33331Y151052D01*
X33324Y151007D01*
Y150978D01*
Y150970D01*
X33331Y150874D01*
X33346Y150785D01*
X33368Y150711D01*
X33398Y150652D01*
X33427Y150600D01*
X33450Y150563D01*
X33464Y150541D01*
X33472Y150534D01*
X33531Y150482D01*
X33590Y150438D01*
X33657Y150401D01*
X33716Y150371D01*
X33768Y150356D01*
X33812Y150341D01*
X33842Y150334D01*
X33849D01*
X33879Y150327D01*
X33923D01*
X34019Y150319D01*
X34138Y150312D01*
X34256D01*
X34367Y150304D01*
X35507D01*
Y151673D01*
D02*
G37*
G36*
X29380Y153368D02*
X28662Y151466D01*
X30075D01*
X29380Y153368D01*
D02*
G37*
%LPD*%
D11*
X30709Y36220D02*
X30740Y42752D01*
X95245Y36220D02*
X95276Y42752D01*
X27559Y36220D02*
X98425D01*
X27559Y60866D02*
X38582D01*
X27559D02*
X27559Y36220D01*
X98425Y60866D02*
X98425Y36220D01*
X87401Y60866D02*
X98425D01*
X104331Y1969D02*
Y21654D01*
X124016D01*
Y1969D02*
Y21654D01*
X104331Y1969D02*
X124016D01*
X111998Y44007D02*
X112098Y42307D01*
X111998Y44007D02*
X112698Y43407D01*
X112498Y42807D02*
X112698Y43407D01*
X8012Y54725D02*
X13032D01*
X2012Y28370D02*
Y50370D01*
X8012Y24017D02*
X12991D01*
X13012Y24037D02*
Y28370D01*
X12991Y24017D02*
X13012Y24037D01*
Y54705D02*
X13032Y54725D01*
X13012Y50370D02*
Y54705D01*
Y33870D02*
Y44870D01*
X-1488Y33370D02*
X2012D01*
X-1488D02*
Y45370D01*
X2012D01*
X121923Y109888D02*
X124803D01*
X121923Y134691D02*
X124803D01*
X109843Y109888D02*
X113123D01*
X109843Y134691D02*
X113123D01*
X124803Y109888D02*
Y134691D01*
X109843Y109888D02*
Y134691D01*
X112323Y115047D02*
X115223D01*
X112323D02*
Y129047D01*
X115223D01*
X121323Y119147D02*
Y125047D01*
X116723Y122047D02*
X119323D01*
X112323D02*
X114923D01*
X121923Y62644D02*
X124803D01*
X121923Y87447D02*
X124803D01*
X109843Y62644D02*
X113123D01*
X109843Y87447D02*
X113123D01*
X124803Y62644D02*
Y87447D01*
X109843Y62644D02*
Y87447D01*
X112323Y67803D02*
X115223D01*
X112323D02*
Y81803D01*
X115223D01*
X121323Y71903D02*
Y77803D01*
X116723Y74803D02*
X119323D01*
X112323D02*
X114923D01*
X18985Y27746D02*
X20685Y27847D01*
X18985Y27746D02*
X19585Y28446D01*
X20185Y28247D01*
X93020Y32496D02*
X93120Y30796D01*
X92420Y31396D02*
X93120Y30796D01*
X92420Y31396D02*
X92620Y31996D01*
X18685Y46957D02*
X20385Y47057D01*
X19785Y46357D02*
X20385Y47057D01*
X19185Y46557D02*
X19785Y46357D01*
X53650Y145095D02*
X53750Y143394D01*
X53050Y143994D02*
X53750Y143394D01*
X53050Y143994D02*
X53250Y144595D01*
X91920Y25897D02*
X92020Y24197D01*
X91920Y25897D02*
X92620Y25297D01*
X92420Y24697D02*
X92620Y25297D01*
X53650Y152181D02*
X53750Y150481D01*
X53050Y151081D02*
X53750Y150481D01*
X53050Y151081D02*
X53250Y151681D01*
X98150Y146457D02*
Y156181D01*
X103150Y146181D02*
Y155905D01*
X108150Y146181D02*
Y156181D01*
X113650Y146181D02*
Y156181D01*
X92650Y146181D02*
X113650D01*
X92650D02*
Y156181D01*
X113650D01*
X111650Y146181D02*
X113650Y148181D01*
X10842Y106526D02*
X16912D01*
X-4233D02*
X1164D01*
X10817Y70866D02*
X16937D01*
X26574Y103617D02*
Y103766D01*
Y103272D02*
Y103617D01*
Y73400D02*
Y73893D01*
X-4233Y70866D02*
Y106526D01*
Y70866D02*
X1189D01*
X86296Y64930D02*
X88962D01*
X86296Y67596D01*
Y68262D01*
X86963Y68928D01*
X88296D01*
X88962Y68262D01*
X82964Y64930D02*
Y68928D01*
X84964Y66929D01*
X82298D01*
X41021Y64930D02*
X39688D01*
X40354D01*
Y68928D01*
X41021Y68262D01*
D42*
X59055Y91764D02*
G03*
X57055Y89764I0J-2000D01*
G01*
X57055D02*
G03*
X59055Y87764I2000J-0D01*
G01*
X33858Y132252D02*
G03*
X35858Y134252I0J2000D01*
G01*
X31858Y134252D02*
G03*
X33858Y132252I2000J0D01*
G01*
X59055Y91764D02*
Y95764D01*
Y83764D02*
Y87764D01*
X35858Y134252D02*
X39858D01*
X27858D02*
X31858D01*
D71*
X31158Y22134D02*
Y33748D01*
X36558D01*
Y22134D02*
Y33748D01*
X31158Y22134D02*
X36558D01*
X37333Y89113D02*
Y96713D01*
X33533D02*
X37333D01*
X33533Y89113D02*
Y96713D01*
Y89113D02*
X37333D01*
X91551Y90776D02*
X93996D01*
X91551Y87176D02*
X93996D01*
Y90776D01*
X87106Y87176D02*
X89551D01*
X87106Y90776D02*
X89551D01*
X87106Y87176D02*
Y90776D01*
X100213Y70698D02*
X102657D01*
X100213Y67098D02*
X102657D01*
Y70698D01*
X95768Y67098D02*
X98213D01*
X95768Y70698D02*
X98213D01*
X95768Y67098D02*
Y70698D01*
X95768Y87176D02*
X98213D01*
X95768Y90776D02*
X98213D01*
X95768Y87176D02*
Y90776D01*
X100213D02*
X102657D01*
X100213Y87176D02*
X102657D01*
Y90776D01*
X2499Y5837D02*
X10099D01*
X2499Y2037D02*
Y5837D01*
Y2037D02*
X10099D01*
Y5837D01*
X12735Y2037D02*
X20335D01*
Y5837D01*
X12735D02*
X20335D01*
X12735Y2037D02*
Y5837D01*
X111698Y41607D02*
X113298Y43207D01*
Y41307D02*
Y45307D01*
X111698Y45107D02*
X113298Y43407D01*
X111698Y41607D02*
Y45107D01*
X37570Y31386D02*
X41170D01*
Y28941D02*
Y31386D01*
X37570Y28941D02*
Y31386D01*
Y24496D02*
X41170D01*
X37570D02*
Y26941D01*
X41170Y24496D02*
Y26941D01*
X6206Y59124D02*
Y62924D01*
X13806D01*
Y59124D02*
Y62924D01*
X6206Y59124D02*
X13806D01*
X102344Y101346D02*
X104890Y98801D01*
X103161Y97072D02*
X104890Y98801D01*
X100615Y99618D02*
X102344Y101346D01*
X97473Y96475D02*
X100018Y93929D01*
X97473Y96475D02*
X99201Y98203D01*
X100018Y93929D02*
X101747Y95658D01*
X60465Y133483D02*
X63010Y130937D01*
X60465Y133483D02*
X62193Y135211D01*
X63010Y130937D02*
X64739Y132666D01*
X65336Y138354D02*
X67882Y135809D01*
X66153Y134080D02*
X67882Y135809D01*
X63608Y136626D02*
X65336Y138354D01*
X94945Y139200D02*
Y142800D01*
X92500Y139200D02*
X94945D01*
X92500Y142800D02*
X94945D01*
X88055Y139200D02*
Y142800D01*
X90500D01*
X88055Y139200D02*
X90500D01*
X102344Y130937D02*
X104890Y133483D01*
X100615Y132666D02*
X102344Y130937D01*
X103161Y135211D02*
X104890Y133483D01*
X97473Y135809D02*
X100018Y138354D01*
X101747Y136626D01*
X97473Y135809D02*
X99201Y134080D01*
X65336Y93929D02*
X67882Y96475D01*
X63608Y95658D02*
X65336Y93929D01*
X66153Y98203D02*
X67882Y96475D01*
X60465Y98801D02*
X63010Y101346D01*
X64739Y99618D01*
X60465Y98801D02*
X62193Y97072D01*
X56468Y31386D02*
X60068D01*
Y28941D02*
Y31386D01*
X56468Y28941D02*
Y31386D01*
Y24496D02*
X60068D01*
X56468D02*
Y26941D01*
X60068Y24496D02*
Y26941D01*
X102924Y24114D02*
X106524D01*
X102924D02*
Y26559D01*
X106524Y24114D02*
Y26559D01*
X102924Y31004D02*
X106524D01*
Y28559D02*
Y31004D01*
X102924Y28559D02*
Y31004D01*
X19785Y29046D02*
X21385Y27446D01*
X17685Y29046D02*
X21685D01*
X17885Y27446D02*
X19585Y29046D01*
X17885Y27446D02*
X21385D01*
X17785Y17580D02*
X21585D01*
Y9979D02*
Y17580D01*
X17785Y9979D02*
X21585D01*
X17785D02*
Y17580D01*
X70641Y31386D02*
X74241D01*
Y28941D02*
Y31386D01*
X70641Y28941D02*
Y31386D01*
Y24496D02*
X74241D01*
X70641D02*
Y26941D01*
X74241Y24496D02*
Y26941D01*
X75365Y31386D02*
X78965D01*
Y28941D02*
Y31386D01*
X75365Y28941D02*
Y31386D01*
Y24496D02*
X78965D01*
X75365D02*
Y26941D01*
X78965Y24496D02*
Y26941D01*
X51743Y31386D02*
X55343D01*
Y28941D02*
Y31386D01*
X51743Y28941D02*
Y31386D01*
Y24496D02*
X55343D01*
X51743D02*
Y26941D01*
X55343Y24496D02*
Y26941D01*
X91820Y31596D02*
X93420Y33196D01*
X91820Y29496D02*
Y33496D01*
Y31396D02*
X93420Y29696D01*
Y33196D01*
X17985Y47357D02*
X19585Y45757D01*
X17685D02*
X21685D01*
X19785D02*
X21485Y47357D01*
X17985D02*
X21485D01*
X23485Y59124D02*
Y62924D01*
X15885Y59124D02*
X23485D01*
X15885D02*
Y62924D01*
X23485D01*
X65917Y31386D02*
X69516D01*
Y28941D02*
Y31386D01*
X65917Y28941D02*
Y31386D01*
Y24496D02*
X69516D01*
X65917D02*
Y26941D01*
X69516Y24496D02*
Y26941D01*
X26447Y31741D02*
X30246D01*
Y24141D02*
Y31741D01*
X26447Y24141D02*
X30246D01*
X26447D02*
Y31741D01*
X61192Y31386D02*
X64792D01*
Y28941D02*
Y31386D01*
X61192Y28941D02*
Y31386D01*
Y24496D02*
X64792D01*
X61192D02*
Y26941D01*
X64792Y24496D02*
Y26941D01*
X80090Y31386D02*
X83690D01*
Y28941D02*
Y31386D01*
X80090Y28941D02*
Y31386D01*
Y24496D02*
X83690D01*
X80090D02*
Y26941D01*
X83690Y24496D02*
Y26941D01*
X55287Y113681D02*
X58887D01*
Y111236D02*
Y113681D01*
X55287Y111236D02*
Y113681D01*
Y106791D02*
X58887D01*
X55287D02*
Y109236D01*
X58887Y106791D02*
Y109236D01*
X52450Y144194D02*
X54050Y145794D01*
X52450Y142095D02*
Y146095D01*
Y143994D02*
X54050Y142295D01*
Y145794D01*
X42195Y31741D02*
X45994D01*
Y24141D02*
Y31741D01*
X42195Y24141D02*
X45994D01*
X42195D02*
Y31741D01*
X102924Y31988D02*
X106524D01*
X102924D02*
Y34433D01*
X106524Y31988D02*
Y34433D01*
X102924Y38878D02*
X106524D01*
Y36433D02*
Y38878D01*
X102924Y36433D02*
Y38878D01*
X46919Y31741D02*
X50719D01*
Y24141D02*
Y31741D01*
X46919Y24141D02*
X50719D01*
X46919D02*
Y31741D01*
X91620Y23497D02*
X93220Y25097D01*
Y23197D02*
Y27197D01*
X91620Y26997D02*
X93220Y25297D01*
X91620Y23497D02*
Y26997D01*
X49350Y135895D02*
Y139695D01*
X56950D01*
Y135895D02*
Y139695D01*
X49350Y135895D02*
X56950D01*
X111300Y48600D02*
Y52400D01*
X103700Y48600D02*
X111300D01*
X103700D02*
Y52400D01*
X111300D01*
X115885Y149281D02*
Y153081D01*
X123485D01*
Y149281D02*
Y153081D01*
X115885Y149281D02*
X123485D01*
X9154Y132846D02*
Y136446D01*
X11598D01*
X9154Y132846D02*
X11598D01*
X16043D02*
Y136446D01*
X13598Y132846D02*
X16043D01*
X13598Y136446D02*
X16043D01*
X33633Y79035D02*
X37233D01*
Y76591D02*
Y79035D01*
X33633Y76591D02*
Y79035D01*
Y72146D02*
X37233D01*
X33633D02*
Y74590D01*
X37233Y72146D02*
Y74590D01*
X8798Y123297D02*
Y127097D01*
X16398D01*
Y123297D02*
Y127097D01*
X8798Y123297D02*
X16398D01*
X16043Y118672D02*
Y122272D01*
X13598Y118672D02*
X16043D01*
X13598Y122272D02*
X16043D01*
X9154Y118672D02*
Y122272D01*
X11598D01*
X9154Y118672D02*
X11598D01*
X8798Y113848D02*
Y117648D01*
X16398D01*
Y113848D02*
Y117648D01*
X8798Y113848D02*
X16398D01*
X2425Y127200D02*
Y137800D01*
Y127200D02*
X7025D01*
X3700Y132900D02*
X5700D01*
X4700Y131900D02*
X5700Y132900D01*
X3700D02*
X4700Y131900D01*
X7025Y127200D02*
Y137800D01*
X2425D02*
X7025D01*
X3225Y126400D02*
X6225D01*
X33633Y98130D02*
X37233D01*
X33633D02*
Y100575D01*
X37233Y98130D02*
Y100575D01*
X33633Y105020D02*
X37233D01*
Y102575D02*
Y105020D01*
X33633Y102575D02*
Y105019D01*
X33533Y88052D02*
X37333D01*
Y80452D02*
Y88052D01*
X33533Y80452D02*
X37333D01*
X33533D02*
Y88052D01*
X8798Y128021D02*
Y131821D01*
X16398D01*
Y128021D02*
Y131821D01*
X8798Y128021D02*
X16398D01*
X123130Y97019D02*
Y100619D01*
X120685Y97019D02*
X123130D01*
X120685Y100619D02*
X123130D01*
X116240Y97019D02*
Y100619D01*
X118685D01*
X116240Y97019D02*
X118685D01*
X2425Y114700D02*
Y125300D01*
Y114700D02*
X7025D01*
X3700Y120400D02*
X5700D01*
X4700Y119400D02*
X5700Y120400D01*
X3700D02*
X4700Y119400D01*
X7025Y114700D02*
Y125300D01*
X2425D02*
X7025D01*
X3225Y113900D02*
X6225D01*
X37445Y66700D02*
Y70300D01*
X35000Y66700D02*
X37445D01*
X35000Y70300D02*
X37445D01*
X30555Y66700D02*
Y70300D01*
X33000D01*
X30555Y66700D02*
X33000D01*
X39600Y155800D02*
X43400D01*
Y148200D02*
Y155800D01*
X39600Y148200D02*
X43400D01*
X39600D02*
Y155800D01*
Y146800D02*
X43400D01*
Y139200D02*
Y146800D01*
X39600Y139200D02*
X43400D01*
X39600D02*
Y146800D01*
X52450Y151281D02*
X54050Y152881D01*
X52450Y149181D02*
Y153181D01*
Y151081D02*
X54050Y149381D01*
Y152881D01*
X113200Y52799D02*
X123800D01*
X113200Y48199D02*
Y52799D01*
X118900Y49525D02*
Y51525D01*
X117900Y50525D02*
X118900Y49525D01*
X117900Y50525D02*
X118900Y51525D01*
X113200Y48199D02*
X123800D01*
Y52799D01*
X112400Y49000D02*
Y52000D01*
D102*
X61821Y79764D02*
G03*
X61821Y79764I-608J0D01*
G01*
X44467Y136409D02*
G03*
X44467Y136409I-608J0D01*
G01*
D103*
X99705Y85827D02*
G03*
X99705Y85827I-492J0D01*
G01*
X99311Y129724D02*
G03*
X99311Y129724I-492J0D01*
G01*
X120768Y38583D02*
G03*
X120768Y38583I-492J0D01*
G01*
X13287Y20866D02*
G03*
X13287Y20866I-492J0D01*
G01*
X66437Y140945D02*
G03*
X66437Y140945I-492J0D01*
G01*
D104*
X90354Y122638D02*
G03*
X90354Y122638I-1181J0D01*
G01*
D105*
X18437Y138823D02*
Y156453D01*
X591D02*
X20437D01*
Y138823D02*
Y156453D01*
X591Y138823D02*
X20437D01*
X591D02*
Y156453D01*
X7937Y144323D02*
Y150323D01*
X14437D01*
Y144323D02*
Y150323D01*
X7937Y144323D02*
X14437D01*
X39370Y83764D02*
Y95764D01*
X59055D01*
X39370Y83764D02*
X59055D01*
X93307Y72638D02*
Y84842D01*
X95669Y72638D02*
Y84842D01*
X93307Y72638D02*
X95669D01*
X93307Y84842D02*
X95669D01*
X93110Y105709D02*
Y126575D01*
X72244Y105709D02*
Y126575D01*
X93110D01*
X72244Y105709D02*
X93110D01*
X27858Y114567D02*
X39858D01*
X27858D02*
Y134252D01*
X39858Y114567D02*
Y134252D01*
X113386Y25591D02*
Y28740D01*
Y25591D02*
X116142D01*
X113386Y34252D02*
Y37402D01*
X116142D01*
X5906Y7874D02*
Y11024D01*
Y7874D02*
X8661D01*
X5906Y16535D02*
Y19685D01*
X8661D01*
X72835Y150787D02*
Y153937D01*
X70079D02*
X72835D01*
Y142126D02*
Y145276D01*
X70079Y142126D02*
X72835D01*
D106*
X120898Y42107D02*
Y44607D01*
X119198Y46307D02*
X120898Y44607D01*
X115998Y46307D02*
X119198D01*
X115998Y40307D02*
X119098D01*
X120898Y42107D01*
X104298Y40307D02*
X109498D01*
X104298Y46307D02*
X109498D01*
X104298Y40307D02*
Y46307D01*
X18385Y36647D02*
X20885D01*
X16685Y34947D02*
X18385Y36647D01*
X16685Y31747D02*
Y34947D01*
X22685Y31747D02*
Y34846D01*
X20885Y36647D02*
X22685Y34846D01*
Y20046D02*
Y25247D01*
X16685Y20046D02*
Y25247D01*
Y20046D02*
X22685D01*
X84220Y30196D02*
Y32696D01*
Y30196D02*
X85920Y28496D01*
X89120D01*
X86020Y34496D02*
X89120D01*
X84220Y32696D02*
X86020Y34496D01*
X95620D02*
X100820D01*
X95620Y28496D02*
X100820D01*
Y34496D01*
X18485Y38157D02*
X20985D01*
X22685Y39857D01*
Y43057D01*
X16685Y39957D02*
Y43057D01*
Y39957D02*
X18485Y38157D01*
X16685Y49557D02*
Y54757D01*
X22685Y49557D02*
Y54757D01*
X16685D02*
X22685D01*
X44850Y142795D02*
Y145294D01*
Y142795D02*
X46550Y141095D01*
X49750D01*
X46650Y147095D02*
X49750D01*
X44850Y145294D02*
X46650Y147095D01*
X56250D02*
X61450D01*
X56250Y141095D02*
X61450D01*
Y147095D01*
X100820Y23997D02*
Y26497D01*
X99120Y28197D02*
X100820Y26497D01*
X95920Y28197D02*
X99120D01*
X95920Y22197D02*
X99020D01*
X100820Y23997D01*
X84220Y22197D02*
X89420D01*
X84220Y28197D02*
X89420D01*
X84220Y22197D02*
Y28197D01*
X44850Y149881D02*
Y152381D01*
Y149881D02*
X46550Y148181D01*
X49750D01*
X46650Y154181D02*
X49750D01*
X44850Y152381D02*
X46650Y154181D01*
X56250D02*
X61450D01*
X56250Y148181D02*
X61450D01*
Y154181D01*
M02*
