G04*
G04 #@! TF.GenerationSoftware,Altium Limited,Altium Designer,23.4.1 (23)*
G04*
G04 Layer_Physical_Order=3*
G04 Layer_Color=128*
%FSLAX25Y25*%
%MOIN*%
G70*
G04*
G04 #@! TF.SameCoordinates,517BF390-C1E0-4631-B7DD-1789FC60F1BE*
G04*
G04*
G04 #@! TF.FilePolarity,Negative*
G04*
G01*
G75*
%ADD29C,0.04000*%
%ADD30C,0.05969*%
%ADD31C,0.07543*%
G04:AMPARAMS|DCode=32|XSize=83.622mil|YSize=83.622mil|CornerRadius=0mil|HoleSize=0mil|Usage=FLASHONLY|Rotation=0.000|XOffset=0mil|YOffset=0mil|HoleType=Round|Shape=Relief|Width=10mil|Gap=10mil|Entries=4|*
%AMTHD32*
7,0,0,0.08362,0.06362,0.01000,45*
%
%ADD32THD32*%
%ADD33C,0.06362*%
%ADD36C,0.06953*%
%ADD37C,0.05200*%
G04:AMPARAMS|DCode=38|XSize=72mil|YSize=72mil|CornerRadius=0mil|HoleSize=0mil|Usage=FLASHONLY|Rotation=0.000|XOffset=0mil|YOffset=0mil|HoleType=Round|Shape=Relief|Width=10mil|Gap=10mil|Entries=4|*
%AMTHD38*
7,0,0,0.07200,0.05200,0.01000,45*
%
%ADD38THD38*%
G04:AMPARAMS|DCode=39|XSize=79.685mil|YSize=79.685mil|CornerRadius=0mil|HoleSize=0mil|Usage=FLASHONLY|Rotation=0.000|XOffset=0mil|YOffset=0mil|HoleType=Round|Shape=Relief|Width=10mil|Gap=10mil|Entries=4|*
%AMTHD39*
7,0,0,0.07969,0.05969,0.01000,45*
%
%ADD39THD39*%
%AMTHOVALD40*
21,1,0.04331,0.08756,0,0,360.0*
1,1,0.08756,-0.02165,0.00000*
1,1,0.08756,0.02165,0.00000*
21,0,0.04331,0.06756,0,0,360.0*
1,0,0.06756,-0.02165,0.00000*
1,0,0.06756,0.02165,0.00000*
4,0,4,-0.01812,-0.00354,-0.04908,-0.03449,-0.05615,-0.02742,-0.02519,0.00354,-0.01812,-0.00354,0.0*
4,0,4,0.02519,-0.00354,0.05615,0.02742,0.04908,0.03449,0.01812,0.00354,0.02519,-0.00354,0.0*
4,0,4,-0.02519,-0.00354,-0.05615,0.02742,-0.04908,0.03449,-0.01812,0.00354,-0.02519,-0.00354,0.0*
4,0,4,0.01812,-0.00354,0.04908,-0.03449,0.05615,-0.02742,0.02519,0.00354,0.01812,-0.00354,0.0*
%
%ADD40THOVALD40*%

%AMTHOVALD41*
21,1,0.03150,0.09150,0,0,360.0*
1,1,0.09150,-0.01575,0.00000*
1,1,0.09150,0.01575,0.00000*
21,0,0.03150,0.07150,0,0,360.0*
1,0,0.07150,-0.01575,0.00000*
1,0,0.07150,0.01575,0.00000*
4,0,4,-0.01221,-0.00354,-0.04456,-0.03588,-0.05163,-0.02881,-0.01928,0.00354,-0.01221,-0.00354,0.0*
4,0,4,0.01928,-0.00354,0.05163,0.02881,0.04456,0.03588,0.01221,0.00354,0.01928,-0.00354,0.0*
4,0,4,-0.01928,-0.00354,-0.05163,0.02881,-0.04456,0.03588,-0.01221,0.00354,-0.01928,-0.00354,0.0*
4,0,4,0.01221,-0.00354,0.04456,-0.03588,0.05163,-0.02881,0.01928,0.00354,0.01221,-0.00354,0.0*
%
%ADD41THOVALD41*%

D29*
Y157480D02*
X125984D01*
X0Y0D02*
X23622D01*
Y19685D01*
X102362D01*
Y0D02*
Y19685D01*
Y0D02*
X125984D01*
Y157480D01*
X0Y0D02*
Y157480D01*
D30*
X3937Y150098D02*
D03*
D31*
X5315Y34843D02*
D03*
Y43898D02*
D03*
D32*
X110650Y151181D02*
D03*
D33*
X95650D02*
D03*
X100650D02*
D03*
X105650D02*
D03*
D36*
X20373Y99961D02*
D03*
Y77205D02*
D03*
D37*
X24000Y37500D02*
D03*
X73800Y90500D02*
D03*
X81000Y112000D02*
D03*
X4528Y18972D02*
D03*
X45000Y48500D02*
D03*
Y36000D02*
D03*
X53500Y35500D02*
D03*
X33000Y39500D02*
D03*
X86500Y38500D02*
D03*
X68000Y34500D02*
D03*
X77165Y34665D02*
D03*
X94500Y93000D02*
D03*
X84500Y108000D02*
D03*
X79500Y146500D02*
D03*
X12500Y97500D02*
D03*
X17500Y91000D02*
D03*
X8500Y85500D02*
D03*
X9000Y93000D02*
D03*
X17752Y124261D02*
D03*
X17501Y120952D02*
D03*
X30500Y114500D02*
D03*
X52000Y127000D02*
D03*
X36000Y115208D02*
D03*
X13935Y140935D02*
D03*
X92500Y25500D02*
D03*
X92000Y68000D02*
D03*
X62000Y83000D02*
D03*
X53000Y132000D02*
D03*
X35000Y138500D02*
D03*
X80000Y71500D02*
D03*
X90500Y122000D02*
D03*
X67500Y101000D02*
D03*
Y131911D02*
D03*
X97000Y132500D02*
D03*
X105000Y85000D02*
D03*
X53000Y148000D02*
D03*
X118500Y114500D02*
D03*
X104000Y61000D02*
D03*
X98000Y101500D02*
D03*
X121000Y73500D02*
D03*
X74000Y124500D02*
D03*
X78000Y121000D02*
D03*
X36000Y148000D02*
D03*
X44232Y109000D02*
D03*
X31048Y98653D02*
D03*
X31043Y78514D02*
D03*
X14500Y25500D02*
D03*
X41500Y93000D02*
D03*
Y87500D02*
D03*
X17500Y85500D02*
D03*
X114000Y10000D02*
D03*
X114500Y36500D02*
D03*
X120000Y23500D02*
D03*
X15000Y66000D02*
D03*
X5500Y8500D02*
D03*
X24500Y137000D02*
D03*
D38*
X13622Y13085D02*
D03*
X75500Y66500D02*
D03*
X51000Y121000D02*
D03*
X58470Y124700D02*
D03*
X28000Y61500D02*
D03*
X23000Y27500D02*
D03*
X86000Y140500D02*
D03*
X90500Y116000D02*
D03*
X75500Y109000D02*
D03*
X60500Y138500D02*
D03*
X118000Y128500D02*
D03*
X112500Y98500D02*
D03*
X50500Y87000D02*
D03*
X64500Y89500D02*
D03*
X110500Y58000D02*
D03*
X113000Y43000D02*
D03*
X110000Y26000D02*
D03*
D39*
X3937Y145177D02*
D03*
D40*
X22342Y70866D02*
D03*
Y106299D02*
D03*
D41*
X6003D02*
D03*
Y70866D02*
D03*
M02*
